<svg xmlns="http://www.w3.org/2000/svg" viewBox="0 0 500 500"><g id="freepik--background-complete--inject-2"><rect y="382.4" width="500" height="0.25" style="fill:#ebebeb"></rect><rect x="416.78" y="398.49" width="33.12" height="0.25" style="fill:#ebebeb"></rect><rect x="322.53" y="401.21" width="8.69" height="0.25" style="fill:#ebebeb"></rect><rect x="396.59" y="389.21" width="19.19" height="0.25" style="fill:#ebebeb"></rect><rect x="52.46" y="390.89" width="43.19" height="0.25" style="fill:#ebebeb"></rect><rect x="104.56" y="390.89" width="6.33" height="0.25" style="fill:#ebebeb"></rect><rect x="131.47" y="395.11" width="93.68" height="0.25" style="fill:#ebebeb"></rect><path d="M237,337.8H43.91a5.71,5.71,0,0,1-5.7-5.71V60.66A5.71,5.71,0,0,1,43.91,55H237a5.71,5.71,0,0,1,5.71,5.71V332.09A5.71,5.71,0,0,1,237,337.8ZM43.91,55.2a5.46,5.46,0,0,0-5.45,5.46V332.09a5.46,5.46,0,0,0,5.45,5.46H237a5.47,5.47,0,0,0,5.46-5.46V60.66A5.47,5.47,0,0,0,237,55.2Z" style="fill:#ebebeb"></path><path d="M453.31,337.8H260.21a5.72,5.72,0,0,1-5.71-5.71V60.66A5.72,5.72,0,0,1,260.21,55h193.1A5.71,5.71,0,0,1,459,60.66V332.09A5.71,5.71,0,0,1,453.31,337.8ZM260.21,55.2a5.47,5.47,0,0,0-5.46,5.46V332.09a5.47,5.47,0,0,0,5.46,5.46h193.1a5.47,5.47,0,0,0,5.46-5.46V60.66a5.47,5.47,0,0,0-5.46-5.46Z" style="fill:#ebebeb"></path><polygon points="296.78 129.97 263.55 110.64 237.95 110.64 204.17 129.06 204.17 254.35 296.78 254.35 296.78 129.97" style="fill:#e0e0e0"></polygon><path d="M203.22,130l.95-.92A65.8,65.8,0,0,1,250,110.64h0a65.8,65.8,0,0,1,45.83,18.42l.95.92V254.35H203.22Zm87.36,2.66a60,60,0,0,0-81.16,0v115.5h81.16Z" style="fill:#fafafa"></path><polygon points="252.33 248.89 247.67 248.89 247.67 207.31 208.25 207.31 208.25 202.65 247.67 202.65 247.67 160.13 208.25 160.13 208.25 155.47 247.67 155.47 247.67 116.05 252.33 116.05 252.33 155.47 291.75 155.47 291.75 160.13 252.33 160.13 252.33 202.65 291.75 202.65 291.75 207.31 252.33 207.31 252.33 248.89" style="fill:#f0f0f0"></polygon><path d="M200.11,128.71l.91-.91a69.34,69.34,0,0,1,98,0l.91.91V257.45H200.11Zm93.57,2.59a63.13,63.13,0,0,0-87.36,0V251.24h87.36Z" style="fill:#f0f0f0"></path><polygon points="430.09 129.97 396.86 110.64 371.26 110.64 337.48 129.06 337.48 254.35 430.09 254.35 430.09 129.97" style="fill:#e0e0e0"></polygon><path d="M336.52,130l1-.92a65.78,65.78,0,0,1,45.83-18.42h0a65.82,65.82,0,0,1,45.83,18.42l.95.92V254.35H336.52Zm87.36,2.66a60,60,0,0,0-81.15,0v115.5h81.15Z" style="fill:#fafafa"></path><polygon points="385.63 248.89 380.98 248.89 380.98 207.31 341.56 207.31 341.56 202.65 380.98 202.65 380.98 160.13 341.56 160.13 341.56 155.47 380.98 155.47 380.98 116.05 385.63 116.05 385.63 155.47 425.06 155.47 425.06 160.13 385.63 160.13 385.63 202.65 425.06 202.65 425.06 207.31 385.63 207.31 385.63 248.89" style="fill:#f0f0f0"></polygon><path d="M333.42,128.71l.91-.91a69.33,69.33,0,0,1,97.95,0l.91.91V257.45H333.42ZM427,131.3a63.13,63.13,0,0,0-87.36,0V251.24H427Z" style="fill:#f0f0f0"></path><polygon points="163.48 129.97 130.25 110.64 104.64 110.64 70.86 129.06 70.86 254.35 163.48 254.35 163.48 129.97" style="fill:#e0e0e0"></polygon><path d="M69.91,130l1-.92a65.82,65.82,0,0,1,45.83-18.42h0a65.78,65.78,0,0,1,45.83,18.42l1,.92V254.35H69.91Zm87.36,2.66a60,60,0,0,0-81.15,0v115.5h81.15Z" style="fill:#fafafa"></path><polygon points="119.02 248.89 114.37 248.89 114.37 207.31 74.94 207.31 74.94 202.65 114.37 202.65 114.37 160.13 74.94 160.13 74.94 155.47 114.37 155.47 114.37 116.05 119.02 116.05 119.02 155.47 158.44 155.47 158.44 160.13 119.02 160.13 119.02 202.65 158.44 202.65 158.44 207.31 119.02 207.31 119.02 248.89" style="fill:#f0f0f0"></polygon><path d="M66.81,128.71l.91-.91a69.33,69.33,0,0,1,97.95,0l.91.91V257.45H66.81Zm93.56,2.59a63.13,63.13,0,0,0-87.36,0V251.24h87.36Z" style="fill:#f0f0f0"></path></g><g id="freepik--Shadow--inject-2"><ellipse id="freepik--path--inject-2" cx="250" cy="416.24" rx="193.89" ry="11.32" style="fill:#f5f5f5"></ellipse></g><g id="freepik--plant-2--inject-2"><path d="M411.88,381.34c0-.36-1.23-36.06-7-41.7-5.62-5.46-12.08-.2-12.35,0l-.64-.77c.07-.06,7.43-6.06,13.69,0,6.08,5.91,7.27,40.89,7.32,42.38Z" style="fill:#263238"></path><path d="M412.38,388.36c-.05-.42-4-42.9,11.54-60.7l.75.65c-15.23,17.49-11.34,59.53-11.3,60Z" style="fill:#263238"></path><path d="M411.89,383.87l-1-.06c0-.48,3-48.25-8.32-58.69l.68-.74C415,335.15,412,381.89,411.89,383.87Z" style="fill:#263238"></path><path d="M413.37,383.84h-1c0-1.31.38-32.3,9.19-37.35a6.29,6.29,0,0,1,5.73-.56c5.34,2.21,8,11.7,8.09,12.1l-1,.26c0-.09-2.62-9.41-7.51-11.43a5.32,5.32,0,0,0-4.85.5C413.74,352.12,413.38,383.53,413.37,383.84Z" style="fill:#263238"></path><path d="M410,383.87l-1-.06c0-.24,1.33-24.45-5.2-33-1.58-2-3.28-3-5.08-2.91-4.26.3-7.84,6.55-7.87,6.61l-.88-.49c.16-.28,3.88-6.78,8.68-7.11,2.16-.14,4.15,1,5.94,3.3C411.29,359.05,410,382.86,410,383.87Z" style="fill:#263238"></path><path d="M411.29,387.16c-.18-2.35-4.27-57.67,2.94-67.43l.81.6c-7,9.46-2.8,66.18-2.75,66.76Z" style="fill:#263238"></path><path d="M429.24,351.57s-4.33,1.59-3,5.36,14.95,9.95,14.95,9.95,5.73-5.25.47-13.78S429.35,348.88,429.24,351.57Z" style="fill:#006994"></path><path d="M429.24,351.57s-4.33,1.59-3,5.36,14.95,9.95,14.95,9.95,5.73-5.25.47-13.78S429.35,348.88,429.24,351.57Z" style="fill:#fff;opacity:0.2;isolation:isolate"></path><path d="M410.45,344.41s4.6-.19,4.86,3.77-10,14.95-10,14.95-7.3-2.64-5.74-12.54S409.3,342,410.45,344.41Z" style="fill:#006994"></path><path d="M410.45,344.41s4.6-.19,4.86,3.77-10,14.95-10,14.95-7.3-2.64-5.74-12.54S409.3,342,410.45,344.41Z" style="fill:#fff;opacity:0.2;isolation:isolate"></path><path d="M406.55,325.42s3.07-.33,2.82-2.2-11.93-6.68-18.82,1.1c0,0,4.41,7.58,10.79,7.68S406.55,325.42,406.55,325.42Z" style="fill:#006994"></path><path d="M406.55,325.42s3.07-.33,2.82-2.2-11.93-6.68-18.82,1.1c0,0,4.41,7.58,10.79,7.68S406.55,325.42,406.55,325.42Z" style="fill:#fff;opacity:0.2;isolation:isolate"></path><path d="M412.27,320.88s-2.78,1.35-3.56-.37,6.59-12,16.55-9c0,0,.27,8.76-5.09,12.22S412.27,320.88,412.27,320.88Z" style="fill:#006994"></path><path d="M412.27,320.88s-2.78,1.35-3.56-.37,6.59-12,16.55-9c0,0,.27,8.76-5.09,12.22S412.27,320.88,412.27,320.88Z" style="fill:#fff;opacity:0.2;isolation:isolate"></path><path d="M397.74,350.06s2.12-1.71-.17-2.55S384.07,346.92,384,358c0,0,13.06,2.17,14.68-2.07S397.74,350.06,397.74,350.06Z" style="fill:#006994"></path><path d="M397.74,350.06s2.12-1.71-.17-2.55S384.07,346.92,384,358c0,0,13.06,2.17,14.68-2.07S397.74,350.06,397.74,350.06Z" style="fill:#fff;opacity:0.2;isolation:isolate"></path><path d="M424.37,325.14s-2.11-1.71.17-2.54,13.5-.6,13.62,10.51c0,0-13.06,2.17-14.68-2.06S424.37,325.14,424.37,325.14Z" style="fill:#006994"></path><path d="M424.37,325.14s-2.11-1.71.17-2.54,13.5-.6,13.62,10.51c0,0-13.06,2.17-14.68-2.06S424.37,325.14,424.37,325.14Z" style="fill:#fff;opacity:0.2;isolation:isolate"></path><path d="M417.47,334.09s-.19-2.08,1.49-1.26,7.52,7.12,1.46,13.1c0,0-8.15-6-6.68-9.18S417.47,334.09,417.47,334.09Z" style="fill:#006994"></path><path d="M417.47,334.09s-.19-2.08,1.49-1.26,7.52,7.12,1.46,13.1c0,0-8.15-6-6.68-9.18S417.47,334.09,417.47,334.09Z" style="fill:#fff;opacity:0.2;isolation:isolate"></path><path d="M395.84,337.05s1.27-1.66-.58-1.86-10.17,2-8.23,10.31c0,0,10.12-.76,10.55-4.21S395.84,337.05,395.84,337.05Z" style="fill:#006994"></path><path d="M395.84,337.05s1.27-1.66-.58-1.86-10.17,2-8.23,10.31c0,0,10.12-.76,10.55-4.21S395.84,337.05,395.84,337.05Z" style="fill:#fff;opacity:0.2;isolation:isolate"></path><polygon points="430.04 414.63 395.31 414.63 391.56 376.61 433.79 376.61 430.04 414.63" style="fill:#006994"></polygon><polygon points="430.04 414.63 395.31 414.63 391.56 376.61 433.79 376.61 430.04 414.63" style="opacity:0.2;isolation:isolate"></polygon><rect x="389.71" y="372.41" width="45.94" height="8.39" style="fill:#006994"></rect></g><g id="freepik--plant-1--inject-2"><path d="M89.39,380s-3.93-22.32,1.27-44.21,3.8-26.44,8.16-31c0,0-.2,3.8,0,9.51S97.63,335,97.63,350,98.57,387.39,89.39,380Z" style="fill:#006994"></path><path d="M89.39,380s-3.93-22.32,1.27-44.21,3.8-26.44,8.16-31c0,0-.2,3.8,0,9.51S97.63,335,97.63,350,98.57,387.39,89.39,380Z" style="fill:#fff;opacity:0.2;isolation:isolate"></path><path d="M86.55,382.5s-3.16.45-6.06-14.94-5.07-24.62-9.13-34.38-1.85-22.68-1.85-22.68a40.78,40.78,0,0,0,4.65,12.66c3.43,5.54,8.17,16.06,12.39,28.34S93.15,380.92,86.55,382.5Z" style="fill:#006994"></path><path d="M95.31,379.45c-4-2,1.92-29,8.85-39.92s5.86-18,8.57-20c0,0,.65,2.35,0,8.09s-.46,15.2-4.62,23.92S102.88,383.26,95.31,379.45Z" style="fill:#006994"></path><path d="M86.55,382.5s-3.16.45-6.06-14.94-5.07-24.62-9.13-34.38-1.85-22.68-1.85-22.68a40.78,40.78,0,0,0,4.65,12.66c3.43,5.54,8.17,16.06,12.39,28.34S93.15,380.92,86.55,382.5Z" style="fill:#fff;opacity:0.30000000000000004;isolation:isolate"></path><path d="M95.31,379.45c-4-2,1.92-29,8.85-39.92s5.86-18,8.57-20c0,0,.65,2.35,0,8.09s-.46,15.2-4.62,23.92S102.88,383.26,95.31,379.45Z" style="fill:#fff;opacity:0.30000000000000004;isolation:isolate"></path><path d="M89.39,380c.77-5.19-13.32-18.14-16.29-21s-6.33-10.73-6.33-10.73-.66,9.86,2.74,13.83,7.65,8.41,10.27,14.8S88.28,387.59,89.39,380Z" style="fill:#006994"></path><path d="M95.85,381.48c-4.72-3.26,1.7-9,8-14.56s7-9.93,8.91-13.76,6.42-4.82,6.42-4.82-2.8,3.11-3.26,4.82-7.78,15.95-9.56,21.69S100,384.34,95.85,381.48Z" style="fill:#006994"></path><path d="M89.39,380c.77-5.19-13.32-18.14-16.29-21s-6.33-10.73-6.33-10.73-.66,9.86,2.74,13.83,7.65,8.41,10.27,14.8S88.28,387.59,89.39,380Z" style="fill:#fff;opacity:0.4;isolation:isolate"></path><path d="M95.85,381.48c-4.72-3.26,1.7-9,8-14.56s7-9.93,8.91-13.76,6.42-4.82,6.42-4.82-2.8,3.11-3.26,4.82-7.78,15.95-9.56,21.69S100,384.34,95.85,381.48Z" style="fill:#fff;opacity:0.4;isolation:isolate"></path><polygon points="109.84 414.63 75.11 414.63 71.36 376.61 113.59 376.61 109.84 414.63" style="fill:#006994"></polygon><polygon points="109.84 414.63 75.11 414.63 71.36 376.61 113.59 376.61 109.84 414.63" style="opacity:0.2;isolation:isolate"></polygon><rect x="69.51" y="372.41" width="45.94" height="8.39" style="fill:#006994"></rect></g><g id="freepik--Table--inject-2"><path d="M381.38,285.81l4.47,126.25-5.67,1.55a29.23,29.23,0,0,1-15.31,0h0a29.41,29.41,0,0,0-15.3,0h0a29.23,29.23,0,0,1-15.31,0h0a29.41,29.41,0,0,0-15.3,0h0a29.3,29.3,0,0,1-15.3,0h0a29.41,29.41,0,0,0-15.3,0h0a29.34,29.34,0,0,1-15.31,0h0a29.44,29.44,0,0,0-15.31,0h0a29.34,29.34,0,0,1-15.31,0h0a29.44,29.44,0,0,0-15.31,0h0a29.23,29.23,0,0,1-15.31,0h0a29.41,29.41,0,0,0-15.3,0h0a29.3,29.3,0,0,1-15.3,0h0a29.41,29.41,0,0,0-15.3,0h0a29.3,29.3,0,0,1-15.3,0h0a29.44,29.44,0,0,0-15.31,0h0a29.23,29.23,0,0,1-15.31,0l-5.68-1.55,4.48-126.25Z" style="fill:#006994"></path><path d="M381.38,285.81l4.47,126.25-5.67,1.55a29.23,29.23,0,0,1-15.31,0h0a29.41,29.41,0,0,0-15.3,0h0a29.23,29.23,0,0,1-15.31,0h0a29.41,29.41,0,0,0-15.3,0h0a29.3,29.3,0,0,1-15.3,0h0a29.41,29.41,0,0,0-15.3,0h0a29.34,29.34,0,0,1-15.31,0h0a29.44,29.44,0,0,0-15.31,0h0a29.34,29.34,0,0,1-15.31,0h0a29.44,29.44,0,0,0-15.31,0h0a29.23,29.23,0,0,1-15.31,0h0a29.41,29.41,0,0,0-15.3,0h0a29.3,29.3,0,0,1-15.3,0h0a29.41,29.41,0,0,0-15.3,0h0a29.3,29.3,0,0,1-15.3,0h0a29.44,29.44,0,0,0-15.31,0h0a29.23,29.23,0,0,1-15.31,0l-5.68-1.55,4.48-126.25Z" style="fill:#fff;opacity:0.7000000000000001"></path><polygon points="116.26 280.8 113.17 305.94 125.34 303.6 127.9 280.8 116.26 280.8" style="fill:#006994"></polygon><polygon points="116.26 280.8 113.17 305.94 125.34 303.6 127.9 280.8 116.26 280.8" style="fill:#fff;opacity:0.8"></polygon><polygon points="127.9 280.8 124.18 302.85 113.17 305.94 125.34 303.6 127.9 280.8" style="opacity:0.2"></polygon><polygon points="127.9 280.8 125.08 305.94 137.23 303.6 139.54 280.8 127.9 280.8" style="fill:#006994"></polygon><polygon points="127.9 280.8 125.08 305.94 137.23 303.6 139.54 280.8 127.9 280.8" style="fill:#fff;opacity:0.8"></polygon><polygon points="139.54 280.8 136.06 302.85 125.08 305.94 137.23 303.6 139.54 280.8" style="opacity:0.2"></polygon><polygon points="139.54 280.8 136.99 305.94 149.12 303.6 151.19 280.8 139.54 280.8" style="fill:#006994"></polygon><polygon points="139.54 280.8 136.99 305.94 149.12 303.6 151.19 280.8 139.54 280.8" style="fill:#fff;opacity:0.8"></polygon><polygon points="151.19 280.8 147.93 302.85 136.99 305.94 149.12 303.6 151.19 280.8" style="opacity:0.2"></polygon><polygon points="151.19 280.8 148.9 305.94 161 303.6 162.83 280.8 151.19 280.8" style="fill:#006994"></polygon><polygon points="151.19 280.8 148.9 305.94 161 303.6 162.83 280.8 151.19 280.8" style="fill:#fff;opacity:0.8"></polygon><polygon points="162.83 280.8 159.81 302.85 148.9 305.94 161 303.6 162.83 280.8" style="opacity:0.2"></polygon><polygon points="162.83 280.8 160.81 305.94 172.89 303.6 174.47 280.8 162.83 280.8" style="fill:#006994"></polygon><polygon points="162.83 280.8 160.81 305.94 172.89 303.6 174.47 280.8 162.83 280.8" style="fill:#fff;opacity:0.8"></polygon><polygon points="174.47 280.8 171.69 302.85 160.81 305.94 172.89 303.6 174.47 280.8" style="opacity:0.2"></polygon><polygon points="174.47 280.8 172.72 305.94 184.77 303.6 186.11 280.8 174.47 280.8" style="fill:#006994"></polygon><polygon points="174.47 280.8 172.72 305.94 184.77 303.6 186.11 280.8 174.47 280.8" style="fill:#fff;opacity:0.8"></polygon><polygon points="186.11 280.8 183.57 302.85 172.72 305.94 184.77 303.6 186.11 280.8" style="opacity:0.2"></polygon><polygon points="186.11 280.8 184.63 305.94 196.66 303.6 197.75 280.8 186.11 280.8" style="fill:#006994"></polygon><polygon points="186.11 280.8 184.63 305.94 196.66 303.6 197.75 280.8 186.11 280.8" style="fill:#fff;opacity:0.8"></polygon><polygon points="197.75 280.8 195.44 302.85 184.63 305.94 196.66 303.6 197.75 280.8" style="opacity:0.2"></polygon><polygon points="197.75 280.8 196.54 305.94 208.54 303.6 209.4 280.8 197.75 280.8" style="fill:#006994"></polygon><polygon points="197.75 280.8 196.54 305.94 208.54 303.6 209.4 280.8 197.75 280.8" style="fill:#fff;opacity:0.8"></polygon><polygon points="209.4 280.8 207.32 302.85 196.54 305.94 208.54 303.6 209.4 280.8" style="opacity:0.2"></polygon><polygon points="209.4 280.8 208.46 305.94 220.43 303.6 221.04 280.8 209.4 280.8" style="fill:#006994"></polygon><polygon points="209.4 280.8 208.46 305.94 220.43 303.6 221.04 280.8 209.4 280.8" style="fill:#fff;opacity:0.8"></polygon><polygon points="221.04 280.8 219.2 302.85 208.46 305.94 220.43 303.6 221.04 280.8" style="opacity:0.2"></polygon><polygon points="221.04 280.8 220.37 305.94 232.31 303.6 232.68 280.8 221.04 280.8" style="fill:#006994"></polygon><polygon points="221.04 280.8 220.37 305.94 232.31 303.6 232.68 280.8 221.04 280.8" style="fill:#fff;opacity:0.8"></polygon><polygon points="232.68 280.8 231.08 302.85 220.37 305.94 232.31 303.6 232.68 280.8" style="opacity:0.2"></polygon><polygon points="232.68 280.8 232.28 305.94 244.2 303.6 244.32 280.8 232.68 280.8" style="fill:#006994"></polygon><polygon points="232.68 280.8 232.28 305.94 244.2 303.6 244.32 280.8 232.68 280.8" style="fill:#fff;opacity:0.8"></polygon><polygon points="244.32 280.8 242.96 302.85 232.28 305.94 244.2 303.6 244.32 280.8" style="opacity:0.2"></polygon><polygon points="244.32 280.8 244.19 305.94 256.09 303.6 255.97 280.8 244.32 280.8" style="fill:#006994"></polygon><polygon points="244.32 280.8 244.19 305.94 256.09 303.6 255.97 280.8 244.32 280.8" style="fill:#fff;opacity:0.8"></polygon><polygon points="255.97 280.8 254.83 302.85 244.19 305.94 256.09 303.6 255.97 280.8" style="opacity:0.2"></polygon><polygon points="255.97 280.8 256.1 305.94 267.97 303.6 267.61 280.8 255.97 280.8" style="fill:#006994"></polygon><polygon points="255.97 280.8 256.1 305.94 267.97 303.6 267.61 280.8 255.97 280.8" style="fill:#fff;opacity:0.8"></polygon><polygon points="267.61 280.8 266.71 302.85 256.1 305.94 267.97 303.6 267.61 280.8" style="opacity:0.2"></polygon><polygon points="267.61 280.8 268.01 305.94 279.86 303.6 279.25 280.8 267.61 280.8" style="fill:#006994"></polygon><polygon points="267.61 280.8 268.01 305.94 279.86 303.6 279.25 280.8 267.61 280.8" style="fill:#fff;opacity:0.8"></polygon><polygon points="279.25 280.8 278.59 302.85 268.01 305.94 279.86 303.6 279.25 280.8" style="opacity:0.2"></polygon><polygon points="279.25 280.8 279.92 305.94 291.74 303.6 290.89 280.8 279.25 280.8" style="fill:#006994"></polygon><polygon points="279.25 280.8 279.92 305.94 291.74 303.6 290.89 280.8 279.25 280.8" style="fill:#fff;opacity:0.8"></polygon><polygon points="290.89 280.8 290.47 302.85 279.92 305.94 291.74 303.6 290.89 280.8" style="opacity:0.2"></polygon><polygon points="290.89 280.8 291.83 305.94 303.63 303.6 302.53 280.8 290.89 280.8" style="fill:#006994"></polygon><polygon points="290.89 280.8 291.83 305.94 303.63 303.6 302.53 280.8 290.89 280.8" style="fill:#fff;opacity:0.8"></polygon><polygon points="302.53 280.8 302.34 302.85 291.83 305.94 303.63 303.6 302.53 280.8" style="opacity:0.2"></polygon><polygon points="302.53 280.8 303.74 305.94 315.52 303.6 314.18 280.8 302.53 280.8" style="fill:#006994"></polygon><polygon points="302.53 280.8 303.74 305.94 315.52 303.6 314.18 280.8 302.53 280.8" style="fill:#fff;opacity:0.8"></polygon><polygon points="314.18 280.8 314.22 302.85 303.74 305.94 315.52 303.6 314.18 280.8" style="opacity:0.2"></polygon><polygon points="314.18 280.8 315.65 305.94 327.4 303.6 325.82 280.8 314.18 280.8" style="fill:#006994"></polygon><polygon points="314.18 280.8 315.65 305.94 327.4 303.6 325.82 280.8 314.18 280.8" style="fill:#fff;opacity:0.8"></polygon><polygon points="325.82 280.8 326.1 302.85 315.65 305.94 327.4 303.6 325.82 280.8" style="opacity:0.2"></polygon><polygon points="325.82 280.8 327.56 305.94 339.29 303.6 337.46 280.8 325.82 280.8" style="fill:#006994"></polygon><polygon points="325.82 280.8 327.56 305.94 339.29 303.6 337.46 280.8 325.82 280.8" style="fill:#fff;opacity:0.8"></polygon><polygon points="337.46 280.8 337.98 302.85 327.56 305.94 339.29 303.6 337.46 280.8" style="opacity:0.2"></polygon><polygon points="337.46 280.8 339.48 305.94 351.17 303.6 349.1 280.8 337.46 280.8" style="fill:#006994"></polygon><polygon points="337.46 280.8 339.48 305.94 351.17 303.6 349.1 280.8 337.46 280.8" style="fill:#fff;opacity:0.8"></polygon><polygon points="349.1 280.8 349.86 302.85 339.48 305.94 351.17 303.6 349.1 280.8" style="opacity:0.2"></polygon><polygon points="349.1 280.8 351.39 305.94 363.06 303.6 360.74 280.8 349.1 280.8" style="fill:#006994"></polygon><polygon points="349.1 280.8 351.39 305.94 363.06 303.6 360.74 280.8 349.1 280.8" style="fill:#fff;opacity:0.8"></polygon><polygon points="360.74 280.8 361.73 302.85 351.39 305.94 363.06 303.6 360.74 280.8" style="opacity:0.2"></polygon><polygon points="360.74 280.8 363.3 305.94 374.94 303.6 372.38 280.8 360.74 280.8" style="fill:#006994"></polygon><polygon points="360.74 280.8 363.3 305.94 374.94 303.6 372.38 280.8 360.74 280.8" style="fill:#fff;opacity:0.8"></polygon><polygon points="372.38 280.8 373.61 302.85 363.3 305.94 374.94 303.6 372.38 280.8" style="opacity:0.2"></polygon><polygon points="372.38 280.8 375.21 305.94 386.83 303.6 384.03 280.8 372.38 280.8" style="fill:#006994"></polygon><polygon points="372.38 280.8 375.21 305.94 386.83 303.6 384.03 280.8 372.38 280.8" style="fill:#fff;opacity:0.8"></polygon><polygon points="384.03 280.8 385.49 302.85 375.21 305.94 386.83 303.6 384.03 280.8" style="opacity:0.2"></polygon><g style="opacity:0.1"><path d="M380.16,388.79a12.65,12.65,0,0,1-1.41,4.09,7.81,7.81,0,0,1-2.83,3.06c-.31.16-.61.34-.93.48l-1,.35a10.23,10.23,0,0,1-2.06.29l-.53,0c-.17,0-.34,0-.51,0l-1-.12a11.47,11.47,0,0,1-2-.68,21.15,21.15,0,0,1-6.65-5.3,37.1,37.1,0,0,1-2.74-3.38c-.89-1.16-1.7-2.37-2.5-3.6a35.8,35.8,0,0,0,4.65,7.48,19.41,19.41,0,0,0,6.83,5.71,11.88,11.88,0,0,0,2.18.73c.38.06.77.08,1.16.12.19,0,.39,0,.58,0l.57,0a8.15,8.15,0,0,0,4.33-1.42,8.34,8.34,0,0,0,2.84-3.48A11.42,11.42,0,0,0,380.16,388.79Z"></path></g><g style="opacity:0.1"><path d="M346.4,388.79a12.67,12.67,0,0,1-1.42,4.09,7.81,7.81,0,0,1-2.83,3.06c-.31.16-.6.34-.92.48l-1,.35a10.13,10.13,0,0,1-2.06.29l-.52,0c-.18,0-.35,0-.52,0l-1-.12a11.37,11.37,0,0,1-2-.68,21.19,21.19,0,0,1-6.66-5.3,40.82,40.82,0,0,1-2.74-3.38c-.89-1.16-1.7-2.37-2.49-3.6a35.8,35.8,0,0,0,4.65,7.48,19.33,19.33,0,0,0,6.83,5.71,11.4,11.4,0,0,0,2.18.73c.38.06.77.08,1.15.12.2,0,.39,0,.58,0l.57,0a8.12,8.12,0,0,0,4.33-1.42,8.44,8.44,0,0,0,2.85-3.48A11.61,11.61,0,0,0,346.4,388.79Z"></path></g><g style="opacity:0.1"><path d="M312.63,388.79a12.67,12.67,0,0,1-1.42,4.09,7.74,7.74,0,0,1-2.83,3.06c-.31.16-.6.34-.92.48l-1,.35a10.32,10.32,0,0,1-2.07.29l-.52,0c-.17,0-.34,0-.51,0-.34,0-.69-.07-1-.12a11.37,11.37,0,0,1-2-.68,21.15,21.15,0,0,1-6.65-5.3,39,39,0,0,1-2.75-3.38c-.88-1.16-1.69-2.37-2.49-3.6a35.8,35.8,0,0,0,4.65,7.48,19.33,19.33,0,0,0,6.83,5.71,11.63,11.63,0,0,0,2.18.73c.38.06.77.08,1.16.12.19,0,.38,0,.57,0l.58,0a8.09,8.09,0,0,0,4.32-1.42,8.37,8.37,0,0,0,2.85-3.48A11.61,11.61,0,0,0,312.63,388.79Z"></path></g><g style="opacity:0.1"><path d="M278.86,388.79a12.65,12.65,0,0,1-1.41,4.09,7.81,7.81,0,0,1-2.83,3.06c-.31.16-.61.34-.93.48l-1,.35a10.23,10.23,0,0,1-2.06.29l-.53,0c-.17,0-.34,0-.51,0l-1-.12a11.47,11.47,0,0,1-2-.68,21.15,21.15,0,0,1-6.65-5.3,37.1,37.1,0,0,1-2.74-3.38c-.89-1.16-1.7-2.37-2.5-3.6a35.8,35.8,0,0,0,4.65,7.48,19.41,19.41,0,0,0,6.83,5.71,11.88,11.88,0,0,0,2.18.73c.38.06.77.08,1.16.12.19,0,.39,0,.58,0l.57,0a8.15,8.15,0,0,0,4.33-1.42,8.34,8.34,0,0,0,2.84-3.48A11.42,11.42,0,0,0,278.86,388.79Z"></path></g><g style="opacity:0.1"><path d="M119.68,388.79a11.42,11.42,0,0,0,1,4.31,8.34,8.34,0,0,0,2.84,3.48,8.15,8.15,0,0,0,4.33,1.42l.57,0c.19,0,.39,0,.58,0,.39,0,.78-.06,1.16-.12a11.88,11.88,0,0,0,2.18-.73,19.41,19.41,0,0,0,6.83-5.71A35.8,35.8,0,0,0,143.8,384c-.8,1.23-1.61,2.44-2.5,3.6a37.1,37.1,0,0,1-2.74,3.38,21.15,21.15,0,0,1-6.65,5.3,11.47,11.47,0,0,1-2,.68l-1,.12c-.17,0-.34,0-.51,0l-.53,0a10.23,10.23,0,0,1-2.06-.29l-1-.35c-.32-.14-.62-.32-.93-.48a7.88,7.88,0,0,1-2.83-3.06A12.65,12.65,0,0,1,119.68,388.79Z"></path></g><g style="opacity:0.1"><path d="M153.44,388.79a11.61,11.61,0,0,0,1,4.31,8.44,8.44,0,0,0,2.85,3.48A8.12,8.12,0,0,0,161.6,398l.57,0c.19,0,.38,0,.58,0,.38,0,.77-.06,1.15-.12a11.4,11.4,0,0,0,2.18-.73,19.24,19.24,0,0,0,6.83-5.71,35.8,35.8,0,0,0,4.65-7.48c-.79,1.23-1.6,2.44-2.49,3.6a38.87,38.87,0,0,1-2.74,3.38,21.08,21.08,0,0,1-6.66,5.3,11.08,11.08,0,0,1-2,.68l-1,.12c-.17,0-.34,0-.52,0l-.52,0a10.23,10.23,0,0,1-2.06-.29l-1-.35c-.32-.14-.61-.32-.92-.48a7.81,7.81,0,0,1-2.83-3.06A12.67,12.67,0,0,1,153.44,388.79Z"></path></g><g style="opacity:0.1"><path d="M187.21,388.79a11.61,11.61,0,0,0,1,4.31,8.37,8.37,0,0,0,2.85,3.48,8.09,8.09,0,0,0,4.32,1.42l.58,0c.19,0,.38,0,.57,0,.39,0,.78-.06,1.16-.12a11.63,11.63,0,0,0,2.18-.73,19.33,19.33,0,0,0,6.83-5.71,35.8,35.8,0,0,0,4.65-7.48c-.8,1.23-1.61,2.44-2.49,3.6a39,39,0,0,1-2.75,3.38,21.15,21.15,0,0,1-6.65,5.3,11.37,11.37,0,0,1-2,.68c-.34.05-.69.08-1,.12-.17,0-.34,0-.51,0l-.52,0a10.32,10.32,0,0,1-2.07-.29l-1-.35c-.32-.14-.61-.32-.92-.48a7.74,7.74,0,0,1-2.83-3.06A12.67,12.67,0,0,1,187.21,388.79Z"></path></g><g style="opacity:0.1"><path d="M221,388.79a11.42,11.42,0,0,0,1,4.31,8.34,8.34,0,0,0,2.84,3.48,8.15,8.15,0,0,0,4.33,1.42l.57,0c.19,0,.39,0,.58,0,.39,0,.78-.06,1.16-.12a11.88,11.88,0,0,0,2.18-.73,19.41,19.41,0,0,0,6.83-5.71A35.8,35.8,0,0,0,245.1,384c-.8,1.23-1.61,2.44-2.5,3.6a37.1,37.1,0,0,1-2.74,3.38,21.15,21.15,0,0,1-6.65,5.3,11.47,11.47,0,0,1-2,.68l-1,.12c-.17,0-.34,0-.51,0l-.53,0a10.23,10.23,0,0,1-2.06-.29l-1-.35c-.32-.14-.62-.32-.93-.48a7.88,7.88,0,0,1-2.83-3.06A12.65,12.65,0,0,1,221,388.79Z"></path></g><g style="opacity:0.1"><path d="M379.16,364.78a12.51,12.51,0,0,1-1.41,4.08,8,8,0,0,1-2.83,3.07c-.31.15-.61.34-.93.47l-1,.35A9.56,9.56,0,0,1,371,373l-.53,0a4.4,4.4,0,0,1-.51-.05c-.34,0-.68-.06-1-.11a10.71,10.71,0,0,1-2-.69,21,21,0,0,1-6.65-5.29,38.52,38.52,0,0,1-2.74-3.38c-.89-1.16-1.7-2.37-2.5-3.61a35.61,35.61,0,0,0,4.65,7.49,19.49,19.49,0,0,0,6.83,5.7,11.17,11.17,0,0,0,2.18.73c.38.06.77.08,1.16.12a5.67,5.67,0,0,0,.58,0l.57,0a8.14,8.14,0,0,0,4.33-1.41,8.37,8.37,0,0,0,2.84-3.49A11.33,11.33,0,0,0,379.16,364.78Z"></path></g><g style="opacity:0.1"><path d="M345.68,364.78a12.51,12.51,0,0,1-1.41,4.08,8,8,0,0,1-2.83,3.07c-.31.15-.61.34-.93.47l-1,.35a9.57,9.57,0,0,1-2.07.29l-.52,0a4.4,4.4,0,0,1-.51-.05c-.34,0-.69-.06-1-.11a10.71,10.71,0,0,1-2-.69,21,21,0,0,1-6.65-5.29,38.52,38.52,0,0,1-2.74-3.38c-.89-1.16-1.7-2.37-2.5-3.61a35.61,35.61,0,0,0,4.65,7.49,19.49,19.49,0,0,0,6.83,5.7,11.17,11.17,0,0,0,2.18.73c.38.06.77.08,1.16.12a5.44,5.44,0,0,0,.58,0l.57,0a8.14,8.14,0,0,0,4.33-1.41,8.37,8.37,0,0,0,2.84-3.49A11.52,11.52,0,0,0,345.68,364.78Z"></path></g><g style="opacity:0.1"><path d="M312.2,364.78a12.75,12.75,0,0,1-1.41,4.08,8,8,0,0,1-2.83,3.07c-.31.15-.61.34-.93.47l-1,.35A9.57,9.57,0,0,1,304,373l-.52,0A4.4,4.4,0,0,1,303,373c-.34,0-.69-.06-1-.11a10.71,10.71,0,0,1-2-.69,21,21,0,0,1-6.65-5.29,38.52,38.52,0,0,1-2.74-3.38c-.89-1.16-1.7-2.37-2.5-3.61a35.61,35.61,0,0,0,4.65,7.49,19.49,19.49,0,0,0,6.83,5.7,11.17,11.17,0,0,0,2.18.73c.38.06.77.08,1.16.12a5.44,5.44,0,0,0,.58,0l.57,0a8.08,8.08,0,0,0,4.32-1.41,8.32,8.32,0,0,0,2.85-3.49A11.52,11.52,0,0,0,312.2,364.78Z"></path></g><g style="opacity:0.1"><path d="M278.72,364.78a12.75,12.75,0,0,1-1.41,4.08,8,8,0,0,1-2.83,3.07c-.32.15-.61.34-.93.47l-1,.35a9.57,9.57,0,0,1-2.07.29l-.52,0a4.4,4.4,0,0,1-.51-.05c-.34,0-.69-.06-1-.11a10.88,10.88,0,0,1-2-.69,21,21,0,0,1-6.65-5.29,40.55,40.55,0,0,1-2.75-3.38c-.88-1.16-1.69-2.37-2.49-3.61a35.61,35.61,0,0,0,4.65,7.49,19.4,19.4,0,0,0,6.83,5.7,11,11,0,0,0,2.18.73c.38.06.77.08,1.16.12a5.48,5.48,0,0,0,.57,0l.58,0a8.08,8.08,0,0,0,4.32-1.41,8.4,8.4,0,0,0,2.85-3.49A11.52,11.52,0,0,0,278.72,364.78Z"></path></g><g style="opacity:0.1"><path d="M120.68,364.78a11.52,11.52,0,0,0,1,4.3,8.37,8.37,0,0,0,2.84,3.49,8.14,8.14,0,0,0,4.33,1.41l.57,0a5.67,5.67,0,0,0,.58,0c.39,0,.78-.06,1.16-.12a11.17,11.17,0,0,0,2.18-.73,19.49,19.49,0,0,0,6.83-5.7,35.61,35.61,0,0,0,4.65-7.49c-.8,1.24-1.61,2.45-2.5,3.61a38.52,38.52,0,0,1-2.74,3.38,21,21,0,0,1-6.65,5.29,10.71,10.71,0,0,1-2,.69c-.33,0-.68.07-1,.11a4.4,4.4,0,0,1-.51.05l-.52,0a9.57,9.57,0,0,1-2.07-.29l-1-.35c-.32-.13-.62-.32-.93-.47a8,8,0,0,1-2.83-3.07A12.51,12.51,0,0,1,120.68,364.78Z"></path></g><g style="opacity:0.1"><path d="M154.16,364.78a11.52,11.52,0,0,0,1,4.3,8.37,8.37,0,0,0,2.84,3.49,8.14,8.14,0,0,0,4.33,1.41l.57,0a5.44,5.44,0,0,0,.58,0c.39,0,.78-.06,1.16-.12a11.17,11.17,0,0,0,2.18-.73,19.49,19.49,0,0,0,6.83-5.7,35.61,35.61,0,0,0,4.65-7.49c-.8,1.24-1.61,2.45-2.5,3.61a38.52,38.52,0,0,1-2.74,3.38,21,21,0,0,1-6.65,5.29,10.71,10.71,0,0,1-2,.69c-.33,0-.68.07-1,.11a4.4,4.4,0,0,1-.51.05l-.52,0a9.57,9.57,0,0,1-2.07-.29l-1-.35c-.32-.13-.62-.32-.93-.47a8,8,0,0,1-2.83-3.07A12.51,12.51,0,0,1,154.16,364.78Z"></path></g><g style="opacity:0.1"><path d="M187.64,364.78a11.52,11.52,0,0,0,1,4.3,8.4,8.4,0,0,0,2.85,3.49,8.08,8.08,0,0,0,4.32,1.41l.57,0a5.44,5.44,0,0,0,.58,0c.39,0,.78-.06,1.16-.12a11.17,11.17,0,0,0,2.18-.73,19.4,19.4,0,0,0,6.83-5.7,35.61,35.61,0,0,0,4.65-7.49c-.8,1.24-1.61,2.45-2.5,3.61a38.52,38.52,0,0,1-2.74,3.38,21,21,0,0,1-6.65,5.29,10.88,10.88,0,0,1-2,.69c-.34,0-.69.07-1,.11a4.4,4.4,0,0,1-.51.05l-.52,0a9.57,9.57,0,0,1-2.07-.29l-1-.35c-.32-.13-.61-.32-.93-.47a8,8,0,0,1-2.83-3.07A12.75,12.75,0,0,1,187.64,364.78Z"></path></g><g style="opacity:0.1"><path d="M221.12,364.78a11.52,11.52,0,0,0,1,4.3,8.4,8.4,0,0,0,2.85,3.49,8.08,8.08,0,0,0,4.32,1.41l.58,0a5.48,5.48,0,0,0,.57,0c.39,0,.78-.06,1.16-.12a11,11,0,0,0,2.18-.73,19.4,19.4,0,0,0,6.83-5.7,35.61,35.61,0,0,0,4.65-7.49c-.8,1.24-1.61,2.45-2.49,3.61a40.55,40.55,0,0,1-2.75,3.38,21,21,0,0,1-6.65,5.29,10.62,10.62,0,0,1-2,.69c-.34,0-.69.07-1,.11a4.4,4.4,0,0,1-.51.05l-.52,0a9.65,9.65,0,0,1-2.07-.29l-1-.35c-.32-.13-.61-.32-.93-.47a7.88,7.88,0,0,1-2.82-3.07A12.53,12.53,0,0,1,221.12,364.78Z"></path></g><g style="opacity:0.1"><path d="M378.16,341.76a12.65,12.65,0,0,1-1.41,4.09,7.88,7.88,0,0,1-2.83,3.06c-.31.16-.61.34-.93.48l-1,.35A10.22,10.22,0,0,1,370,350l-.52,0-.51-.05c-.34,0-.69-.07-1-.12a10.68,10.68,0,0,1-2-.68,21.15,21.15,0,0,1-6.65-5.3,37.1,37.1,0,0,1-2.74-3.38c-.89-1.16-1.7-2.37-2.5-3.6a35.8,35.8,0,0,0,4.65,7.48,19.41,19.41,0,0,0,6.83,5.71,11.88,11.88,0,0,0,2.18.73c.38.06.77.08,1.16.12.19,0,.38,0,.58,0l.57,0a8.15,8.15,0,0,0,4.33-1.42,8.34,8.34,0,0,0,2.84-3.48A11.61,11.61,0,0,0,378.16,341.76Z"></path></g><g style="opacity:0.1"><path d="M345,341.76a12.67,12.67,0,0,1-1.42,4.09,7.81,7.81,0,0,1-2.83,3.06c-.31.16-.6.34-.92.48l-1,.35a10.13,10.13,0,0,1-2.06.29l-.52,0-.52-.05-1-.12a10.58,10.58,0,0,1-2-.68,21.19,21.19,0,0,1-6.66-5.3,40.82,40.82,0,0,1-2.74-3.38c-.89-1.16-1.7-2.37-2.49-3.6a35.8,35.8,0,0,0,4.65,7.48,19.33,19.33,0,0,0,6.83,5.71,11.4,11.4,0,0,0,2.18.73c.38.06.77.08,1.15.12.2,0,.39,0,.58,0l.57,0a8.12,8.12,0,0,0,4.33-1.42,8.37,8.37,0,0,0,2.85-3.48A11.61,11.61,0,0,0,345,341.76Z"></path></g><g style="opacity:0.1"><path d="M311.77,341.76a12.65,12.65,0,0,1-1.41,4.09,7.88,7.88,0,0,1-2.83,3.06c-.31.16-.61.34-.93.48l-1,.35a10.23,10.23,0,0,1-2.06.29l-.53,0-.51-.05c-.34,0-.69-.07-1-.12a10.68,10.68,0,0,1-2-.68,21.15,21.15,0,0,1-6.65-5.3,37.1,37.1,0,0,1-2.74-3.38c-.89-1.16-1.7-2.37-2.5-3.6a35.8,35.8,0,0,0,4.65,7.48,19.41,19.41,0,0,0,6.83,5.71,11.88,11.88,0,0,0,2.18.73c.38.06.77.08,1.16.12.19,0,.39,0,.58,0l.57,0a8.15,8.15,0,0,0,4.33-1.42,8.34,8.34,0,0,0,2.84-3.48A11.61,11.61,0,0,0,311.77,341.76Z"></path></g><g style="opacity:0.1"><path d="M278.58,341.76a12.67,12.67,0,0,1-1.42,4.09,7.81,7.81,0,0,1-2.83,3.06c-.31.16-.6.34-.92.48l-1,.35a10.13,10.13,0,0,1-2.06.29l-.52,0-.52-.05-1-.12a10.58,10.58,0,0,1-2-.68,21.19,21.19,0,0,1-6.66-5.3,40.82,40.82,0,0,1-2.74-3.38c-.89-1.16-1.7-2.37-2.49-3.6a35.8,35.8,0,0,0,4.65,7.48,19.33,19.33,0,0,0,6.83,5.71,11.4,11.4,0,0,0,2.18.73c.38.06.77.08,1.15.12.2,0,.39,0,.58,0l.57,0a8.12,8.12,0,0,0,4.33-1.42,8.37,8.37,0,0,0,2.85-3.48A11.61,11.61,0,0,0,278.58,341.76Z"></path></g><g style="opacity:0.1"><path d="M121.68,341.76a11.61,11.61,0,0,0,1,4.31,8.34,8.34,0,0,0,2.84,3.48,8.15,8.15,0,0,0,4.33,1.42l.57,0c.2,0,.39,0,.58,0,.39,0,.78-.06,1.16-.12a11.88,11.88,0,0,0,2.18-.73,19.41,19.41,0,0,0,6.83-5.71,35.8,35.8,0,0,0,4.65-7.48c-.8,1.23-1.61,2.44-2.5,3.6a37.1,37.1,0,0,1-2.74,3.38,21.15,21.15,0,0,1-6.65,5.3,10.68,10.68,0,0,1-2,.68c-.33.05-.68.08-1,.12l-.51.05-.52,0a10.22,10.22,0,0,1-2.07-.29l-1-.35c-.32-.14-.62-.32-.93-.48a7.88,7.88,0,0,1-2.83-3.06A12.65,12.65,0,0,1,121.68,341.76Z"></path></g><g style="opacity:0.1"><path d="M154.87,341.76a11.61,11.61,0,0,0,1,4.31,8.44,8.44,0,0,0,2.85,3.48A8.12,8.12,0,0,0,163,351l.57,0c.19,0,.38,0,.58,0,.38,0,.77-.06,1.15-.12a11.4,11.4,0,0,0,2.18-.73,19.33,19.33,0,0,0,6.83-5.71,35.8,35.8,0,0,0,4.65-7.48c-.79,1.23-1.6,2.44-2.49,3.6a40.82,40.82,0,0,1-2.74,3.38,21.19,21.19,0,0,1-6.66,5.3,10.58,10.58,0,0,1-2,.68l-1,.12-.52.05-.52,0a10.13,10.13,0,0,1-2.06-.29l-1-.35c-.32-.14-.61-.32-.92-.48a7.81,7.81,0,0,1-2.83-3.06A12.67,12.67,0,0,1,154.87,341.76Z"></path></g><g style="opacity:0.1"><path d="M188.07,341.76a11.61,11.61,0,0,0,1,4.31,8.34,8.34,0,0,0,2.84,3.48,8.15,8.15,0,0,0,4.33,1.42l.57,0c.2,0,.39,0,.58,0,.39,0,.78-.06,1.16-.12a11.88,11.88,0,0,0,2.18-.73,19.41,19.41,0,0,0,6.83-5.71,35.8,35.8,0,0,0,4.65-7.48c-.8,1.23-1.61,2.44-2.5,3.6a37.1,37.1,0,0,1-2.74,3.38,21.15,21.15,0,0,1-6.65,5.3,10.68,10.68,0,0,1-2,.68c-.33.05-.68.08-1,.12l-.51.05-.52,0a10.22,10.22,0,0,1-2.07-.29l-1-.35c-.32-.14-.62-.32-.93-.48a7.88,7.88,0,0,1-2.83-3.06A12.65,12.65,0,0,1,188.07,341.76Z"></path></g><g style="opacity:0.1"><path d="M221.26,341.76a11.61,11.61,0,0,0,1,4.31,8.37,8.37,0,0,0,2.85,3.48,8.12,8.12,0,0,0,4.33,1.42l.57,0c.19,0,.38,0,.58,0,.38,0,.77-.06,1.15-.12a11.4,11.4,0,0,0,2.18-.73,19.33,19.33,0,0,0,6.83-5.71,35.8,35.8,0,0,0,4.65-7.48c-.79,1.23-1.6,2.44-2.49,3.6a40.82,40.82,0,0,1-2.74,3.38,21.19,21.19,0,0,1-6.66,5.3,10.58,10.58,0,0,1-2,.68l-1,.12-.52.05-.52,0a10.13,10.13,0,0,1-2.06-.29l-1-.35c-.32-.14-.61-.32-.92-.48a7.81,7.81,0,0,1-2.83-3.06A12.67,12.67,0,0,1,221.26,341.76Z"></path></g><g style="opacity:0.1"><path d="M377.16,316.75a12.51,12.51,0,0,1-1.41,4.08,8,8,0,0,1-2.83,3.07c-.31.15-.61.34-.93.47l-1,.35A9.57,9.57,0,0,1,369,325l-.52,0a4.4,4.4,0,0,1-.51-.05c-.34,0-.69-.06-1-.11a10.71,10.71,0,0,1-2-.69,21,21,0,0,1-6.65-5.29,38.52,38.52,0,0,1-2.74-3.38c-.89-1.16-1.7-2.38-2.5-3.61a35.61,35.61,0,0,0,4.65,7.49,19.49,19.49,0,0,0,6.83,5.7,11.17,11.17,0,0,0,2.18.73c.38.06.77.08,1.16.12a5.44,5.44,0,0,0,.58.05L369,326a8.14,8.14,0,0,0,4.33-1.41,8.37,8.37,0,0,0,2.84-3.49A11.52,11.52,0,0,0,377.16,316.75Z"></path></g><g style="opacity:0.1"><path d="M344.25,316.75a12.51,12.51,0,0,1-1.41,4.08A8,8,0,0,1,340,323.9c-.31.15-.61.34-.93.47l-1,.35a9.56,9.56,0,0,1-2.06.29l-.53,0A4.4,4.4,0,0,1,335,325c-.34,0-.69-.06-1-.11a10.71,10.71,0,0,1-2-.69,21,21,0,0,1-6.65-5.29,38.52,38.52,0,0,1-2.74-3.38c-.89-1.16-1.7-2.38-2.5-3.61a35.61,35.61,0,0,0,4.65,7.49,19.49,19.49,0,0,0,6.83,5.7,11.17,11.17,0,0,0,2.18.73c.38.06.77.08,1.16.12a5.67,5.67,0,0,0,.58.05l.57-.05a8.14,8.14,0,0,0,4.33-1.41,8.37,8.37,0,0,0,2.84-3.49A11.52,11.52,0,0,0,344.25,316.75Z"></path></g><g style="opacity:0.1"><path d="M311.34,316.75a12.51,12.51,0,0,1-1.41,4.08,7.91,7.91,0,0,1-2.83,3.07c-.31.15-.61.34-.93.47l-1,.35a9.56,9.56,0,0,1-2.06.29l-.53,0a4.4,4.4,0,0,1-.51-.05c-.34,0-.68-.06-1-.11a10.71,10.71,0,0,1-2-.69,21,21,0,0,1-6.65-5.29,38.52,38.52,0,0,1-2.74-3.38c-.89-1.16-1.7-2.38-2.5-3.61a35.61,35.61,0,0,0,4.65,7.49,19.49,19.49,0,0,0,6.83,5.7,11.17,11.17,0,0,0,2.18.73c.38.06.77.08,1.16.12a5.67,5.67,0,0,0,.58.05l.57-.05a8.14,8.14,0,0,0,4.33-1.41,8.37,8.37,0,0,0,2.84-3.49A11.33,11.33,0,0,0,311.34,316.75Z"></path></g><g style="opacity:0.1"><path d="M278.43,316.75a12.51,12.51,0,0,1-1.41,4.08,7.91,7.91,0,0,1-2.83,3.07c-.31.15-.61.34-.92.47l-1,.35a9.56,9.56,0,0,1-2.06.29l-.53,0a4.4,4.4,0,0,1-.51-.05c-.34,0-.68-.06-1-.11a10.71,10.71,0,0,1-2-.69,21,21,0,0,1-6.65-5.29,38.52,38.52,0,0,1-2.74-3.38c-.89-1.16-1.7-2.38-2.49-3.61A35.61,35.61,0,0,0,259,319.4a19.32,19.32,0,0,0,6.83,5.7,10.86,10.86,0,0,0,2.17.73c.39.06.78.08,1.16.12a5.67,5.67,0,0,0,.58.05l.57-.05a8.11,8.11,0,0,0,4.33-1.41,8.37,8.37,0,0,0,2.84-3.49A11.33,11.33,0,0,0,278.43,316.75Z"></path></g><g style="opacity:0.1"><path d="M122.68,316.75a11.52,11.52,0,0,0,1,4.3,8.32,8.32,0,0,0,2.85,3.49,8.08,8.08,0,0,0,4.32,1.41l.57.05A5.44,5.44,0,0,0,132,326c.39,0,.78-.06,1.16-.12a11.17,11.17,0,0,0,2.18-.73,19.4,19.4,0,0,0,6.83-5.7,35.61,35.61,0,0,0,4.65-7.49c-.8,1.23-1.61,2.45-2.5,3.61a38.52,38.52,0,0,1-2.74,3.38,21,21,0,0,1-6.65,5.29,10.88,10.88,0,0,1-2,.69c-.34.05-.69.07-1,.11a4.4,4.4,0,0,1-.51.05l-.52,0a9.57,9.57,0,0,1-2.07-.29l-1-.35c-.32-.13-.61-.32-.93-.47a8,8,0,0,1-2.83-3.07A12.75,12.75,0,0,1,122.68,316.75Z"></path></g><g style="opacity:0.1"><path d="M155.59,316.75a11.52,11.52,0,0,0,1,4.3,8.37,8.37,0,0,0,2.84,3.49,8.14,8.14,0,0,0,4.33,1.41l.57.05a5.44,5.44,0,0,0,.58-.05c.39,0,.78-.06,1.16-.12a11.17,11.17,0,0,0,2.18-.73,19.49,19.49,0,0,0,6.83-5.7,35.61,35.61,0,0,0,4.65-7.49c-.8,1.23-1.61,2.45-2.5,3.61a38.52,38.52,0,0,1-2.74,3.38,21,21,0,0,1-6.65,5.29,10.71,10.71,0,0,1-2,.69c-.33.05-.68.07-1,.11a4.4,4.4,0,0,1-.51.05l-.52,0a9.57,9.57,0,0,1-2.07-.29l-1-.35c-.32-.13-.62-.32-.93-.47a8,8,0,0,1-2.83-3.07A12.51,12.51,0,0,1,155.59,316.75Z"></path></g><g style="opacity:0.1"><path d="M188.5,316.75a11.33,11.33,0,0,0,1,4.3,8.37,8.37,0,0,0,2.84,3.49,8.14,8.14,0,0,0,4.33,1.41l.57.05a5.67,5.67,0,0,0,.58-.05c.39,0,.78-.06,1.16-.12a11.17,11.17,0,0,0,2.18-.73,19.49,19.49,0,0,0,6.83-5.7,35.61,35.61,0,0,0,4.65-7.49c-.8,1.23-1.61,2.45-2.5,3.61a38.52,38.52,0,0,1-2.74,3.38,21,21,0,0,1-6.65,5.29,10.71,10.71,0,0,1-2,.69c-.34.05-.68.07-1,.11a4.4,4.4,0,0,1-.51.05l-.53,0a9.56,9.56,0,0,1-2.06-.29l-1-.35c-.32-.13-.62-.32-.93-.47a8,8,0,0,1-2.83-3.07A12.51,12.51,0,0,1,188.5,316.75Z"></path></g><g style="opacity:0.1"><path d="M221.41,316.75a11.33,11.33,0,0,0,1,4.3,8.37,8.37,0,0,0,2.84,3.49,8.14,8.14,0,0,0,4.33,1.41l.57.05a5.67,5.67,0,0,0,.58-.05c.38,0,.77-.06,1.16-.12a10.86,10.86,0,0,0,2.17-.73,19.44,19.44,0,0,0,6.84-5.7,35.56,35.56,0,0,0,4.64-7.49c-.79,1.23-1.6,2.45-2.49,3.61a38.52,38.52,0,0,1-2.74,3.38,21,21,0,0,1-6.65,5.29,10.71,10.71,0,0,1-2,.69c-.34.05-.68.07-1,.11a4.4,4.4,0,0,1-.51.05l-.53,0a9.56,9.56,0,0,1-2.06-.29l-1-.35c-.31-.13-.61-.32-.92-.47a7.91,7.91,0,0,1-2.83-3.07A12.51,12.51,0,0,1,221.41,316.75Z"></path></g><g style="opacity:0.1"><path d="M354.44,401.05l-.51-6.17c-.33-4.1-.65-8.21-.93-12.33q-.86-12.33-1.54-24.68L350,333.17l-1.37-24.7.46,12.36.58,12.36L351,357.9q.78,12.35,1.71,24.68.46,6.17,1,12.33l.63,6.15.72,6.14Z"></path><path d="M318.53,400.44c-.17-1-.3-2-.39-3.05l-.33-3.05q-.62-6.12-1-12.26c-.55-8.18-.94-16.37-1.26-24.56s-.66-16.39-.89-24.59l-.29-12.29c-.09-4.1-.2-8.2-.19-12.3-.15,8.2,0,16.4.15,24.6s.42,16.4.72,24.6.82,16.38,1.43,24.57c.3,4.09.65,8.17,1.1,12.25l.38,3.05c.12,1,.27,2,.45,3s.33,2,.53,3l.74,3-.68-3C318.81,402.47,318.68,401.45,318.53,400.44Z"></path><path d="M286,394.14c-.34-4.07-.61-8.16-.87-12.24-.51-8.17-.91-16.34-1.29-24.51S283,341,282.65,332.86s-.7-16.35-1.14-24.52l.36,12.27.45,12.27q.45,12.27,1,24.53c.43,8.17.89,16.35,1.46,24.51s1.16,16.34,2.44,24.43c-.25-2-.55-4.05-.71-6.09S286.13,396.18,286,394.14Z"></path><path d="M148.38,357.87q-.69,12.35-1.54,24.68c-.28,4.12-.6,8.23-.93,12.33l-.51,6.17-.6,6.15.72-6.14.63-6.15q.56-6.17,1-12.33.95-12.34,1.71-24.68l1.29-24.71.58-12.36.46-12.36-1.37,24.7Z"></path><path d="M185.48,320.64l-.29,12.29q-.34,12.3-.89,24.59c-.32,8.19-.71,16.38-1.26,24.56q-.4,6.14-1,12.26l-.33,3.05c-.09,1-.22,2-.38,3.05s-.29,2-.47,3l-.68,3,.74-3c.2-1,.35-2,.53-3s.33-2,.45-3l.38-3.05c.45-4.08.8-8.16,1.1-12.25.61-8.19,1.06-16.38,1.43-24.57s.54-16.4.72-24.6.3-16.4.15-24.6C185.68,312.44,185.57,316.54,185.48,320.64Z"></path><path d="M216,357.39c-.38,8.17-.78,16.34-1.29,24.51-.26,4.08-.53,8.17-.87,12.24-.15,2-.32,4.08-.53,6.12s-.46,4.06-.71,6.09c1.28-8.09,1.86-16.27,2.44-24.43s1-16.34,1.46-24.51.7-16.35,1-24.53l.44-12.27.36-12.27c-.44,8.17-.79,16.35-1.14,24.52S216.45,349.21,216,357.39Z"></path><path d="M250.78,394.14l-.32-6.12-.22-6.12q-.35-12.25-.37-24.52t-.06-24.52l.19-24.52-.34,12.26-.18,12.26q-.14,12.25-.11,24.53t.54,24.52a224.58,224.58,0,0,0,1.93,24.44c-.21-2-.51-4.05-.65-6.09S250.86,396.18,250.78,394.14Z"></path></g><path d="M256.74,231.39H243.26v-5.72h13.48Zm-12.48-1h11.48v-3.72H244.26Z" style="fill:#263238"></path><g style="opacity:0.5"><path d="M256.74,231.39H243.26v-5.72h13.48Zm-12.48-1h11.48v-3.72H244.26Z" style="fill:#fff"></path></g><path d="M276.53,258.27q.12-1.22.12-2.46a26.65,26.65,0,1,0-53.3,0q0,1.24.12,2.46Z" style="fill:#263238"></path><path d="M276.53,258.27q.12-1.22.12-2.46a26.65,26.65,0,1,0-53.3,0q0,1.24.12,2.46Z" style="fill:#fff;opacity:0.7000000000000001"></path><path d="M256.89,226.82H243.11a.79.79,0,0,1-.79-.79h0a.79.79,0,0,1,.79-.79h13.78a.79.79,0,0,1,.79.79h0A.79.79,0,0,1,256.89,226.82Z" style="fill:#263238"></path><path d="M256.89,226.82H243.11a.79.79,0,0,1-.79-.79h0a.79.79,0,0,1,.79-.79h13.78a.79.79,0,0,1,.79.79h0A.79.79,0,0,1,256.89,226.82Z" style="fill:#fff;opacity:0.7000000000000001"></path><path d="M234.47,256.36c0,.83,0,1.65.11,2.46h-8.92c-.07-.81-.11-1.63-.11-2.46,0-14.72,10.64-26.65,23.76-26.65a20.59,20.59,0,0,1,4.46.48C242.78,232.52,234.47,243.35,234.47,256.36Z" style="fill:#fff;opacity:0.30000000000000004"></path><path d="M275.58,260.14v8.26a5.7,5.7,0,0,1-5.7,5.7H230.12a5.47,5.47,0,0,1-2.29-.49,5.67,5.67,0,0,1-3.41-5.21v-8.26Z" style="fill:#263238"></path><path d="M275.58,260.14v8.26a5.7,5.7,0,0,1-5.7,5.7H230.12a5.47,5.47,0,0,1-2.29-.49,5.67,5.67,0,0,1-3.41-5.21v-8.26Z" style="fill:#fff;opacity:0.7000000000000001"></path><path d="M279,256.33v7.81a1.19,1.19,0,0,1-1.19,1.19H222.16a1.19,1.19,0,0,1-1.19-1.19v-7.81a1.19,1.19,0,0,1,1.19-1.19h55.68A1.19,1.19,0,0,1,279,256.33Z" style="fill:#263238"></path><path d="M279,256.33v7.81a1.19,1.19,0,0,1-1.19,1.19H222.16a1.19,1.19,0,0,1-1.19-1.19v-7.81a1.19,1.19,0,0,1,1.19-1.19h55.68A1.19,1.19,0,0,1,279,256.33Z" style="fill:#fff;opacity:0.6000000000000001"></path><rect x="221.99" y="256.1" width="16.31" height="2.72" rx="0.64" style="fill:#fff;opacity:0.30000000000000004"></rect><path d="M278.46,261.44l-2.88,1c-2.15.71-5.4,1.75-9.37,2.92-10.25,3-25.27,6.94-38.38,8.28a5.67,5.67,0,0,1-3.41-5.21v-3.07h-2.26a1.19,1.19,0,0,1-1.19-1.19v-2.7Z" style="opacity:0.2"></path><path d="M281.8,280.8h-2V261.85H220.2V280.8h-2V260.85a1,1,0,0,1,1-1h61.6a1,1,0,0,1,1,1Z" style="fill:#263238"></path><g style="opacity:0.5"><path d="M281.8,280.8h-2V261.85H220.2V280.8h-2V260.85a1,1,0,0,1,1-1h61.6a1,1,0,0,1,1,1Z" style="fill:#fff"></path></g><path d="M326.78,231.39H313.3v-5.72h13.48Zm-12.48-1h11.48v-3.72H314.3Z" style="fill:#263238"></path><g style="opacity:0.5"><path d="M326.78,231.39H313.3v-5.72h13.48Zm-12.48-1h11.48v-3.72H314.3Z" style="fill:#fff"></path></g><path d="M346.58,258.27c.07-.81.11-1.63.11-2.46a26.65,26.65,0,1,0-53.29,0c0,.83,0,1.65.11,2.46Z" style="fill:#263238"></path><path d="M346.58,258.27c.07-.81.11-1.63.11-2.46a26.65,26.65,0,1,0-53.29,0c0,.83,0,1.65.11,2.46Z" style="fill:#fff;opacity:0.7000000000000001"></path><path d="M326.94,226.82H313.15a.79.79,0,0,1-.79-.79h0a.79.79,0,0,1,.79-.79h13.79a.8.8,0,0,1,.79.79h0A.79.79,0,0,1,326.94,226.82Z" style="fill:#263238"></path><path d="M326.94,226.82H313.15a.79.79,0,0,1-.79-.79h0a.79.79,0,0,1,.79-.79h13.79a.8.8,0,0,1,.79.79h0A.79.79,0,0,1,326.94,226.82Z" style="fill:#fff;opacity:0.7000000000000001"></path><path d="M304.51,256.36c0,.83,0,1.65.11,2.46H295.7c-.07-.81-.11-1.63-.11-2.46,0-14.72,10.64-26.65,23.76-26.65a20.59,20.59,0,0,1,4.46.48C312.82,232.52,304.51,243.35,304.51,256.36Z" style="fill:#fff;opacity:0.30000000000000004"></path><path d="M345.62,260.14v8.26a5.7,5.7,0,0,1-5.7,5.7H300.16a5.47,5.47,0,0,1-2.29-.49,5.67,5.67,0,0,1-3.41-5.21v-8.26Z" style="fill:#263238"></path><path d="M345.62,260.14v8.26a5.7,5.7,0,0,1-5.7,5.7H300.16a5.47,5.47,0,0,1-2.29-.49,5.67,5.67,0,0,1-3.41-5.21v-8.26Z" style="fill:#fff;opacity:0.7000000000000001"></path><path d="M349.07,256.33v7.81a1.19,1.19,0,0,1-1.19,1.19H292.2a1.19,1.19,0,0,1-1.19-1.19v-7.81a1.19,1.19,0,0,1,1.19-1.19h55.68A1.19,1.19,0,0,1,349.07,256.33Z" style="fill:#263238"></path><path d="M349.07,256.33v7.81a1.19,1.19,0,0,1-1.19,1.19H292.2a1.19,1.19,0,0,1-1.19-1.19v-7.81a1.19,1.19,0,0,1,1.19-1.19h55.68A1.19,1.19,0,0,1,349.07,256.33Z" style="fill:#fff;opacity:0.6000000000000001"></path><rect x="292.03" y="256.1" width="16.31" height="2.72" rx="0.64" style="fill:#fff;opacity:0.30000000000000004"></rect><path d="M348.5,261.44l-2.88,1c-2.15.71-5.4,1.75-9.37,2.92-10.25,3-25.27,6.94-38.38,8.28a5.67,5.67,0,0,1-3.41-5.21v-3.07H292.2a1.19,1.19,0,0,1-1.19-1.19v-2.7Z" style="opacity:0.2"></path><path d="M351.84,280.8h-2V261.85H290.25V280.8h-2V260.85a1,1,0,0,1,1-1h61.59a1,1,0,0,1,1,1Z" style="fill:#263238"></path><g style="opacity:0.5"><path d="M351.84,280.8h-2V261.85H290.25V280.8h-2V260.85a1,1,0,0,1,1-1h61.59a1,1,0,0,1,1,1Z" style="fill:#fff"></path></g><path d="M186.7,231.39H173.22v-5.72H186.7Zm-12.48-1H185.7v-3.72H174.22Z" style="fill:#263238"></path><g style="opacity:0.5"><path d="M186.7,231.39H173.22v-5.72H186.7Zm-12.48-1H185.7v-3.72H174.22Z" style="fill:#fff"></path></g><path d="M206.49,258.27c.07-.81.11-1.63.11-2.46a26.65,26.65,0,1,0-53.29,0c0,.83,0,1.65.11,2.46Z" style="fill:#263238"></path><path d="M206.49,258.27c.07-.81.11-1.63.11-2.46a26.65,26.65,0,1,0-53.29,0c0,.83,0,1.65.11,2.46Z" style="fill:#fff;opacity:0.7000000000000001"></path><path d="M186.85,226.82H173.06a.79.79,0,0,1-.79-.79h0a.8.8,0,0,1,.79-.79h13.79a.79.79,0,0,1,.79.79h0A.79.79,0,0,1,186.85,226.82Z" style="fill:#263238"></path><path d="M186.85,226.82H173.06a.79.79,0,0,1-.79-.79h0a.8.8,0,0,1,.79-.79h13.79a.79.79,0,0,1,.79.79h0A.79.79,0,0,1,186.85,226.82Z" style="fill:#fff;opacity:0.7000000000000001"></path><path d="M164.42,256.36c0,.83,0,1.65.11,2.46h-8.92c-.07-.81-.11-1.63-.11-2.46,0-14.72,10.64-26.65,23.76-26.65a20.59,20.59,0,0,1,4.46.48C172.73,232.52,164.42,243.35,164.42,256.36Z" style="fill:#fff;opacity:0.30000000000000004"></path><path d="M205.54,260.14v8.26a5.7,5.7,0,0,1-5.7,5.7H160.08a5.47,5.47,0,0,1-2.29-.49,5.67,5.67,0,0,1-3.41-5.21v-8.26Z" style="fill:#263238"></path><path d="M205.54,260.14v8.26a5.7,5.7,0,0,1-5.7,5.7H160.08a5.47,5.47,0,0,1-2.29-.49,5.67,5.67,0,0,1-3.41-5.21v-8.26Z" style="fill:#fff;opacity:0.7000000000000001"></path><path d="M209,256.33v7.81a1.19,1.19,0,0,1-1.19,1.19H152.12a1.19,1.19,0,0,1-1.19-1.19v-7.81a1.19,1.19,0,0,1,1.19-1.19H207.8A1.19,1.19,0,0,1,209,256.33Z" style="fill:#263238"></path><path d="M209,256.33v7.81a1.19,1.19,0,0,1-1.19,1.19H152.12a1.19,1.19,0,0,1-1.19-1.19v-7.81a1.19,1.19,0,0,1,1.19-1.19H207.8A1.19,1.19,0,0,1,209,256.33Z" style="fill:#fff;opacity:0.6000000000000001"></path><rect x="151.94" y="256.1" width="16.31" height="2.72" rx="0.64" style="fill:#fff;opacity:0.30000000000000004"></rect><path d="M208.42,261.44l-2.88,1c-2.15.71-5.4,1.75-9.37,2.92-10.25,3-25.27,6.94-38.38,8.28a5.67,5.67,0,0,1-3.41-5.21v-3.07h-2.26a1.19,1.19,0,0,1-1.19-1.19v-2.7Z" style="opacity:0.2"></path><path d="M211.75,280.8h-2V261.85H150.16V280.8h-2V260.85a1,1,0,0,1,1-1h61.59a1,1,0,0,1,1,1Z" style="fill:#263238"></path><g style="opacity:0.5"><path d="M211.75,280.8h-2V261.85H150.16V280.8h-2V260.85a1,1,0,0,1,1-1h61.59a1,1,0,0,1,1,1Z" style="fill:#fff"></path></g><rect x="296.43" y="234.6" width="3.28" height="3.28" transform="translate(596.13 472.48) rotate(180)" style="fill:#006994"></rect><path d="M291.32,261.68v19.18h13.49V261.68a.44.44,0,0,0,0-.16,6.2,6.2,0,0,0-2.28-4.69,6.26,6.26,0,0,1-2.3-4.84V236.78h-4.29V252a6.23,6.23,0,0,1-2.3,4.84,6.24,6.24,0,0,0-2.29,4.69A.86.86,0,0,0,291.32,261.68Z" style="fill:#263238"></path><path d="M296.05,237.2h4a.4.4,0,0,0,.4-.4h0a.4.4,0,0,0-.4-.41h-4a.4.4,0,0,0-.4.41h0A.4.4,0,0,0,296.05,237.2Z" style="fill:#263238"></path><path d="M296.05,237.2h4a.4.4,0,0,0,.4-.4h0a.4.4,0,0,0-.4-.41h-4a.4.4,0,0,0-.4.41h0A.4.4,0,0,0,296.05,237.2Z" style="fill:#fff;opacity:0.1"></path><path d="M291.32,261.68v2.95a9.83,9.83,0,0,0,13.49,0v-2.95a.44.44,0,0,0,0-.16,11.39,11.39,0,0,1-13.46,0A.86.86,0,0,0,291.32,261.68Z" style="fill:#fff;opacity:0.1"></path><path d="M298.06,269.19a4.22,4.22,0,1,0-4.21-4.21A4.22,4.22,0,0,0,298.06,269.19Z" style="fill:#263238"></path><path d="M298.06,269.19a4.22,4.22,0,1,0-4.21-4.21A4.22,4.22,0,0,0,298.06,269.19Z" style="fill:#fff;opacity:0.2"></path><circle cx="298.06" cy="264.98" r="2.97" style="fill:#fff;opacity:0.4"></circle><path d="M308,270.63c-2.58-.29-4.6-2.84-4.6-5.93a7,7,0,0,1,.33-2.11h9.53a7,7,0,0,1,.33,2.11c0,3.09-2,5.64-4.6,5.93v9.26a4.75,4.75,0,0,1,2.9,1h-6.79a4.75,4.75,0,0,1,2.9-1Z" style="fill:#006994"></path><path d="M308,270.63c-2.58-.29-4.6-2.84-4.6-5.93a7,7,0,0,1,.33-2.11h9.53a7,7,0,0,1,.33,2.11c0,3.09-2,5.64-4.6,5.93v9.26a4.75,4.75,0,0,1,2.9,1h-6.79a4.75,4.75,0,0,1,2.9-1Z" style="fill:#fff;opacity:0.7000000000000001"></path><path d="M312.88,266.22a4.43,4.43,0,0,1-8.81,0Z" style="fill:#006994"></path><path d="M318.45,270.63c-2.58-.29-4.6-2.84-4.6-5.93a7,7,0,0,1,.34-2.11h9.52a7,7,0,0,1,.33,2.11c0,3.09-2,5.64-4.6,5.93v9.26a4.81,4.81,0,0,1,2.91,1h-6.8a4.78,4.78,0,0,1,2.9-1Z" style="fill:#006994"></path><path d="M318.45,270.63c-2.58-.29-4.6-2.84-4.6-5.93a7,7,0,0,1,.34-2.11h9.52a7,7,0,0,1,.33,2.11c0,3.09-2,5.64-4.6,5.93v9.26a4.81,4.81,0,0,1,2.91,1h-6.8a4.78,4.78,0,0,1,2.9-1Z" style="fill:#fff;opacity:0.7000000000000001"></path><path d="M323.36,266.22a4.44,4.44,0,0,1-8.82,0Z" style="fill:#006994"></path><path d="M328.93,270.63c-2.59-.29-4.6-2.84-4.6-5.93a7,7,0,0,1,.33-2.11h9.52a7,7,0,0,1,.33,2.11c0,3.09-2,5.64-4.6,5.93v9.26a4.79,4.79,0,0,1,2.91,1H326a4.79,4.79,0,0,1,2.91-1Z" style="fill:#006994"></path><path d="M328.93,270.63c-2.59-.29-4.6-2.84-4.6-5.93a7,7,0,0,1,.33-2.11h9.52a7,7,0,0,1,.33,2.11c0,3.09-2,5.64-4.6,5.93v9.26a4.79,4.79,0,0,1,2.91,1H326a4.79,4.79,0,0,1,2.91-1Z" style="fill:#fff;opacity:0.7000000000000001"></path><path d="M333.83,266.22a4.44,4.44,0,0,1-8.82,0Z" style="fill:#006994"></path><path d="M339.4,270.63c-2.58-.29-4.6-2.84-4.6-5.93a7,7,0,0,1,.33-2.11h9.52a6.66,6.66,0,0,1,.34,2.11c0,3.09-2,5.64-4.6,5.93v9.26a4.78,4.78,0,0,1,2.9,1h-6.8a4.81,4.81,0,0,1,2.91-1Z" style="fill:#006994"></path><path d="M339.4,270.63c-2.58-.29-4.6-2.84-4.6-5.93a7,7,0,0,1,.33-2.11h9.52a6.66,6.66,0,0,1,.34,2.11c0,3.09-2,5.64-4.6,5.93v9.26a4.78,4.78,0,0,1,2.9,1h-6.8a4.81,4.81,0,0,1,2.91-1Z" style="fill:#fff;opacity:0.7000000000000001"></path><path d="M344.3,266.22a4.43,4.43,0,0,1-8.81,0Z" style="fill:#006994"></path><path d="M349.87,270.63c-2.58-.29-4.6-2.84-4.6-5.93a7,7,0,0,1,.33-2.11h9.53a7,7,0,0,1,.33,2.11c0,3.09-2,5.64-4.6,5.93v9.26a4.75,4.75,0,0,1,2.9,1H347a4.75,4.75,0,0,1,2.9-1Z" style="fill:#006994"></path><path d="M349.87,270.63c-2.58-.29-4.6-2.84-4.6-5.93a7,7,0,0,1,.33-2.11h9.53a7,7,0,0,1,.33,2.11c0,3.09-2,5.64-4.6,5.93v9.26a4.75,4.75,0,0,1,2.9,1H347a4.75,4.75,0,0,1,2.9-1Z" style="fill:#fff;opacity:0.7000000000000001"></path><path d="M354.77,266.22a4.43,4.43,0,0,1-8.81,0Z" style="fill:#006994"></path><path d="M360.34,270.63c-2.58-.29-4.6-2.84-4.6-5.93a6.66,6.66,0,0,1,.34-2.11h9.52a7,7,0,0,1,.33,2.11c0,3.09-2,5.64-4.6,5.93v9.26a4.81,4.81,0,0,1,2.91,1h-6.8a4.78,4.78,0,0,1,2.9-1Z" style="fill:#006994"></path><path d="M360.34,270.63c-2.58-.29-4.6-2.84-4.6-5.93a6.66,6.66,0,0,1,.34-2.11h9.52a7,7,0,0,1,.33,2.11c0,3.09-2,5.64-4.6,5.93v9.26a4.81,4.81,0,0,1,2.91,1h-6.8a4.78,4.78,0,0,1,2.9-1Z" style="fill:#fff;opacity:0.7000000000000001"></path><path d="M365.24,266.22a4.43,4.43,0,0,1-8.81,0Z" style="fill:#006994"></path><path d="M370.82,270.63c-2.59-.29-4.6-2.84-4.6-5.93a7,7,0,0,1,.33-2.11h9.52a7,7,0,0,1,.33,2.11c0,3.09-2,5.64-4.6,5.93v9.26a4.79,4.79,0,0,1,2.91,1h-6.8a4.79,4.79,0,0,1,2.91-1Z" style="fill:#006994"></path><path d="M370.82,270.63c-2.59-.29-4.6-2.84-4.6-5.93a7,7,0,0,1,.33-2.11h9.52a7,7,0,0,1,.33,2.11c0,3.09-2,5.64-4.6,5.93v9.26a4.79,4.79,0,0,1,2.91,1h-6.8a4.79,4.79,0,0,1,2.91-1Z" style="fill:#fff;opacity:0.7000000000000001"></path><path d="M375.72,266.22a4.44,4.44,0,0,1-8.82,0Z" style="fill:#006994"></path><path d="M126,278.1a.46.46,0,0,1-.33-.13l-4.6-4.54a.46.46,0,1,1,.64-.66l4.61,4.55a.46.46,0,0,1,0,.65A.45.45,0,0,1,126,278.1Z" style="fill:#263238"></path><path d="M130,271.43h0a.15.15,0,0,1-.14-.16c0-.06.11-1.46,1-1.86a.16.16,0,0,1,.2.08.15.15,0,0,1-.07.2c-.73.32-.82,1.59-.82,1.6A.15.15,0,0,1,130,271.43Z" style="fill:#263238"></path><path d="M135,279H125l1.19-6.23a.79.79,0,0,1,.78-.64H133a.79.79,0,0,1,.78.64Z" style="fill:#263238"></path><path d="M135,279H125l1.19-6.23a.79.79,0,0,1,.78-.64H133a.79.79,0,0,1,.78.64Z" style="fill:#fff;opacity:0.2"></path><path d="M135,279H124.94l.76-4a.66.66,0,0,0,.46,0c.23,0,.45-.08.56-.31a2.16,2.16,0,0,1,.41-.62.59.59,0,0,1,.38-.21.49.49,0,0,1,.3.16.9.9,0,0,1,.22.36c.09.23.09.48.19.7s.76.51.94.08a.9.9,0,0,0,.06-.22l0-.32a.66.66,0,0,1,.73-.47.63.63,0,0,1,.58.51,4.58,4.58,0,0,0,0,.53.44.44,0,0,0,.76.2.94.94,0,0,0,.23-.85c0-.07,0-.14,0-.21a.57.57,0,0,1,.19-.41,1,1,0,0,1,.39-.23.77.77,0,0,1,.83.08,1,1,0,0,1,.18.53,1.12,1.12,0,0,0,1.14.86Z" style="fill:#fff;opacity:0.6000000000000001"></path><path d="M122.11,276.37c.42,2.49,3.65,4.43,7.59,4.43s7.17-1.94,7.58-4.43Z" style="fill:#006994"></path><path d="M122.11,276.37c.42,2.49,3.65,4.43,7.59,4.43s7.17-1.94,7.58-4.43Z" style="fill:#fff;opacity:0.7000000000000001"></path><rect x="125.26" y="279.9" width="8.87" height="0.91" style="fill:#006994"></rect><rect x="125.26" y="279.9" width="8.87" height="0.91" style="fill:#fff;opacity:0.6000000000000001"></rect><circle cx="129.97" cy="271.71" r="0.67" style="fill:#006994"></circle><path d="M140.68,278.1a.53.53,0,0,1-.24-.06l-6.67-4a.45.45,0,0,1-.16-.62.46.46,0,0,1,.63-.17l6.67,3.95a.46.46,0,0,1,.16.63A.44.44,0,0,1,140.68,278.1Z" style="fill:#263238"></path><path d="M144.71,271.43a.16.16,0,0,1-.16-.14s-.09-1.28-.82-1.6a.15.15,0,0,1-.07-.2.16.16,0,0,1,.2-.08c.89.4,1,1.8,1,1.86a.15.15,0,0,1-.14.16Z" style="fill:#263238"></path><path d="M139.68,279h10.06l-1.2-6.23a.79.79,0,0,0-.78-.64h-6.11a.79.79,0,0,0-.78.64Z" style="fill:#263238"></path><path d="M139.68,279h10.06l-1.2-6.23a.79.79,0,0,0-.78-.64h-6.11a.79.79,0,0,0-.78.64Z" style="fill:#fff;opacity:0.2"></path><path d="M139.68,279h10.06l-.76-4a.66.66,0,0,1-.46,0c-.23,0-.45-.08-.55-.31a2.42,2.42,0,0,0-.42-.62.54.54,0,0,0-.38-.21.49.49,0,0,0-.3.16,1,1,0,0,0-.22.36c-.09.23-.09.48-.19.7s-.76.51-.94.08a.9.9,0,0,1-.06-.22c0-.11,0-.21,0-.32a.65.65,0,0,0-.73-.47.63.63,0,0,0-.58.51,4.58,4.58,0,0,1,0,.53.44.44,0,0,1-.76.2.94.94,0,0,1-.23-.85c0-.07,0-.14,0-.21a.53.53,0,0,0-.19-.41,1,1,0,0,0-.39-.23.77.77,0,0,0-.83.08,1,1,0,0,0-.18.53,1.12,1.12,0,0,1-1.14.86Z" style="fill:#fff;opacity:0.6000000000000001"></path><path d="M136.84,276.37c.42,2.49,3.66,4.43,7.59,4.43s7.17-1.94,7.59-4.43Z" style="fill:#006994"></path><path d="M136.84,276.37c.42,2.49,3.66,4.43,7.59,4.43s7.17-1.94,7.59-4.43Z" style="fill:#fff;opacity:0.7000000000000001"></path><rect x="139.99" y="279.9" width="8.87" height="0.91" style="fill:#006994"></rect><rect x="139.99" y="279.9" width="8.87" height="0.91" style="fill:#fff;opacity:0.6000000000000001"></rect><circle cx="144.71" cy="271.71" r="0.67" style="fill:#006994"></circle><path d="M155.41,278.1a.45.45,0,0,1-.32-.13l-4.61-4.54a.46.46,0,0,1,.65-.66l4.6,4.55a.45.45,0,0,1,0,.65A.46.46,0,0,1,155.41,278.1Z" style="fill:#263238"></path><path d="M159.44,271.43a.15.15,0,0,1-.15-.11,9.53,9.53,0,0,1-.32-1.77.15.15,0,0,1,.15-.15.16.16,0,0,1,.16.15,9.38,9.38,0,0,0,.31,1.69.16.16,0,0,1-.11.19Z" style="fill:#263238"></path><path d="M164.47,279H154.41l1.19-6.23a.8.8,0,0,1,.79-.64h6.11a.79.79,0,0,1,.78.64Z" style="fill:#263238"></path><path d="M164.47,279H154.41l1.19-6.23a.8.8,0,0,1,.79-.64h6.11a.79.79,0,0,1,.78.64Z" style="fill:#fff;opacity:0.2"></path><path d="M164.47,279H154.41l.76-4a.63.63,0,0,0,.45,0c.23,0,.46-.08.56-.31a2.19,2.19,0,0,1,.42-.62A.54.54,0,0,1,157,274a.5.5,0,0,1,.29.16,1.05,1.05,0,0,1,.23.36c.09.23.09.48.18.7s.77.51.95.08a.87.87,0,0,0,.05-.22l0-.32a.65.65,0,0,1,.73-.47.63.63,0,0,1,.58.51,4.58,4.58,0,0,0,0,.53.43.43,0,0,0,.75.2,1,1,0,0,0,.24-.85.78.78,0,0,1,0-.21.52.52,0,0,1,.18-.41,1.07,1.07,0,0,1,.4-.23.75.75,0,0,1,.82.08,1,1,0,0,1,.19.53,1.12,1.12,0,0,0,1.14.86Z" style="fill:#fff;opacity:0.6000000000000001"></path><path d="M151.58,276.37c.41,2.49,3.65,4.43,7.58,4.43s7.17-1.94,7.59-4.43Z" style="fill:#006994"></path><path d="M151.58,276.37c.41,2.49,3.65,4.43,7.58,4.43s7.17-1.94,7.59-4.43Z" style="fill:#fff;opacity:0.7000000000000001"></path><rect x="154.73" y="279.9" width="8.87" height="0.91" style="fill:#006994"></rect><rect x="154.73" y="279.9" width="8.87" height="0.91" style="fill:#fff;opacity:0.6000000000000001"></rect><circle cx="159.44" cy="271.71" r="0.67" style="fill:#006994"></circle><path d="M171,278.1a.45.45,0,0,1-.32-.13l-4.6-4.54a.45.45,0,0,1,0-.65.46.46,0,0,1,.65,0l4.61,4.55a.46.46,0,0,1-.33.78Z" style="fill:#263238"></path><path d="M175,271.43h0a.15.15,0,0,1-.14-.16c0-.06.11-1.46,1-1.86a.16.16,0,0,1,.2.08.14.14,0,0,1-.08.2c-.72.32-.81,1.59-.81,1.6A.16.16,0,0,1,175,271.43Z" style="fill:#263238"></path><path d="M180,279H170l1.2-6.23a.79.79,0,0,1,.78-.64h6.11a.79.79,0,0,1,.78.64Z" style="fill:#263238"></path><path d="M180,279H170l1.2-6.23a.79.79,0,0,1,.78-.64h6.11a.79.79,0,0,1,.78.64Z" style="fill:#fff;opacity:0.2"></path><path d="M180,279H170l.76-4a.63.63,0,0,0,.45,0c.24,0,.46-.08.56-.31a2.42,2.42,0,0,1,.42-.62.54.54,0,0,1,.38-.21.49.49,0,0,1,.3.16,1,1,0,0,1,.22.36c.09.23.09.48.19.7s.76.51.94.08a1.8,1.8,0,0,0,.06-.22l0-.32a.65.65,0,0,1,.73-.47.63.63,0,0,1,.58.51,4.58,4.58,0,0,0,0,.53.44.44,0,0,0,.76.2.94.94,0,0,0,.23-.85,1.55,1.55,0,0,1,0-.21.56.56,0,0,1,.18-.41,1.16,1.16,0,0,1,.4-.23.77.77,0,0,1,.83.08,1,1,0,0,1,.18.53,1.12,1.12,0,0,0,1.14.86Z" style="fill:#fff;opacity:0.6000000000000001"></path><path d="M167.14,276.37c.42,2.49,3.65,4.43,7.58,4.43s7.17-1.94,7.59-4.43Z" style="fill:#006994"></path><path d="M167.14,276.37c.42,2.49,3.65,4.43,7.58,4.43s7.17-1.94,7.59-4.43Z" style="fill:#fff;opacity:0.7000000000000001"></path><rect x="170.29" y="279.9" width="8.87" height="0.91" style="fill:#006994"></rect><rect x="170.29" y="279.9" width="8.87" height="0.91" style="fill:#fff;opacity:0.6000000000000001"></rect><path d="M175.67,271.71a.66.66,0,0,1-.67.66.65.65,0,0,1-.66-.66A.66.66,0,0,1,175,271,.67.67,0,0,1,175.67,271.71Z" style="fill:#006994"></path><path d="M186.71,278.1a.53.53,0,0,1-.24-.06l-6.67-4a.45.45,0,0,1-.16-.62.46.46,0,0,1,.63-.17l6.67,3.95a.46.46,0,0,1-.23.85Z" style="fill:#263238"></path><path d="M190.73,271.43a.15.15,0,0,1-.15-.14s-.09-1.28-.82-1.6a.15.15,0,0,1-.07-.2.16.16,0,0,1,.2-.08c.89.4,1,1.8,1,1.86a.15.15,0,0,1-.14.16Z" style="fill:#263238"></path><path d="M185.71,279h10l-1.19-6.23a.79.79,0,0,0-.78-.64h-6.11a.79.79,0,0,0-.78.64Z" style="fill:#263238"></path><path d="M185.71,279h10l-1.19-6.23a.79.79,0,0,0-.78-.64h-6.11a.79.79,0,0,0-.78.64Z" style="fill:#fff;opacity:0.2"></path><path d="M185.71,279h10.06l-.76-4a.66.66,0,0,1-.46,0c-.23,0-.45-.08-.56-.31a2.16,2.16,0,0,0-.41-.62.59.59,0,0,0-.38-.21.49.49,0,0,0-.3.16,1.05,1.05,0,0,0-.23.36c-.08.23-.08.48-.18.7s-.76.51-.94.08a.9.9,0,0,1-.06-.22c0-.11,0-.21-.05-.32a.64.64,0,0,0-.72-.47.63.63,0,0,0-.58.51,4.58,4.58,0,0,1,0,.53.44.44,0,0,1-.76.2.94.94,0,0,1-.23-.85c0-.07,0-.14,0-.21A.57.57,0,0,0,189,274a1,1,0,0,0-.39-.23.77.77,0,0,0-.83.08,1,1,0,0,0-.18.53,1.12,1.12,0,0,1-1.14.86Z" style="fill:#fff;opacity:0.6000000000000001"></path><path d="M182.87,276.37c.42,2.49,3.66,4.43,7.59,4.43s7.17-1.94,7.59-4.43Z" style="fill:#006994"></path><path d="M182.87,276.37c.42,2.49,3.66,4.43,7.59,4.43s7.17-1.94,7.59-4.43Z" style="fill:#fff;opacity:0.7000000000000001"></path><rect x="186.02" y="279.9" width="8.87" height="0.91" style="fill:#006994"></rect><rect x="186.02" y="279.9" width="8.87" height="0.91" style="fill:#fff;opacity:0.6000000000000001"></rect><circle cx="190.73" cy="271.71" r="0.67" style="fill:#006994"></circle><path d="M208.17,278.1a.45.45,0,0,1-.32-.13.46.46,0,0,1,0-.65l4.61-4.55a.46.46,0,0,1,.65,0,.47.47,0,0,1,0,.65L208.5,278A.46.46,0,0,1,208.17,278.1Z" style="fill:#263238"></path><path d="M204.14,271.43h0a.15.15,0,0,1-.1-.19,9.38,9.38,0,0,0,.31-1.69.15.15,0,0,1,.15-.15.15.15,0,0,1,.15.15,9.53,9.53,0,0,1-.32,1.77A.15.15,0,0,1,204.14,271.43Z" style="fill:#263238"></path><path d="M199.11,279h10.06L208,272.81a.79.79,0,0,0-.78-.64h-6.11a.79.79,0,0,0-.78.64Z" style="fill:#263238"></path><path d="M199.11,279h10.06L208,272.81a.79.79,0,0,0-.78-.64h-6.11a.79.79,0,0,0-.78.64Z" style="fill:#fff;opacity:0.2"></path><path d="M199.12,279h10.06l-.76-4a.66.66,0,0,1-.46,0c-.23,0-.45-.08-.56-.31a2.16,2.16,0,0,0-.41-.62.59.59,0,0,0-.39-.21.5.5,0,0,0-.29.16,1.05,1.05,0,0,0-.23.36c-.08.23-.08.48-.18.7s-.76.51-1,.08a.87.87,0,0,1,0-.22l-.05-.32a.64.64,0,0,0-.72-.47.63.63,0,0,0-.58.51c0,.18,0,.36,0,.53a.44.44,0,0,1-.76.2.94.94,0,0,1-.23-.85c0-.07,0-.14,0-.21a.57.57,0,0,0-.19-.41,1,1,0,0,0-.4-.23.76.76,0,0,0-.82.08,1,1,0,0,0-.18.53,1.12,1.12,0,0,1-1.14.86Z" style="fill:#fff;opacity:0.6000000000000001"></path><path d="M212,276.37c-.42,2.49-3.65,4.43-7.59,4.43s-7.17-1.94-7.58-4.43Z" style="fill:#006994"></path><path d="M212,276.37c-.42,2.49-3.65,4.43-7.59,4.43s-7.17-1.94-7.58-4.43Z" style="fill:#fff;opacity:0.7000000000000001"></path><rect x="199.99" y="279.9" width="8.87" height="0.91" transform="translate(408.85 560.7) rotate(180)" style="fill:#006994"></rect><rect x="199.99" y="279.9" width="8.87" height="0.91" transform="translate(408.85 560.7) rotate(180)" style="fill:#fff;opacity:0.6000000000000001"></rect><circle cx="204.14" cy="271.71" r="0.67" style="fill:#006994"></circle></g><g id="freepik--character-2--inject-2"><path d="M321.4,215.75h.72l-1-.55c.11-.36.2-.71.32-1.06a58.09,58.09,0,0,1,2.88-6.94c1.13-2.31,2.35-4.64,3.68-6.88s2.71-4.47,4.14-6.6a.27.27,0,0,1,.07-.08.57.57,0,0,1,.11-.16.86.86,0,0,1,.07-.1,2.4,2.4,0,0,1,.18-.26l.11-.18a25.5,25.5,0,0,0,3-5.84,13.7,13.7,0,0,0,.54-2.07c.73-4.28-3.27-7.32-3.27-7.32-3.12.25-5.41,3-7,5.08l0,0c-1.18,1.45-2.21,2.9-3.23,4.36a87.53,87.53,0,0,0-4.59,7.53c-1.37,2.58-2.67,5.19-3.82,7.92a61.18,61.18,0,0,0-3,8.6c-.19.76-.37,1.56-.52,2.4-.07.42-.14.85-.19,1.29l-.08.69,0,.17,0,.32a6,6,0,0,0,.07,1.43,6.79,6.79,0,0,0,1.7,3.45,9.14,9.14,0,0,0,1.57,1.4,16,16,0,0,0,2.54,1.45,37.24,37.24,0,0,0,5.15,1.91Z" style="fill:#006994"></path><path d="M336.17,185a13.7,13.7,0,0,1-.54,2.07,25.5,25.5,0,0,1-3,5.84l-.11.18a2.4,2.4,0,0,0-.18.26.86.86,0,0,0-.07.1.57.57,0,0,0-.11.16.27.27,0,0,0-.07.08c-.66,1-1.32,2-2,3-.75,1.18-1.48,2.38-2.18,3.6-.88,1.49-1.72,3-2.5,4.55-.41.77-.8,1.55-1.18,2.33a58.09,58.09,0,0,0-2.88,6.94c-.12.35-.21.7-.32,1.06l1,.55h-.72v10a37.24,37.24,0,0,1-5.15-1.91,16,16,0,0,1-2.54-1.45,9.14,9.14,0,0,1-1.57-1.4,6.79,6.79,0,0,1-1.7-3.45,6,6,0,0,1-.07-1.43l0-.32,0-.17.08-.69c.05-.44.12-.87.19-1.29.15-.84.33-1.64.53-2.4a59.92,59.92,0,0,1,3-8.6c1.15-2.73,2.45-5.34,3.82-7.92a87.53,87.53,0,0,1,4.59-7.53c1-1.46,2-2.91,3.23-4.36l0,0c1.62-2.08,3.91-4.83,7-5.08C332.9,177.71,336.9,180.75,336.17,185Z" style="fill:#fff;opacity:0.7000000000000001"></path><path d="M330.17,196.72c-.75,1.18-1.48,2.38-2.18,3.6-.88,1.49-1.72,3-2.5,4.55-1.88-5.12,3.71-13.16,3.71-13.16S329.71,193.92,330.17,196.72Z" style="opacity:0.2"></path><polygon points="322.83 407.09 315.37 407.93 316.3 385.86 325.21 387.12 322.83 407.09" style="fill:#ebb376"></polygon><path d="M314.15,406h9.22a.66.66,0,0,1,.65.51l1.57,6.73a1.11,1.11,0,0,1-1.1,1.35c-3-.05-5.14-.23-8.88-.23-2.3,0-9.23.24-12.41.24s-3.63-3.14-2.33-3.42c5.82-1.28,10.2-3,12.05-4.72A1.82,1.82,0,0,1,314.15,406Z" style="fill:#263238"></path><path d="M311.66,407.35a2.32,2.32,0,0,1-1.47-.39,1.08,1.08,0,0,1-.38-.94.6.6,0,0,1,.3-.51c.84-.43,3.3,1.07,3.57,1.24a.19.19,0,0,1,.09.18.19.19,0,0,1-.14.15A9.28,9.28,0,0,1,311.66,407.35Zm-1.15-1.57a.52.52,0,0,0-.23.05s-.1.07-.11.21a.76.76,0,0,0,.25.65,3.69,3.69,0,0,0,2.69.14A7.2,7.2,0,0,0,310.51,405.78Z" style="fill:#006994"></path><path d="M313.59,407.08a.11.11,0,0,1-.08,0c-.79-.42-2.32-2.08-2.17-2.93a.59.59,0,0,1,.56-.47,1,1,0,0,1,.77.23c.89.72,1.09,2.91,1.1,3a.18.18,0,0,1-.08.16A.19.19,0,0,1,313.59,407.08ZM312,404H312c-.23,0-.25.14-.26.18-.09.5.89,1.75,1.67,2.34a4.39,4.39,0,0,0-.91-2.37A.69.69,0,0,0,312,404Z" style="fill:#006994"></path><path d="M354.17,244.86s-2.75,14.33-6.19,31.56c-2,9.93-4.2,20.81-6.24,30.49-.74,3.48-1.45,6.8-2.13,9.87-5.2,23.6-14.67,86.1-14.67,86.1l-11.72-1.94s2.33-67.93,6-92c3.39-22,10.25-72.85,10.25-72.85Z" style="fill:#263238"></path><path d="M348,276.42c-2,9.93-4.2,20.81-6.24,30.49a76.57,76.57,0,0,1,3-39.07A60.75,60.75,0,0,1,348,276.42Z" style="opacity:0.2"></path><polygon points="361.84 407.34 354.31 406.59 352.39 387.24 361.39 387.24 361.84 407.34" style="fill:#ebb376"></polygon><path d="M353.17,406h9.23a.66.66,0,0,1,.65.51l1.56,6.73a1.1,1.1,0,0,1-1.09,1.35c-3-.05-5.14-.23-8.88-.23-2.3,0-9.24.24-12.42.24s-3.62-3.14-2.32-3.42c5.82-1.28,10.19-3,12.05-4.72A1.81,1.81,0,0,1,353.17,406Z" style="fill:#263238"></path><path d="M344.49,237.13s.34,51.36.06,73.57c-.31,24.32,7.06,92,7.06,92l11.86-1s.47-62,2.31-86.09c2.06-26.95,3.64-73.4,3.64-73.4Z" style="fill:#263238"></path><path d="M350.68,407.35a2.28,2.28,0,0,1-1.46-.39,1.05,1.05,0,0,1-.38-.94.56.56,0,0,1,.3-.51c.83-.43,3.29,1.07,3.57,1.24a.18.18,0,0,1,0,.33A9.38,9.38,0,0,1,350.68,407.35Zm-1.14-1.57a.52.52,0,0,0-.23.05c-.05,0-.11.07-.11.21a.71.71,0,0,0,.25.65,3.65,3.65,0,0,0,2.68.14A7.16,7.16,0,0,0,349.54,405.78Z" style="fill:#006994"></path><path d="M352.62,407.08a.15.15,0,0,1-.09,0c-.79-.42-2.32-2.08-2.17-2.93a.59.59,0,0,1,.57-.47,1,1,0,0,1,.76.23c.89.72,1.09,2.91,1.1,3a.15.15,0,0,1-.08.16ZM351.06,404H351c-.24,0-.26.14-.26.18-.09.5.88,1.75,1.67,2.34a4.41,4.41,0,0,0-.92-2.37A.68.68,0,0,0,351.06,404Z" style="fill:#006994"></path><path d="M374.74,180.42a169.6,169.6,0,0,0-4.23,25c-.58,5.87-.88,11.47-1,16.55-.35,11.91.12,21-.16,24l-40.45-2.28c-6.5-43,3.48-65.29,3.48-65.29a79.72,79.72,0,0,1,9.64-1.33c.69-.05,1.38-.08,2.09-.11a150.89,150.89,0,0,1,17.2,1c1.08.12,2.18.26,3.25.42C370,179.17,374.74,180.42,374.74,180.42Z" style="fill:#006994"></path><path d="M374.74,180.42a169.6,169.6,0,0,0-4.23,25c-.58,5.87-.88,11.47-1,16.55-.35,11.91.12,21-.16,24l-40.45-2.28c-6.5-43,3.48-65.29,3.48-65.29a79.72,79.72,0,0,1,9.64-1.33c.69-.05,1.38-.08,2.09-.11a150.89,150.89,0,0,1,17.2,1c1.08.12,2.18.26,3.25.42C370,179.17,374.74,180.42,374.74,180.42Z" style="fill:#fff;opacity:0.7000000000000001"></path><path d="M360.47,158.5c-1.34,5.47-2.89,15.54.81,19.44a17.07,17.07,0,0,1-13.51,4.52c-4.75-.37-4.84-3.71-3.69-5.49,6.24-1.12,6.29-5.7,5.42-10.06Z" style="fill:#ebb376"></path><path d="M356,161.93l-6.5,5a18.28,18.28,0,0,1,.39,3.08c2.37-.21,5.73-2.61,6.1-5.07A8.42,8.42,0,0,0,356,161.93Z" style="opacity:0.2"></path><path d="M362,178l-1.77-3.82s-7.85,2.22-9.56,2.74-3,4.18-3,4.18a45.34,45.34,0,0,0,.47-4.65,13.91,13.91,0,0,0-1.35-2.27L344.08,177s-3.41,3.27,2.78,6A21.11,21.11,0,0,0,362,178Z" style="fill:#006994"></path><path d="M362,178l-1.77-3.82s-7.85,2.22-9.56,2.74-3,4.18-3,4.18a45.34,45.34,0,0,0,.47-4.65,13.91,13.91,0,0,0-1.35-2.27L344.08,177s-3.41,3.27,2.78,6A21.11,21.11,0,0,0,362,178Z" style="fill:#fff;opacity:0.7000000000000001"></path><path d="M352.05,183.9a7.76,7.76,0,0,1-.38,2.47c-.53.65-2.34-.69-3.48-1.65h0c-.56-.46-1-.84-1-.84a22.82,22.82,0,0,1-2.48,1.38l-.05,0c-.7.31-1.33.49-1.54.27-.58-.59.67-3,.67-3s-.29-2.39.56-3.31c.65-.69,2.12,1.07,2.8,2h0l.35.5.76-.27c1.39-.49,4.24-1.45,4.79-1.25C353.81,180.44,353.62,182.22,352.05,183.9Z" style="fill:#006994"></path><path d="M349.87,183.18c.13.57-1.83,0-1.83,0a2.52,2.52,0,0,0,.14,1.53c-.56-.46-1-.84-1-.84a22.82,22.82,0,0,1-2.48,1.38,9.91,9.91,0,0,0,1.59-1.12,2.84,2.84,0,0,1,.08-.84s-1.37.44-1.5-.21,1.45-.21,1.45-.21,0-1.27.82-1.67h0l.35.5.76-.27a4.07,4.07,0,0,0-.26,1.44S349.74,182.6,349.87,183.18Z" style="opacity:0.2"></path><path d="M348.24,181.44s-.88-.38-1.09-.19a3.93,3.93,0,0,0-.56,3.08,1.11,1.11,0,0,0,1.2.06S347.45,182.09,348.24,181.44Z" style="fill:#006994"></path><path d="M364.53,178.36A131.11,131.11,0,0,0,343,203.15c-3.05-8.92-3.88-17.6-2-26a78.76,78.76,0,0,0-8.72,1.25s-9.5,21.27-3.92,62.24h0l-2.68,14.25s8.95,1.9,15.26-10.52c0,0,3.2,7.37,9.7,10.63s18.71,1.87,18.71,1.87.06-12,0-19.76a2.3,2.3,0,0,0-.05-.39c0-4.06-.05-9.1.11-14.81.15-5.08.45-10.68,1-16.55a169.6,169.6,0,0,1,4.23-25S370,179.17,364.53,178.36Z" style="fill:#006994"></path><path d="M374.75,180.42c-1.06,4.14-1.91,8.32-2.59,12.46s-1.24,8.43-1.64,12.5c-.07.7-.13,1.39-.19,2.08-.46,5.11-.71,10-.84,14.47-.17,5.71-.15,10.75-.11,14.81a2.34,2.34,0,0,1,0,.39c.06,7.73,0,19.76,0,19.76s-12.21,1.38-18.71-1.87-9.7-10.63-9.7-10.63c-6.3,12.42-15.25,10.52-15.25,10.52l2.67-14.25h0c-5.59-41,3.92-62.24,3.92-62.24a78.8,78.8,0,0,1,8.71-1.25c-1.91,8.39-1.07,17.07,2,26a131.11,131.11,0,0,1,21.49-24.79C370,179.17,374.75,180.42,374.75,180.42Z" style="opacity:0.4"></path><path d="M344.07,141c-1.77,2.54-3.11,8.49,1.42,7.84S347.12,136.63,344.07,141Z" style="fill:#263238"></path><path d="M363.19,151.18c-1.85,7.38-2.55,11.8-7,14.9-6.74,4.66-15.33-.57-15.73-8.37-.36-7,2.71-17.92,10.57-19.46A10.5,10.5,0,0,1,363.19,151.18Z" style="fill:#ebb376"></path><path d="M351.47,151.06c-.11.6-.53,1-.92,1s-.63-.64-.52-1.25.53-1,.92-1S351.58,150.45,351.47,151.06Z" style="fill:#263238"></path><path d="M344.6,149.71c-.12.61-.53,1-.93,1s-.63-.63-.51-1.24.52-1,.92-1S344.71,149.1,344.6,149.71Z" style="fill:#263238"></path><path d="M346.73,150.44a21.45,21.45,0,0,1-3.89,4.44,3.68,3.68,0,0,0,2.8,1.06Z" style="fill:#d58745"></path><path d="M348.47,158.9a5.83,5.83,0,0,1-.8-.1.18.18,0,0,1,.06-.36,4.86,4.86,0,0,0,4.28-1.11.18.18,0,0,1,.26,0,.19.19,0,0,1,0,.26A5,5,0,0,1,348.47,158.9Z" style="fill:#263238"></path><path d="M354,149.25a.4.4,0,0,1-.31-.2,2.91,2.91,0,0,0-2.06-1.64.37.37,0,0,1-.32-.41.36.36,0,0,1,.4-.32,3.67,3.67,0,0,1,2.63,2,.35.35,0,0,1-.16.48A.39.39,0,0,1,354,149.25Z" style="fill:#263238"></path><path d="M342.07,146.77a.36.36,0,0,1-.19-.08.35.35,0,0,1-.08-.5,3.53,3.53,0,0,1,2.94-1.51.36.36,0,1,1,0,.72,2.84,2.84,0,0,0-2.32,1.22A.37.37,0,0,1,342.07,146.77Z" style="fill:#263238"></path><path d="M352.66,142.89s2.35-1.06,3,.7-.27,6-.27,6l.56-.67s.77,9.94,5.08,8.33,11.84-10.05,3.84-16.7c0,0-.5-2.46-6.2-4.75s-13.59-.06-15.59,3.61-.72,6.2-.72,6.2a5.78,5.78,0,0,1,1.6-2.1,2.51,2.51,0,0,0,1.12,2.1,4.35,4.35,0,0,1,.94-2.22,5,5,0,0,0,.62,2.08c1.23-4,4.13-4.23,5-4A1.5,1.5,0,0,1,352.66,142.89Z" style="fill:#263238"></path><path d="M364.91,157.94a7.13,7.13,0,0,1-4.27,3.47c-2.43.69-3.68-1.49-3-3.81.59-2.08,2.55-4.95,5-4.63A3.28,3.28,0,0,1,364.91,157.94Z" style="fill:#ebb376"></path><path d="M372.16,192.88c-.71,4.24-1.24,8.43-1.64,12.5-.07.7-.13,1.39-.19,2.08a36.14,36.14,0,0,1-1.52-13.18A8.86,8.86,0,0,1,372.16,192.88Z" style="opacity:0.2"></path><path d="M396.87,194a69.19,69.19,0,0,1-7.2,9.7,15.46,15.46,0,0,1-1.87,1.68,5.86,5.86,0,0,1-.89.55s-.16-.12-.23-.19a7.55,7.55,0,0,1-.54-.56,18.85,18.85,0,0,1-2.57-4.09c-.8-1.68-1.58-3.51-2.28-5.42s-1.4-3.9-2.15-6c-.38-1-2.75-7.43-4.4-9.28a13.28,13.28,0,0,0-5.17,6.94,17.17,17.17,0,0,0-.6,8.2c.54,1.42,1.1,2.87,1.71,4.34a59.06,59.06,0,0,0,3.13,6.42,26.47,26.47,0,0,0,5,6.49,16.61,16.61,0,0,0,2,1.52,13.46,13.46,0,0,0,1.18.68,9.55,9.55,0,0,0,1.5.63,9.11,9.11,0,0,0,3.63.43,9.82,9.82,0,0,0,3.17-.86,13.55,13.55,0,0,0,4-2.93,24.43,24.43,0,0,0,2.48-3.16,37.5,37.5,0,0,0,3.3-6.41,45.68,45.68,0,0,0,2.14-6.62Zm-10.42,12a1.11,1.11,0,0,1,.41,0,1.3,1.3,0,0,1-.43.13C386.33,206.06,386.33,206,386.45,206Z" style="fill:#006994"></path><g style="opacity:0.7000000000000001"><path d="M396.87,194a69.19,69.19,0,0,1-7.2,9.7,15.46,15.46,0,0,1-1.87,1.68,5.86,5.86,0,0,1-.89.55s-.16-.12-.23-.19a7.55,7.55,0,0,1-.54-.56,18.85,18.85,0,0,1-2.57-4.09c-.8-1.68-1.58-3.51-2.28-5.42s-1.4-3.9-2.15-6c-.38-1-2.75-7.43-4.4-9.28a13.28,13.28,0,0,0-5.17,6.94,17.17,17.17,0,0,0-.6,8.2c.54,1.42,1.1,2.87,1.71,4.34a59.06,59.06,0,0,0,3.13,6.42,26.47,26.47,0,0,0,5,6.49,16.61,16.61,0,0,0,2,1.52,13.46,13.46,0,0,0,1.18.68,9.55,9.55,0,0,0,1.5.63,9.11,9.11,0,0,0,3.63.43,9.82,9.82,0,0,0,3.17-.86,13.55,13.55,0,0,0,4-2.93,24.43,24.43,0,0,0,2.48-3.16,37.5,37.5,0,0,0,3.3-6.41,45.68,45.68,0,0,0,2.14-6.62Zm-10.42,12a1.11,1.11,0,0,1,.41,0,1.3,1.3,0,0,1-.43.13C386.33,206.06,386.33,206,386.45,206Z" style="fill:#fff"></path></g><path d="M400.84,197.61l7.44-2.05-5.61-6.46s-6.53,2.23-5.24,5.55Z" style="fill:#ebb376"></path><polygon points="413.51 190 406.81 186.08 402.67 189.1 408.28 195.56 413.51 190" style="fill:#ebb376"></polygon><rect x="395.14" y="140.09" width="3.28" height="3.28" transform="translate(793.55 283.45) rotate(180)" style="fill:#006994"></rect><path d="M390,167.16v19.18h13.49V167.16a.86.86,0,0,0,0-.16,6.26,6.26,0,0,0-2.29-4.69,6.24,6.24,0,0,1-2.3-4.83V142.26h-4.29v15.22a6.21,6.21,0,0,1-2.3,4.83A6.26,6.26,0,0,0,390,167,.86.86,0,0,0,390,167.16Z" style="fill:#263238"></path><path d="M394.77,142.68h4a.4.4,0,0,0,.4-.4h0a.4.4,0,0,0-.4-.4h-4a.41.41,0,0,0-.41.4h0A.41.41,0,0,0,394.77,142.68Z" style="fill:#263238"></path><path d="M394.77,142.68h4a.4.4,0,0,0,.4-.4h0a.4.4,0,0,0-.4-.4h-4a.41.41,0,0,0-.41.4h0A.41.41,0,0,0,394.77,142.68Z" style="fill:#fff;opacity:0.1"></path><path d="M390,167.16v3a9.83,9.83,0,0,0,13.49,0v-3a.86.86,0,0,0,0-.16A11.41,11.41,0,0,1,390,167,.86.86,0,0,0,390,167.16Z" style="fill:#fff;opacity:0.1"></path><path d="M396.78,174.68a4.22,4.22,0,1,0-4.22-4.22A4.22,4.22,0,0,0,396.78,174.68Z" style="fill:#263238"></path><path d="M396.78,174.68a4.22,4.22,0,1,0-4.22-4.22A4.22,4.22,0,0,0,396.78,174.68Z" style="fill:#fff;opacity:0.2"></path><circle cx="396.78" cy="170.46" r="2.97" style="fill:#fff;opacity:0.4"></circle><path d="M406.69,176.11c-2.58-.29-4.6-2.83-4.6-5.93a6.84,6.84,0,0,1,.34-2.1H412a6.84,6.84,0,0,1,.33,2.1c0,3.1-2,5.64-4.6,5.93v9.26a4.88,4.88,0,0,1,2.91,1h-6.8a4.84,4.84,0,0,1,2.9-1Z" style="fill:#006994"></path><path d="M406.69,176.11c-2.58-.29-4.6-2.83-4.6-5.93a6.84,6.84,0,0,1,.34-2.1H412a6.84,6.84,0,0,1,.33,2.1c0,3.1-2,5.64-4.6,5.93v9.26a4.88,4.88,0,0,1,2.91,1h-6.8a4.84,4.84,0,0,1,2.9-1Z" style="fill:#fff;opacity:0.7000000000000001"></path><path d="M411.6,171.71a4.44,4.44,0,0,1-8.82,0Z" style="fill:#006994"></path><path d="M418.5,176.11c-2.59-.29-4.6-2.83-4.6-5.93a6.84,6.84,0,0,1,.33-2.1h9.52a6.84,6.84,0,0,1,.33,2.1c0,3.1-2,5.64-4.6,5.93v9.26a4.85,4.85,0,0,1,2.91,1h-6.8a4.85,4.85,0,0,1,2.91-1Z" style="fill:#006994"></path><path d="M418.5,176.11c-2.59-.29-4.6-2.83-4.6-5.93a6.84,6.84,0,0,1,.33-2.1h9.52a6.84,6.84,0,0,1,.33,2.1c0,3.1-2,5.64-4.6,5.93v9.26a4.85,4.85,0,0,1,2.91,1h-6.8a4.85,4.85,0,0,1,2.91-1Z" style="fill:#fff;opacity:0.7000000000000001"></path><path d="M423.4,171.71a4.44,4.44,0,0,1-8.82,0Z" style="fill:#006994"></path><path d="M412.29,176.11c-2.58-.29-4.6-2.83-4.6-5.93a6.84,6.84,0,0,1,.33-2.1h9.52a6.84,6.84,0,0,1,.33,2.1c0,3.1-2,5.64-4.59,5.93v9.26a4.84,4.84,0,0,1,2.9,1h-6.8a4.85,4.85,0,0,1,2.91-1Z" style="fill:#006994"></path><path d="M412.29,176.11c-2.58-.29-4.6-2.83-4.6-5.93a6.84,6.84,0,0,1,.33-2.1h9.52a6.84,6.84,0,0,1,.33,2.1c0,3.1-2,5.64-4.59,5.93v9.26a4.84,4.84,0,0,1,2.9,1h-6.8a4.85,4.85,0,0,1,2.91-1Z" style="fill:#fff;opacity:0.8"></path><path d="M417.19,171.71a4.44,4.44,0,0,1-8.82,0Z" style="fill:#006994"></path><polygon points="396.05 189.73 418.58 189.73 429.07 187.36 385.56 187.36 396.05 189.73" style="fill:#263238"></polygon><polygon points="396.05 189.73 418.58 189.73 429.07 187.36 385.56 187.36 396.05 189.73" style="fill:#fff;opacity:0.7000000000000001"></polygon><path d="M384.38,188.1h45.87a1.14,1.14,0,0,0,1.14-1.13h0a1.13,1.13,0,0,0-1.14-1.13H384.38a1.13,1.13,0,0,0-1.14,1.13h0A1.14,1.14,0,0,0,384.38,188.1Z" style="fill:#263238"></path><path d="M384.38,188.1h45.87a1.14,1.14,0,0,0,1.14-1.13h0a1.13,1.13,0,0,0-1.14-1.13H384.38a1.13,1.13,0,0,0-1.14,1.13h0A1.14,1.14,0,0,0,384.38,188.1Z" style="fill:#fff;opacity:0.8"></path><path d="M333.41,212.77c1.85.06,2.08,1.24,2,2.16S333,242.42,333,242.42s-9.19,2.19-14,0S322.53,212.4,333.41,212.77Z" style="fill:#263238"></path><path d="M333.41,212.77c1.85.06,2.08,1.24,2,2.16S333,242.42,333,242.42s-9.19,2.19-14,0S322.53,212.4,333.41,212.77Z" style="fill:#fff;opacity:0.8"></path><path d="M325.53,222c4.88-.34,9.62-2,14.4-2.91l-.43-5.67c-4.67-.3-9.38-.57-14-1Z" style="fill:#006994"></path><path d="M325.53,222c4.88-.34,9.62-2,14.4-2.91l-.43-5.67c-4.67-.3-9.38-.57-14-1Z" style="fill:#fff;opacity:0.7000000000000001"></path><path d="M339,213.21l7.71.34-4,7.55s-6.86-.72-6.34-4.24Z" style="fill:#ebb376"></path><polygon points="353.02 217.82 347.35 223.13 342.64 221.1 346.67 213.55 353.02 217.82" style="fill:#ebb376"></polygon><path d="M313.87,243.53l2.31-26a5.57,5.57,0,0,1,5.6-5l11.63.3h0a2.64,2.64,0,0,0-2.17,2.35l-2.65,29.78S318.33,245.75,313.87,243.53Z" style="fill:#263238"></path><path d="M313.87,243.53l2.31-26a5.57,5.57,0,0,1,5.6-5l11.63.3h0a2.64,2.64,0,0,0-2.17,2.35l-2.65,29.78S318.33,245.75,313.87,243.53Z" style="fill:#fff;opacity:0.9"></path></g><g id="freepik--character-1--inject-2"><path d="M164.58,208.11A75.26,75.26,0,0,0,177,231.55l-21.82,15.23,2.15,5.59s28.88-8.88,32.11-12.87c2.38-2.95-10.35-23.79-10.35-23.79S172.31,204,164.58,208.11Z" style="fill:#006994"></path><path d="M189.4,239.5c-3.23,4-32.11,12.87-32.11,12.87l-2.15-5.59L177,231.55c-.69-.86-1.35-1.73-2-2.6a64.7,64.7,0,0,1-3.61-5.57,75.26,75.26,0,0,1-6.8-15.27c7.73-4.11,14.47,7.6,14.47,7.6S191.78,236.55,189.4,239.5Z" style="fill:#fff;opacity:0.7000000000000001"></path><path d="M175,229a64.7,64.7,0,0,1-3.61-5.57,9.58,9.58,0,0,1,1.84-4.85A13.79,13.79,0,0,1,175,229Z" style="opacity:0.2"></path><path d="M113,199.59l-6.92-3.15-3.94-4.95,5.35-1.3,2.82,1.89s5.18.42,6.38,4.41Z" style="fill:#ce7a63"></path><path d="M138.49,170.38s2.23-3.85,8.63-4.51,14.88,2.76,16.18,12.52,4.06,15.12,4.06,15.12S146.76,198.9,141,197,126.23,173.19,138.49,170.38Z" style="fill:#263238"></path><path d="M178,342c-3.07,5.66-6.17,11.75-9.15,17.85-3.92,8.05-7.62,16.12-10.78,23.34-3.33,7.61-6,14.26-7.73,18.88-1.6.18-6.43-2.7-7.82-5.31a260,260,0,0,1,11.25-43.67c3.12-8.53,6.94-16.92,11.53-23.71C146.53,276,151.13,256,151.13,256l21.74-1s3.29,19.88,5.92,40.27h0c1.37,10.69,2.56,21.52,3,29.7v.08A31.83,31.83,0,0,1,178,342Z" style="fill:#263238"></path><path d="M160.07,313.48c-2.75-9.07-4.73-16.93-6.14-23.67,1.4-5.27,3.37-9.78,6-12.49C160,277.32,163.84,292,160.07,313.48Z" style="opacity:0.2"></path><path d="M158.06,383.17c-3.33,7.61-6,14.26-7.73,18.88-1.6.18-6.43-2.7-7.82-5.31a260,260,0,0,1,11.25-43.67C155.35,361.91,157.13,373.08,158.06,383.17Z" style="opacity:0.2"></path><path d="M145.82,413c-3.56-4.73-4-5.41-5.87-8.13-1.63-2.34-2.33-2.67-3.66-4.53-1.12-1.55.38-2.59,2.42-3.39,1-.4,3.08-1.38,4.69-2.09l5.72,6.55c-1.12,2.38-2.12,6.57-.47,9.51S147.24,414.89,145.82,413Z" style="fill:#006994"></path><path d="M145.82,413c-3.56-4.73-4-5.41-5.87-8.13-1.63-2.34-2.33-2.67-3.66-4.53-1.12-1.55.38-2.59,2.42-3.39,1-.4,3.08-1.38,4.69-2.09l5.72,6.55c-1.12,2.38-2.12,6.57-.47,9.51S147.24,414.89,145.82,413Z" style="fill:#fff;opacity:0.30000000000000004"></path><path d="M158.3,414.63c-5.92,0-6.7-.09-10-.2-2.85-.11-3.53.25-5.82.2-1.91,0-1.84-1.87-1.25-4,.3-1.06.75-3.29,1.16-5L151,405c1.22,2.33,4,5.65,7.31,6.1C161.52,411.55,160.66,414.63,158.3,414.63Z" style="fill:#006994"></path><path d="M158.3,414.63c-5.92,0-6.7-.09-10-.2-2.85-.11-3.53.25-5.82.2-1.91,0-1.84-1.87-1.25-4,.3-1.06.75-3.29,1.16-5L151,405c1.22,2.33,4,5.65,7.31,6.1C161.52,411.55,160.66,414.63,158.3,414.63Z" style="fill:#fff;opacity:0.4"></path><path d="M164.58,252.59s-6.33,49-10,72.54c-3.81,24.75-4.3,64.47-3.34,80.66-1.39.8-6.45,1.78-9.18.92,0,0-12.9-50.06-4.33-79.14-7.81-57.27,3.49-71.29,3.49-71.29Z" style="fill:#263238"></path><path d="M175.94,264.11h0a7.39,7.39,0,0,1-9.3-3.66l-2.06-4.25-1.83,2.65a15,15,0,0,1-13.56,6.45l-13.37-1.05s4.21-13.71,5-16c-.66-7.43-2.69-16.72-7.27-31-1.49-4.65,1-9.9,1-9.9s6.23-.16,6.86-.23,1.4-.15,2.11-.21a101.72,101.72,0,0,1,14.5-.49c1.2.07,2.43.17,3.64.27.39,0,4.78.08,5.16.12,0,0,6.06,6.94,6.43,12.56a98.8,98.8,0,0,1,.5,13c0,5.1-.18,10.13-.52,17.3C174.24,253.46,175.94,264.11,175.94,264.11Z" style="fill:#006994"></path><path d="M162.47,221.75a102.6,102.6,0,0,0-21-14.64c.69-.08,1.4-.15,2.11-.21a101.72,101.72,0,0,1,14.5-.49c1.2.07,2.43.17,3.64.27h0C164.72,213.56,162.47,221.75,162.47,221.75Z" style="fill:#fff;opacity:0.7000000000000001"></path><path d="M144,190.54c1.43,4.62,3.27,13.12.34,16.34,0,0,4.4-.82,14,4.66,2.58-4,.52-5.16.52-5.16-5.34-1.06-5.62-4.92-5.11-8.56Z" style="fill:#ce7a63"></path><path d="M148,193.51l5.76,4.3a14.21,14.21,0,0,0-.17,2.59c-2-.22-5-2.31-5.42-4.37A6.89,6.89,0,0,1,148,193.51Z" style="opacity:0.2"></path><path d="M143.58,206.9l1.83-4s6.46.71,7.84,1.66a9.25,9.25,0,0,1,2.38,2.73,23.76,23.76,0,0,0-.95-3.25c-.3-.47.46-1.14.46-1.14l2,2.61,2.52,1s.91,3.85-.64,6.36S143.58,206.9,143.58,206.9Z" style="fill:#006994"></path><path d="M143.58,206.9l1.83-4s6.46.71,7.84,1.66a9.25,9.25,0,0,1,2.38,2.73,23.76,23.76,0,0,0-.95-3.25c-.3-.47.46-1.14.46-1.14l2,2.61,2.52,1s.91,3.85-.64,6.36S143.58,206.9,143.58,206.9Z" style="fill:#fff;opacity:0.7000000000000001"></path><path d="M152.34,209.83a7.2,7.2,0,0,0,.44,2.23c.51.57,2.1-.72,3.09-1.63h0c.49-.44.84-.8.84-.8a21.09,21.09,0,0,0,2.3,1.16l0,0c.64.26,1.22.4,1.4.19.5-.56-.72-2.71-.72-2.71s.17-2.18-.63-3c-.62-.6-1.88,1-2.47,1.9h0l-.3.47-.7-.22c-1.28-.39-3.9-1.15-4.39-.95S150.86,208.37,152.34,209.83Z" style="fill:#006994"></path><path d="M154.29,209.1c-.09.52,1.66-.07,1.66-.07a2.24,2.24,0,0,1-.07,1.39c.49-.44.84-.8.84-.8a21.09,21.09,0,0,0,2.3,1.16,8.81,8.81,0,0,1-1.48-1,2.41,2.41,0,0,0-.11-.75s1.26.34,1.35-.25-1.32-.14-1.32-.14-.07-1.15-.81-1.48h0l-.3.47-.7-.22a3.86,3.86,0,0,1,.29,1.3S154.39,208.57,154.29,209.1Z" style="opacity:0.2"></path><path d="M155.7,207.46s.78-.38,1-.22a3.63,3.63,0,0,1,.63,2.78,1,1,0,0,1-1.09.1S156.44,208,155.7,207.46Z" style="fill:#006994"></path><path d="M139.74,181.31c1.67,7.49,2.22,10.68,6.65,14.15,6.65,5.21,15.43,2,16-5.67.53-6.94-2.3-18-10.14-20.24A9.83,9.83,0,0,0,139.74,181.31Z" style="fill:#ce7a63"></path><path d="M149.41,182.24c.11.63.53,1.11.94,1.07s.64-.6.53-1.23-.54-1.11-.94-1.07S149.29,181.6,149.41,182.24Z" style="fill:#263238"></path><path d="M157.31,181.14c.11.63.53,1.11.94,1.07s.64-.6.53-1.23-.53-1.11-.94-1.07S157.19,180.5,157.31,181.14Z" style="fill:#263238"></path><path d="M157.66,180l1.42-.6S158.53,180.64,157.66,180Z" style="fill:#263238"></path><path d="M155.14,182.79a18.74,18.74,0,0,0,2.94,3.81,2.58,2.58,0,0,1-2.15.67Z" style="fill:#ba4d3c"></path><path d="M152.77,190a6.33,6.33,0,0,0,1.06,0,.18.18,0,0,0,.15-.21.21.21,0,0,0-.22-.17,5.33,5.33,0,0,1-4.37-1.53.18.18,0,1,0-.27.24A5.62,5.62,0,0,0,152.77,190Z" style="fill:#263238"></path><path d="M147.53,178.39a.32.32,0,0,0,.25-.12,2.77,2.77,0,0,1,2.41-1,.34.34,0,0,0,.4-.31.4.4,0,0,0-.33-.43,3.43,3.43,0,0,0-3.06,1.25.38.38,0,0,0,.06.53A.39.39,0,0,0,147.53,178.39Z" style="fill:#263238"></path><path d="M159.81,176.61a.35.35,0,0,0,.26-.07.38.38,0,0,0,0-.53,3.93,3.93,0,0,0-3.14-1.53.35.35,0,0,0-.31.4.41.41,0,0,0,.42.35,3.14,3.14,0,0,1,2.48,1.24A.4.4,0,0,0,159.81,176.61Z" style="fill:#263238"></path><path d="M149.76,181.07l1.42-.61S150.63,181.74,149.76,181.07Z" style="fill:#263238"></path><path d="M143.58,185.65s3.68-5.36.88-13.3c0,0,8.32-4,14.62,2.13,0,0-5.86-10.29-18.11-5.36s-3,16.68-1.49,17.66S143.58,185.65,143.58,185.65Z" style="fill:#263238"></path><path d="M138.25,187.78a6.11,6.11,0,0,0,4.05,2.39c2.07.24,2.66-1.85,1.72-3.77-.85-1.73-3-3.94-4.85-3.29S137,186.14,138.25,187.78Z" style="fill:#ce7a63"></path><path d="M175.93,264.11a7.38,7.38,0,0,1-9.29-3.66l-2.06-4.25-1.83,2.65a15.06,15.06,0,0,1-13.56,6.45l-13.37-1.05s4.21-13.71,5-16a114.53,114.53,0,0,0-4.16-20.68c-.87-3.14-1.9-6.56-3.11-10.34a.24.24,0,0,1,0-.08c-1.44-4.63,1.06-9.82,1.06-9.82s6.23-.16,6.86-.23a102.6,102.6,0,0,1,21,14.64s2.25-8.19-.75-15.06h0c.39,0,4.77.08,5.15.12,0,0,6.07,6.94,6.44,12.56a98.8,98.8,0,0,1,.5,13c0,5.1-.18,10.13-.52,17.3C174.24,253.46,175.93,264.11,175.93,264.11Z" style="opacity:0.4"></path><path d="M136.68,227.58c-.87-3.14-1.9-6.56-3.11-10.34a.24.24,0,0,1,0-.08c1-.67,2.18-.65,3.49.45A31.32,31.32,0,0,1,136.68,227.58Z" style="opacity:0.2"></path><path d="M134.61,207.34s-2.58-.41-11.88,10.09l-5.87-21.14-5.14,3.07s.79,29.16,5.27,31.67c3.3,1.85,18.63-9.28,18.63-9.28S140,214.26,134.61,207.34Z" style="fill:#006994"></path><path d="M134.61,207.34s-2.58-.41-11.88,10.09l-5.87-21.14-5.14,3.07s.79,29.16,5.27,31.67c3.3,1.85,18.63-9.28,18.63-9.28S140,214.26,134.61,207.34Z" style="fill:#fff;opacity:0.7000000000000001"></path><path d="M91.68,187.8a.45.45,0,0,1-.32-.13l-4.61-4.55a.46.46,0,0,1,.65-.65L92,187a.46.46,0,0,1-.33.78Z" style="fill:#263238"></path><path d="M95.71,181.13h0a.15.15,0,0,1-.14-.16c0-.06.11-1.46,1-1.86a.15.15,0,0,1,.2.08.14.14,0,0,1-.08.2c-.72.32-.81,1.59-.81,1.6A.16.16,0,0,1,95.71,181.13Z" style="fill:#263238"></path><path d="M100.74,188.74H90.68l1.2-6.23a.79.79,0,0,1,.78-.65h6.11a.8.8,0,0,1,.78.65Z" style="fill:#263238"></path><path d="M100.74,188.74H90.68l1.2-6.23a.79.79,0,0,1,.78-.65h6.11a.8.8,0,0,1,.78.65Z" style="fill:#fff;opacity:0.2"></path><path d="M100.74,188.74H90.68l.76-4a.58.58,0,0,0,.45,0c.24,0,.46-.08.56-.32a2.55,2.55,0,0,1,.42-.61.54.54,0,0,1,.38-.21.49.49,0,0,1,.3.16,1,1,0,0,1,.22.36c.09.23.09.48.19.7s.76.51.94.08a1.8,1.8,0,0,0,.06-.22l0-.32a.65.65,0,0,1,.73-.47.63.63,0,0,1,.58.51,4.58,4.58,0,0,0,0,.53.44.44,0,0,0,.76.2.94.94,0,0,0,.23-.85,1.55,1.55,0,0,1,0-.21.56.56,0,0,1,.18-.41,1.16,1.16,0,0,1,.4-.23.77.77,0,0,1,.83.08,1,1,0,0,1,.18.53A1.12,1.12,0,0,0,100,185Z" style="fill:#fff;opacity:0.6000000000000001"></path><path d="M87.85,186.07c.42,2.49,3.65,4.43,7.58,4.43s7.17-1.94,7.59-4.43Z" style="fill:#006994"></path><path d="M87.85,186.07c.42,2.49,3.65,4.43,7.58,4.43s7.17-1.94,7.59-4.43Z" style="fill:#fff;opacity:0.7000000000000001"></path><rect x="91" y="189.59" width="8.87" height="0.91" style="fill:#006994"></rect><rect x="91" y="189.59" width="8.87" height="0.91" style="fill:#fff;opacity:0.6000000000000001"></rect><path d="M96.38,181.41a.67.67,0,1,1-.67-.67A.67.67,0,0,1,96.38,181.41Z" style="fill:#006994"></path><path d="M106.42,187.8a.53.53,0,0,1-.24-.06l-6.67-4a.45.45,0,0,1-.16-.62A.46.46,0,0,1,100,183l6.67,3.95a.46.46,0,0,1-.23.85Z" style="fill:#263238"></path><path d="M110.44,181.13a.15.15,0,0,1-.15-.14s-.09-1.28-.82-1.6a.15.15,0,0,1-.07-.2.15.15,0,0,1,.2-.08c.89.4,1,1.8,1,1.86a.16.16,0,0,1-.15.16Z" style="fill:#263238"></path><path d="M105.41,188.74h10.06l-1.19-6.23a.8.8,0,0,0-.78-.65h-6.11a.8.8,0,0,0-.78.65Z" style="fill:#263238"></path><path d="M105.41,188.74h10.06l-1.19-6.23a.8.8,0,0,0-.78-.65h-6.11a.8.8,0,0,0-.78.65Z" style="fill:#fff;opacity:0.2"></path><path d="M105.42,188.74h10.06l-.76-4a.6.6,0,0,1-.46,0c-.23,0-.45-.08-.56-.32a2.25,2.25,0,0,0-.41-.61.59.59,0,0,0-.39-.21.5.5,0,0,0-.29.16,1.05,1.05,0,0,0-.23.36c-.08.23-.08.48-.18.7s-.76.51-1,.08a.87.87,0,0,1,0-.22l0-.32a.64.64,0,0,0-.72-.47.63.63,0,0,0-.58.51c0,.18,0,.36,0,.53a.44.44,0,0,1-.76.2.94.94,0,0,1-.23-.85c0-.07,0-.14,0-.21a.57.57,0,0,0-.19-.41,1,1,0,0,0-.4-.23.76.76,0,0,0-.82.08,1,1,0,0,0-.18.53,1.12,1.12,0,0,1-1.14.86Z" style="fill:#fff;opacity:0.6000000000000001"></path><path d="M102.58,186.07c.42,2.49,3.65,4.43,7.59,4.43s7.17-1.94,7.58-4.43Z" style="fill:#006994"></path><path d="M102.58,186.07c.42,2.49,3.65,4.43,7.59,4.43s7.17-1.94,7.58-4.43Z" style="fill:#fff;opacity:0.7000000000000001"></path><rect x="105.73" y="189.59" width="8.87" height="0.91" style="fill:#006994"></rect><rect x="105.73" y="189.59" width="8.87" height="0.91" style="fill:#fff;opacity:0.6000000000000001"></rect><path d="M109.78,181.41a.66.66,0,0,0,.66.66.67.67,0,1,0-.66-.66Z" style="fill:#006994"></path><path d="M127.88,187.8a.44.44,0,0,1-.32-.13.46.46,0,0,1,0-.65l4.61-4.55a.46.46,0,0,1,.65,0,.47.47,0,0,1,0,.65l-4.6,4.55A.46.46,0,0,1,127.88,187.8Z" style="fill:#263238"></path><path d="M123.85,181.13h0a.15.15,0,0,1-.1-.19,9.58,9.58,0,0,0,.31-1.69.15.15,0,0,1,.3,0A9.53,9.53,0,0,1,124,181,.15.15,0,0,1,123.85,181.13Z" style="fill:#263238"></path><path d="M118.82,188.74h10.06l-1.19-6.23a.8.8,0,0,0-.78-.65H120.8a.79.79,0,0,0-.78.65Z" style="fill:#263238"></path><path d="M118.82,188.74h10.06l-1.19-6.23a.8.8,0,0,0-.78-.65H120.8a.79.79,0,0,0-.78.65Z" style="fill:#fff;opacity:0.2"></path><path d="M118.82,188.74h10.07l-.76-4a.6.6,0,0,1-.46,0c-.23,0-.45-.08-.56-.32a2.25,2.25,0,0,0-.41-.61.59.59,0,0,0-.39-.21.5.5,0,0,0-.29.16,1.05,1.05,0,0,0-.23.36c-.08.23-.08.48-.18.7s-.76.51-1,.08a.87.87,0,0,1,0-.22l0-.32a.64.64,0,0,0-.72-.47.65.65,0,0,0-.59.51,4.61,4.61,0,0,1,0,.53.44.44,0,0,1-.76.2.94.94,0,0,1-.23-.85,1.52,1.52,0,0,0,0-.21.52.52,0,0,0-.18-.41,1,1,0,0,0-.4-.23.76.76,0,0,0-.82.08,1,1,0,0,0-.18.53,1.13,1.13,0,0,1-1.14.86Z" style="fill:#fff;opacity:0.6000000000000001"></path><path d="M131.72,186.07c-.42,2.49-3.65,4.43-7.59,4.43s-7.17-1.94-7.59-4.43Z" style="fill:#006994"></path><path d="M131.72,186.07c-.42,2.49-3.65,4.43-7.59,4.43s-7.17-1.94-7.59-4.43Z" style="fill:#fff;opacity:0.7000000000000001"></path><rect x="119.7" y="189.59" width="8.87" height="0.91" transform="translate(248.26 380.1) rotate(180)" style="fill:#006994"></rect><rect x="119.7" y="189.59" width="8.87" height="0.91" transform="translate(248.26 380.1) rotate(180)" style="fill:#fff;opacity:0.6000000000000001"></rect><path d="M123.18,181.41a.67.67,0,1,0,.67-.67A.67.67,0,0,0,123.18,181.41Z" style="fill:#006994"></path><polygon points="120.69 193.96 98.16 193.96 87.67 191.59 131.18 191.59 120.69 193.96" style="fill:#263238"></polygon><polygon points="120.69 193.96 98.16 193.96 87.67 191.59 131.18 191.59 120.69 193.96" style="fill:#fff;opacity:0.7000000000000001"></polygon><path d="M132.36,192.33H86.49a1.13,1.13,0,0,1-1.14-1.13h0a1.14,1.14,0,0,1,1.14-1.13h45.87a1.14,1.14,0,0,1,1.14,1.13h0A1.13,1.13,0,0,1,132.36,192.33Z" style="fill:#263238"></path><path d="M132.36,192.33H86.49a1.13,1.13,0,0,1-1.14-1.13h0a1.14,1.14,0,0,1,1.14-1.13h45.87a1.14,1.14,0,0,1,1.14,1.13h0A1.13,1.13,0,0,1,132.36,192.33Z" style="fill:#fff;opacity:0.8"></path></g></svg>
