<svg xmlns="http://www.w3.org/2000/svg" viewBox="0 0 500 500"><g id="freepik--background-complete--inject-3"><rect y="382.4" width="500" height="0.25" style="fill:#ebebeb"></rect><rect x="416.78" y="398.49" width="33.12" height="0.25" style="fill:#ebebeb"></rect><rect x="322.53" y="401.21" width="8.69" height="0.25" style="fill:#ebebeb"></rect><rect x="396.59" y="389.21" width="19.19" height="0.25" style="fill:#ebebeb"></rect><rect x="52.46" y="390.89" width="43.19" height="0.25" style="fill:#ebebeb"></rect><rect x="104.56" y="390.89" width="6.33" height="0.25" style="fill:#ebebeb"></rect><rect x="131.47" y="395.11" width="93.68" height="0.25" style="fill:#ebebeb"></rect><path d="M237,337.8H43.91a5.71,5.71,0,0,1-5.7-5.71V60.66A5.71,5.71,0,0,1,43.91,55H237a5.71,5.71,0,0,1,5.71,5.71V332.09A5.71,5.71,0,0,1,237,337.8ZM43.91,55.2a5.46,5.46,0,0,0-5.45,5.46V332.09a5.46,5.46,0,0,0,5.45,5.46H237a5.47,5.47,0,0,0,5.46-5.46V60.66A5.47,5.47,0,0,0,237,55.2Z" style="fill:#ebebeb"></path><path d="M453.31,337.8H260.21a5.72,5.72,0,0,1-5.71-5.71V60.66A5.72,5.72,0,0,1,260.21,55h193.1A5.71,5.71,0,0,1,459,60.66V332.09A5.71,5.71,0,0,1,453.31,337.8ZM260.21,55.2a5.47,5.47,0,0,0-5.46,5.46V332.09a5.47,5.47,0,0,0,5.46,5.46h193.1a5.47,5.47,0,0,0,5.46-5.46V60.66a5.47,5.47,0,0,0-5.46-5.46Z" style="fill:#ebebeb"></path><polygon points="244.64 151.95 191.8 121.21 151.09 121.21 97.38 150.49 97.38 349.71 244.64 349.71 244.64 151.95" style="fill:#e0e0e0"></polygon><path d="M95.86,152l1.52-1.46a104.67,104.67,0,0,1,72.87-29.28h0a104.65,104.65,0,0,1,72.87,29.28l1.52,1.46V349.71H95.86Zm138.91,4.23a95.47,95.47,0,0,0-129,0V339.84h129Z" style="fill:#fafafa"></path><polygon points="173.95 341.03 166.55 341.03 166.55 274.91 103.86 274.91 103.86 267.51 166.55 267.51 166.55 199.89 103.86 199.89 103.86 192.49 166.55 192.49 166.55 129.8 173.95 129.8 173.95 192.49 236.64 192.49 236.64 199.89 173.95 199.89 173.95 267.51 236.64 267.51 236.64 274.91 173.95 274.91 173.95 341.03" style="fill:#f0f0f0"></polygon><path d="M90.93,149.93l1.44-1.44a110.27,110.27,0,0,1,155.76,0l1.44,1.44V354.64H90.93Zm148.78,4.12a100.38,100.38,0,0,0-138.91,0V344.77H239.71Z" style="fill:#f0f0f0"></path><rect x="319.04" y="76.04" width="2" height="143.17" style="fill:#e0e0e0"></rect><polygon points="342.64 234.31 297.45 234.31 307.45 215.25 332.63 215.25 342.64 234.31" style="fill:#ebebeb"></polygon><rect x="379.08" y="76.04" width="2" height="103.14" style="fill:#e0e0e0"></rect><polygon points="402.68 194.28 357.49 194.28 367.49 175.23 392.67 175.23 402.68 194.28" style="fill:#ebebeb"></polygon></g><g id="freepik--Shadow--inject-3"><ellipse id="freepik--path--inject-3" cx="250" cy="416.24" rx="193.89" ry="11.32" style="fill:#f5f5f5"></ellipse></g><g id="freepik--Plant--inject-3"><path d="M388.33,378.43s-2-14.87-11.54-16.5-6.65-8.82-9.12-11.6-8.95,5.43-3.41,13.38,1,5.46,3.41,12.86S389.2,390.76,388.33,378.43Z" style="fill:#263238"></path><path d="M388.33,378.43s-2-14.87-11.54-16.5-6.65-8.82-9.12-11.6-8.95,5.43-3.41,13.38,1,5.46,3.41,12.86S389.2,390.76,388.33,378.43Z" style="fill:#fff;isolation:isolate;opacity:0.2"></path><path d="M387.93,388.74a.63.63,0,0,1-.59-.37c-.08-.15-7.34-15.62-3.53-40.26a103.38,103.38,0,0,1,5.84-20.6c4.6-12.54,8.23-22.45-.08-40.55-2.63-5.72-5.31-11.06-7.91-16.22-9.76-19.38-17.47-34.69-11.73-50.19a.66.66,0,1,1,1.23.46c-5.53,15,2.06,30,11.68,49.13,2.6,5.18,5.29,10.52,7.93,16.27,8.54,18.59,4.64,29.24.12,41.56-2.23,6.07-4.54,12.36-5.77,20.34-3.75,24.21,3.33,39.34,3.4,39.49a.66.66,0,0,1-.3.88A.75.75,0,0,1,387.93,388.74Z" style="fill:#263238"></path><path d="M382.44,385.11s-6.15-9.26,2.73-14,10.65-.93,16.14-4.36S411,355,411.89,360.32s-5.4,8.34-3.16,10.77S393.81,389.29,382.44,385.11Z" style="fill:#263238"></path><path d="M367.94,228.52s-6-18.2,7.63-18.59S374.18,226.58,367.94,228.52Z" style="fill:#263238"></path><path d="M379.77,242.51s4.06-16.55,13.73-13.06S389.41,242.82,379.77,242.51Z" style="fill:#263238"></path><path d="M363.37,244s1.46-13.21-8.8-13.47S348.87,241.81,363.37,244Z" style="fill:#263238"></path><path d="M370.19,270.89s-13.76-12.27-18.72-3.14S361.86,278.79,370.19,270.89Z" style="fill:#263238"></path><path d="M394.55,268.71s2.59-20.38,13.71-14S404.24,270.75,394.55,268.71Z" style="fill:#263238"></path><path d="M404.34,297.9s-8.21-20.6,7-18.28S415.11,292.9,404.34,297.9Z" style="fill:#263238"></path><path d="M380.93,305.25s-12.88-15.18-22.73-10.37S356.4,314.79,380.93,305.25Z" style="fill:#263238"></path><path d="M392.62,338.88s11-24.37,20.74-16.16S407.13,343.22,392.62,338.88Z" style="fill:#263238"></path><path d="M376.67,337.45s2.9-18.9-8-17.38S360.69,333.15,376.67,337.45Z" style="fill:#263238"></path><g style="isolation:isolate;opacity:0.2"><path d="M367.94,228.52s-6-18.2,7.63-18.59S374.18,226.58,367.94,228.52Z" style="fill:#fff"></path><path d="M379.77,242.51s4.06-16.55,13.73-13.06S389.41,242.82,379.77,242.51Z" style="fill:#fff"></path><path d="M363.37,244s1.46-13.21-8.8-13.47S348.87,241.81,363.37,244Z" style="fill:#fff"></path><path d="M370.19,270.89s-13.76-12.27-18.72-3.14S361.86,278.79,370.19,270.89Z" style="fill:#fff"></path><path d="M394.55,268.71s2.59-20.38,13.71-14S404.24,270.75,394.55,268.71Z" style="fill:#fff"></path><path d="M404.34,297.9s-8.21-20.6,7-18.28S415.11,292.9,404.34,297.9Z" style="fill:#fff"></path><path d="M380.93,305.25s-12.88-15.18-22.73-10.37S356.4,314.79,380.93,305.25Z" style="fill:#fff"></path><path d="M392.62,338.88s11-24.37,20.74-16.16S407.13,343.22,392.62,338.88Z" style="fill:#fff"></path><path d="M376.67,337.45s2.9-18.9-8-17.38S360.69,333.15,376.67,337.45Z" style="fill:#fff"></path></g><path d="M373.83,253.47a.72.72,0,0,1-.32-.08c-8.06-4.52-13.86-13-14.1-13.4a.65.65,0,0,1,.18-.92.66.66,0,0,1,.91.18c.06.08,5.58,8.2,13.07,12.65,1.23-2.28,5.66-10.15,9.36-12.37a.66.66,0,0,1,.68,1.14c-3.93,2.35-9.14,12.34-9.19,12.45a.71.71,0,0,1-.4.32A.58.58,0,0,1,373.83,253.47Z" style="fill:#263238"></path><path d="M386.32,278.77a.63.63,0,0,1-.4-.14c-11.46-8.66-26.12-8.3-26.28-8.3a.68.68,0,0,1-.68-.64.67.67,0,0,1,.64-.68c.15,0,14.78-.37,26.53,8.14,1.53-2.45,7.43-11.32,15-15.77a.66.66,0,1,1,.67,1.14c-8.34,4.91-14.84,15.81-14.91,15.92a.62.62,0,0,1-.44.31Z" style="fill:#263238"></path><path d="M394.27,312.19a.63.63,0,0,1-.33-.09c-.17-.1-16.93-9.73-29-10a.66.66,0,0,1-.65-.67.68.68,0,0,1,.68-.65c11.54.23,26.58,8.41,29.27,9.92,7.77-6.55,13.95-22.65,14-22.82a.67.67,0,0,1,.86-.38.66.66,0,0,1,.38.85c-.27.7-6.56,17.08-14.77,23.66A.63.63,0,0,1,394.27,312.19Z" style="fill:#263238"></path><path d="M384.56,346.75a.72.72,0,0,1-.32-.08c-6.34-3.63-14.52-19.5-14.87-20.17a.68.68,0,0,1,.29-.89.67.67,0,0,1,.89.29c.08.16,7.91,15.34,13.85,19.32a37.78,37.78,0,0,1,18.42-11.77.66.66,0,1,1,.38,1.26c-12.26,3.68-18,11.68-18.1,11.76A.66.66,0,0,1,384.56,346.75Z" style="fill:#263238"></path><path d="M383.38,382.9s-5.27-8.39-11.22-9.58-8.52-8.05-10.72-3.93S365.31,387.19,383.38,382.9Z" style="fill:#263238"></path><polygon points="356.03 415.83 413.58 415.83 417.44 380.33 352.18 380.33 356.03 415.83" style="fill:#263238"></polygon><polygon points="356.03 415.83 413.58 415.83 417.44 380.33 352.18 380.33 356.03 415.83" style="fill:#fff;isolation:isolate;opacity:0.5"></polygon><polygon points="350.83 387.06 418.78 387.06 419.65 379.54 349.96 379.54 350.83 387.06" style="fill:#263238"></polygon><polygon points="350.83 387.06 418.78 387.06 419.65 379.54 349.96 379.54 350.83 387.06" style="fill:#fff;opacity:0.6000000000000001"></polygon></g><g id="freepik--Character--inject-3"><path d="M240.59,265.36c29.77,19,30.16,59.4,53.1,83.32l1,1c.08.08.06.07.07.09a1.32,1.32,0,0,0,.35.57c4.42,4.07,10.95,6.73,16.8,9.35,8.83,3.75,18.71,7.29,28,10.66,3.66,1.37,7.51,2.6,11.06,4.21a13.18,13.18,0,0,1-3.81,25.12c-3.77.46-7.66.88-11.42,1.05-22.63,1-52.47-.71-71.44-14.86-17.7-13.18-30.16-33.21-39.18-52.32-4.26-8.74-7.35-16.28-11.86-22.88-.42-.58-.77-1-.91-1.16s-.13-.2.09-.15a26.12,26.12,0,0,1,28.15-44Z" style="fill:#e9b376"></path><path d="M340.55,373.68l-4.22,14.48c1.25,15.79,21.28,10.67,21.28,10.67L373,401.15c3.6.49,7.12-2.11,8.33-6.13l3-10.1c1.38-4.6-.76-9.39-4.74-10.61l-13.67-3.64a16.43,16.43,0,0,0-8-.41Z" style="fill:#ebb376"></path><path d="M230.49,261c21.87,7.32,31.89,19.39,58.33,77.25,0,0-20.5,25.81-50.64,28.78S230.49,261,230.49,261Z" style="fill:#263238"></path><path d="M288.82,338.29a89.66,89.66,0,0,1-17.13,15.55c-8.62,6.07-20.1,11.91-33.51,13.23-8.94.88-13.26-8.1-14.9-21.16-3.89-31,7.21-84.87,7.21-84.87C252.35,268.36,262.37,280.43,288.82,338.29Z" style="fill:#fff;opacity:0.2"></path><path d="M271.69,353.84c-8.62,6.07-20.1,11.91-33.51,13.23-8.94.88-13.26-8.1-14.9-21.16,11-20.25,29.27-41.79,29.27-41.79S266.91,318.74,271.69,353.84Z" style="opacity:0.2"></path><path d="M88.63,411.57h184.2c.47-44-13.39-82.77-19.08-127.24-1.43-11.2-12.21-19.76-23.26-23.29-28.58-9.12-68.46-17.28-100.84-19.82C109,239.6,93.17,255.28,95,275.08,99.47,324.76,92.53,375.64,88.63,411.57Z" style="fill:#263238"></path><path d="M272.84,411.57H88.62c1.12-10.16,2.45-21.53,3.72-33.72,1.35-13.09,2.61-27.13,3.36-41.68A430.88,430.88,0,0,0,95,275.08c-1.79-19.8,14.05-35.48,34.7-33.86,32.37,2.54,72.25,10.7,100.83,19.82,11,3.53,21.83,12.09,23.25,23.29C259.44,328.8,273.31,367.57,272.84,411.57Z" style="fill:#fff;opacity:0.2"></path><path d="M198.64,273.78c-18.82-3.88-31.58-19.86-31.58-34.5a32.1,32.1,0,0,0,15.18-15.92,33,33,0,0,0,2.08-7.25l30.84,21.26c-3.42,4.62-4.95,8.88-5,13,3.58,2.62,5.71,8.3,5.83,11.7,0,.23,0,.47,0,.71C216.31,270,216.87,277.54,198.64,273.78Z" style="fill:#ebb376"></path><path d="M216,262.79c-28.06-2.9-33.08-27.05-33.77-39.43a33,33,0,0,0,2.08-7.25l30.84,21.26c-3.42,4.62-4.95,8.88-5,13,3.58,2.62,5.71,8.3,5.83,11.7C216,262.31,216,262.55,216,262.79Z" style="opacity:0.2"></path><path d="M199.77,274l-5-8.38-12.51,2.85S186.26,276.36,199.77,274Z" style="fill:#006994"></path><path d="M199.77,274l-5-8.38-12.51,2.85S186.26,276.36,199.77,274Z" style="fill:#fff;opacity:0.5"></path><path d="M167.85,237.34s7.44,22.58,26.93,28.28c-13.89,2.86-21.32,15.69-21.32,15.69s-22.81-10.46-16.37-38.58A37.54,37.54,0,0,1,167.85,237.34Z" style="fill:#006994"></path><path d="M199.77,274l12-5.91,9.7,6S209.09,281.79,199.77,274Z" style="fill:#006994"></path><path d="M199.77,274l12-5.91,9.7,6S209.09,281.79,199.77,274Z" style="fill:#fff;opacity:0.5"></path><path d="M210.16,250.38s4,11,1.6,17.71C220,273,218.69,288,218.69,288s9.91-19.54-.25-33.76C215.88,251,210.16,250.38,210.16,250.38Z" style="fill:#006994"></path><path d="M167.85,237.34s7.44,22.58,26.93,28.28c-13.89,2.86-21.32,15.69-21.32,15.69s-22.81-10.46-16.37-38.58A37.54,37.54,0,0,1,167.85,237.34Z" style="fill:#fff;opacity:0.7000000000000001"></path><path d="M210.16,250.38s4,11,1.6,17.71C220,273,218.69,288,218.69,288s9.91-19.54-.25-33.76C215.88,251,210.16,250.38,210.16,250.38Z" style="fill:#fff;opacity:0.7000000000000001"></path><path d="M252.47,184.29s18.45,25.49-6.47,40.42S236.57,173.33,252.47,184.29Z" style="fill:#263238"></path><path d="M191.12,187c-7.48,20.57-12.09,34.74-3.62,49.1,16.83,28.54,36.15,24.74,49.94,7.23,12.41-15.77,22.56-46.77,5.39-64.57C225.92,161.26,198.59,166.46,191.12,187Z" style="fill:#ebb376"></path><path d="M223.8,210.79c-.81,1.73-.54,3.56.6,4.07s2.72-.47,3.52-2.2.54-3.56-.6-4.07S224.6,209.06,223.8,210.79Z" style="fill:#263238"></path><path d="M241.51,219.56c-.81,1.73-.53,3.56.6,4.07s2.72-.47,3.52-2.2.54-3.56-.6-4.07S242.31,217.83,241.51,219.56Z" style="fill:#263238"></path><path d="M237.35,216l-6.88,14.52a17.55,17.55,0,0,0,5,2.61,2.1,2.1,0,0,0,2.55-2.71C236,224.88,237.35,216,237.35,216Z" style="fill:#d58745"></path><path d="M219.3,199.4a1.13,1.13,0,0,1-.39-.42,1.12,1.12,0,0,1,.47-1.51,11.25,11.25,0,0,1,10.28-.43,1.11,1.11,0,0,1,.45,1.52,1.14,1.14,0,0,1-1.53.45h0a9,9,0,0,0-8.14.42A1.16,1.16,0,0,1,219.3,199.4Z" style="fill:#263238"></path><path d="M253.06,215.88a1.14,1.14,0,0,1-.63-.86,8.82,8.82,0,0,0-4.43-6.76,1.11,1.11,0,0,1-.53-1.49,1.13,1.13,0,0,1,1.5-.53,11,11,0,0,1,5.7,8.47,1.13,1.13,0,0,1-1.61,1.17Z" style="fill:#263238"></path><path d="M234.5,240.56s-6.28-5.26-26.26-15.45c-.72,7.2,1.15,14.33,11.43,19.45S234.5,240.56,234.5,240.56Z" style="fill:#263238"></path><path d="M217.33,237.42c5,2.47,8,5.41,9.67,8.58a12.1,12.1,0,0,1-7.31-1.45c-5-2.47-7.95-5.37-9.65-8.57A12.09,12.09,0,0,1,217.33,237.42Z" style="fill:#a02724"></path><path d="M233.68,239.93c-1.22,1-2.44,2-4.65,1.38-4.31-1.84-14.36-8.45-16.91-10.51a6.3,6.3,0,0,1-3-5.24C224.47,233.43,231.47,238.28,233.68,239.93Z" style="fill:#fff"></path><path d="M193.52,208.82,177.37,199c2-40.36,23.61-35.54,23.61-35.54,6.43,2.38,10.81,9.39,11.76,14.22C212.66,195.36,193.52,208.82,193.52,208.82Z" style="fill:#263238"></path><path d="M173.25,204.65a22.13,22.13,0,0,0,8.51,14.73c6.27,4.7,12.3-.19,13-7.57.62-6.64-1.89-17.08-9.35-18.89S172.39,197.47,173.25,204.65Z" style="fill:#ebb376"></path><path d="M192.07,170.77s1.35-15.5,19.69-15.33c20.77.21,43.76,14,46.82,32.36s-17.48,9.87-17.48,9.87,3.68-.12,5.62-1.58c0,0-11.15.35-21.09-5.39,0,0,5.42.54,8-.9C233.67,189.8,200.93,184.78,192.07,170.77Z" style="fill:#263238"></path><path d="M237.27,277.49a7.37,7.37,0,0,0-1.19,2.75s-2.39,7.63,2,11.69,13.56-.56,13.57-5.53S240.44,273.35,237.27,277.49Z" style="fill:#006994"></path><path d="M237.27,277.49a7.37,7.37,0,0,0-1.19,2.75s-2.39,7.63,2,11.69,13.56-.56,13.57-5.53S240.44,273.35,237.27,277.49Z" style="fill:#fafafa;opacity:0.5"></path><path d="M251.8,285.91l-9,2.85a1.55,1.55,0,0,1-.93-3l5.33-1.69a8.08,8.08,0,0,0,3.37-2.07h0a8.35,8.35,0,0,0-4,.25L241.29,284a1.55,1.55,0,0,1-1.95-1h0a1.54,1.54,0,0,1,1-1.94l9-2.85a4,4,0,0,0-3.93-.87l-9.34,2.95a4.06,4.06,0,0,0-2.73,4.76l-38.74,12.24a2.37,2.37,0,0,0-1.54,3h0a2.37,2.37,0,0,0,3,1.54l38.73-12.25a4.06,4.06,0,0,0,5,2.33l9.34-2.95A4,4,0,0,0,251.8,285.91Z" style="fill:#263238"></path><path d="M251.8,285.91l-9,2.85a1.55,1.55,0,0,1-.93-3l5.33-1.69a8.08,8.08,0,0,0,3.37-2.07h0a8.35,8.35,0,0,0-4,.25L241.29,284a1.55,1.55,0,0,1-1.95-1h0a1.54,1.54,0,0,1,1-1.94l9-2.85a4,4,0,0,0-3.93-.87l-9.34,2.95a4.06,4.06,0,0,0-2.73,4.76l-38.74,12.24a2.37,2.37,0,0,0-1.54,3h0a2.37,2.37,0,0,0,3,1.54l38.73-12.25a4.06,4.06,0,0,0,5,2.33l9.34-2.95A4,4,0,0,0,251.8,285.91Z" style="fill:#fafafa;opacity:0.7000000000000001"></path><path d="M235.78,280.21s-.69-6.44,10.18-6.92c0,0,6.42-4.24,11.83,1.09s2.7,15.36-3.79,16.45c0,0,5.08,11.92-2.11,15.05,0,0,2,16.35-.73,25.38-1,3.33-.16,8.55.64,12.47,0,0-1.66,2.57-2.88,2.32s-.67-1.53-.67-1.53a35.46,35.46,0,0,1-.46-7s-3.35,1.1-4.72-.15-1.95-5.49-1.41-12.54,1.18-17.06-1.9-23.11-1.67-9.81-1.67-9.81,6-2.27,4-8.4S235.78,280.21,235.78,280.21Z" style="fill:#006994"></path><path d="M235.78,280.21s-.69-6.44,10.18-6.92c0,0,6.42-4.24,11.83,1.09s2.7,15.36-3.79,16.45c0,0,5.08,11.92-2.11,15.05,0,0,2,16.35-.73,25.38-1,3.33-.16,8.55.64,12.47,0,0-1.66,2.57-2.88,2.32s-.67-1.53-.67-1.53a35.46,35.46,0,0,1-.46-7s-3.35,1.1-4.72-.15-1.95-5.49-1.41-12.54,1.18-17.06-1.9-23.11-1.67-9.81-1.67-9.81,6-2.27,4-8.4S235.78,280.21,235.78,280.21Z" style="fill:#fafafa;opacity:0.6000000000000001"></path><g style="opacity:0.5"><path d="M240.09,293.92a.5.5,0,0,1-.11-1c.21-.05,5.08-1.26,4.66-8.22-.17-2.79-1-4.81-2.34-6a4.56,4.56,0,0,0-3.08-1.11.52.52,0,0,1-.55-.45.5.5,0,0,1,.45-.54,5.44,5.44,0,0,1,3.82,1.33c1.6,1.37,2.51,3.63,2.7,6.71.48,7.84-5.38,9.24-5.44,9.26Z" style="fill:#fff"></path></g><g style="opacity:0.5"><path d="M245.16,293.39a.49.49,0,0,1-.47-.35.5.5,0,0,1,.32-.63c1.31-.42,3.1-5.25,2.68-10-.21-2.42-1.22-6.58-5.59-7.18a.51.51,0,0,1-.43-.57.5.5,0,0,1,.57-.42c3.74.52,6,3.39,6.45,8.08s-1.28,10.32-3.37,11Z" style="fill:#fff"></path></g><g style="opacity:0.5"><path d="M248.25,292.6a.49.49,0,0,1-.43-.26.5.5,0,0,1,.19-.68c1.93-1.07,3.13-4.7,2.92-8.81-.17-3.14-1.24-6.88-3.77-8a.5.5,0,0,1,.4-.92c2.94,1.25,4.19,5.38,4.37,8.82.19,3.79-.79,8.27-3.43,9.74A.54.54,0,0,1,248.25,292.6Z" style="fill:#fff"></path></g><g style="opacity:0.5"><path d="M249.49,305.55c-6.69,0-8-9.34-8-9.43a.49.49,0,0,1,.43-.56.5.5,0,0,1,.56.43c0,.09,1.19,8.56,7,8.56a2.67,2.67,0,0,0,2.26-1c2.34-3,.25-11.2.23-11.29a.5.5,0,0,1,1-.25c.09.36,2.22,8.75-.4,12.15A3.68,3.68,0,0,1,249.49,305.55Z" style="fill:#fff"></path></g><g style="opacity:0.5"><path d="M248.59,301.91a2.56,2.56,0,0,1-1.38-.41c-2-1.25-2.52-5-2.54-5.18a.5.5,0,0,1,1-.14c.14,1,.78,3.64,2.09,4.47a1.59,1.59,0,0,0,1.4.17,1.7,1.7,0,0,0,1-.89c.93-1.91-.51-5.74-.52-5.77a.5.5,0,0,1,.29-.65.49.49,0,0,1,.64.29c.07.17,1.61,4.27.49,6.57a2.66,2.66,0,0,1-1.65,1.41A3.25,3.25,0,0,1,248.59,301.91Z" style="fill:#fff"></path></g><g style="opacity:0.5"><path d="M251.8,291.41a.49.49,0,0,1-.39-.19.51.51,0,0,1,.09-.71c3.64-2.77,2.51-8.73,2.07-10.5-.87-3.55-2.51-5.94-3.53-6.11a.5.5,0,0,1,.17-1c1.9.33,3.58,3.79,4.33,6.87,1.26,5.1.35,9.41-2.43,11.53A.5.5,0,0,1,251.8,291.41Z" style="fill:#fff"></path></g><g style="opacity:0.5"><path d="M247.86,308.58a3.93,3.93,0,0,1-1.06-.15c-4.26-1.19-7.44-9.33-7.57-9.67a.5.5,0,0,1,.29-.65.49.49,0,0,1,.64.29c0,.08,3.13,8,6.91,9.07a3,3,0,0,0,2.76-.64.5.5,0,0,1,.61.79A4.16,4.16,0,0,1,247.86,308.58Z" style="fill:#fff"></path></g><g style="opacity:0.5"><path d="M245.23,336.45a2.09,2.09,0,0,1-.42-.05c-3.16-.72-2.59-8.19-2-16.1.34-4.45.69-9.05.24-11.75a.51.51,0,0,1,.41-.58.51.51,0,0,1,.58.42c.46,2.82.13,7.27-.23,12-.49,6.47-1.1,14.52,1.21,15,1,.24,1.55-1.61,1.55-1.62a.5.5,0,0,1,.61-.36.49.49,0,0,1,.36.6C247.32,334.93,246.56,336.45,245.23,336.45Z" style="fill:#fff"></path></g><g style="opacity:0.5"><path d="M249.25,342.84a.51.51,0,0,1-.5-.43c0-.2-.68-5,.9-13s.86-19.34.85-19.46a.5.5,0,0,1,.47-.53.5.5,0,0,1,.53.47c0,.12.7,11.73-.87,19.71a42.54,42.54,0,0,0-.89,12.69.51.51,0,0,1-.42.57Z" style="fill:#fff"></path></g><g style="opacity:0.5"><path d="M246.11,332.29a1.54,1.54,0,0,1-.58-.12c-1.33-.58-1-3.86-.06-11.21.54-4,1.1-8.21.79-10.19a.49.49,0,0,1,.41-.57.5.5,0,0,1,.57.42c.34,2.12-.23,6.37-.78,10.47-.48,3.62-1.29,9.67-.53,10.16a.39.39,0,0,0,.45-.07c2.24-1.7,3.18-15.55,2.51-20.42a.5.5,0,0,1,.43-.56.49.49,0,0,1,.57.42c.58,4.26,0,19.16-2.9,21.36A1.45,1.45,0,0,1,246.11,332.29Z" style="fill:#fff"></path></g><g style="opacity:0.5"><path d="M255.64,289.43a.52.52,0,0,1-.38-.17.51.51,0,0,1,.05-.71c.13-.1,3-2.58,2.48-8.18-.46-5.45-4.34-6.05-4.5-6.07a.5.5,0,0,1-.43-.56.49.49,0,0,1,.56-.43c.05,0,4.84.69,5.37,7,.52,6.14-2.69,8.91-2.83,9A.48.48,0,0,1,255.64,289.43Z" style="fill:#fff"></path></g><g style="opacity:0.5"><path d="M249,298.64c-1.42,0-2.24-2.6-2.39-3.14a.49.49,0,0,1,.34-.62.5.5,0,0,1,.62.34c.34,1.2,1,2.49,1.46,2.42a.5.5,0,0,1,.58.41.49.49,0,0,1-.41.57A.71.71,0,0,1,249,298.64Z" style="fill:#fff"></path></g><path d="M237.72,274.78c-1.49,1.92,1,4.07,3.77,3.38s4.53-.75,5.37,1.77,1.51,4.38,3.27,3.34,3.41-2.94,4.85-1.11,7.19-.07,5.7-5.06-6.29-7.32-9.61-6.26-4.55,2.75-7,2.46S238.81,273.39,237.72,274.78Z" style="fill:#006994"></path><path d="M249.1,276.34s.08-1.62,1-1.39a6.12,6.12,0,0,1,1.82.89s-.13,1.34-.55,1.24S249.9,277.2,249.1,276.34Z" style="fill:#263238"></path><path d="M253.85,273.3c-.7-.68,1.31-.81,1.79-.55S254.56,274,253.85,273.3Z" style="fill:#263238"></path><path d="M256.31,279.24c-.42-1.05,1.17-1.13,1.33,0S256.91,280.73,256.31,279.24Z" style="fill:#263238"></path><path d="M170.6,302.05l1,15.05c6.56,14.42,23.64,2.79,23.64,2.79l10.48-2.27c3.55-.77,6-4.41,5.75-8.6l-.6-10.53c-.27-4.8-3.91-8.57-8.07-8.36l-9.34.46a16.55,16.55,0,0,0-7.7,2.35Z" style="fill:#ebb376"></path><path d="M162.56,334.9s-35.42,39.2-70.22,43c1.35-13.09,2.61-27.13,3.36-41.68,21.89-22.65,51.47-46.05,51.47-46.05a55.26,55.26,0,0,1,0,36.22C140.41,346.3,162.56,334.9,162.56,334.9Z" style="opacity:0.2"></path><path d="M139,288.71c-9.78,14.39-20.84,29-28.33,44.61l-1,2.39c-.26.52-.31.67-.47-.18a18.86,18.86,0,0,0-.57-2.26c-1.63-5.22-6.89-10.53-12.07-11.29-1.45-.17-1.26.1-.72.18,5.17.34,10.6-1.1,16-2.25,6.46-1.56,13.23-3.5,20-5.61,13.67-4.18,28.32-9.32,42-13.68,13.92-4,23.05,13.74,12,22.82A312.19,312.19,0,0,1,147,349.22c-12.66,7-26.15,13.78-40.68,17.25-9.22,2.06-19.27,2.79-29.07-2.43-9.72-5.05-15.5-16-16-26.57-1.37-23.69,15.88-52.06,28.91-70.83,2.06-2.82,5.21-7.12,7.44-9.78,22.29-25.41,60.22,3.92,41.41,31.85Z" style="fill:#e9b376"></path><path d="M125.37,241.31c-34,0-63.92,67.6-63.92,67.6s7.94,9.5,34.74,15.53c0,0,33.53-8.95,40.26-12.34s16.22-37.42,6.72-56.63C136.27,241.51,125.37,241.31,125.37,241.31Z" style="fill:#263238"></path><path d="M125.37,241.31c-34,0-63.92,67.6-63.92,67.6s7.94,9.5,34.74,15.53c0,0,33.53-8.95,40.26-12.34s16.22-37.42,6.72-56.63C136.27,241.51,125.37,241.31,125.37,241.31Z" style="fill:#fff;opacity:0.2"></path></g><g id="freepik--Drink--inject-3"><path d="M359.09,328H326.3s-5.05,18.3.16,30.25,4,42.42,4,42.42H355s-1.25-30.48,4-42.42S359.09,328,359.09,328Z" style="fill:#006994"></path><path d="M359.09,328H326.3s-5.05,18.3.16,30.25,4,42.42,4,42.42H355s-1.25-30.48,4-42.42S359.09,328,359.09,328Z" style="fill:#fafafa;opacity:0.6000000000000001"></path><path d="M326.16,342.54c-.21,5,.19,10.44,2.13,14.88,4.59,10.51,4.37,34,4.19,41.22h20.44c-.18-7.19-.4-30.71,4.18-41.22,1.94-4.44,2.34-9.9,2.14-14.88Z" style="fill:#006994"></path><rect x="330.29" y="340.77" width="7.55" height="7.55" rx="1.12" transform="translate(-138.8 426.47) rotate(-55.71)" style="fill:#fafafa"></rect><rect x="338.92" y="345.63" width="7.55" height="7.55" rx="1.12" transform="translate(-104.65 150.91) rotate(-21.63)" style="fill:#fafafa"></rect><rect x="348.04" y="342.06" width="7.55" height="7.55" rx="1.12" transform="translate(255.96 -138.1) rotate(34.29)" style="fill:#fafafa"></rect><path d="M340,397.34a1,1,0,0,1-1-.84l-10.65-68.27a5.71,5.71,0,0,0-3.24-4.29l-11.95-5.52a1,1,0,0,1,.84-1.81l12,5.52a7.69,7.69,0,0,1,4.38,5.79l10.65,68.27a1,1,0,0,1-.84,1.14Z" style="fill:#263238"></path><g style="opacity:0.6000000000000001"><path d="M328.25,328l.06.26L339,396.5a1,1,0,0,0,1,.84h.15a1,1,0,0,0,.84-1.14L330.29,328Z" style="fill:#fafafa"></path></g><path d="M326.16,342.54c-.21,5,.19,10.44,2.13,14.88,4.59,10.51,4.37,34,4.19,41.22h20.44c-.18-7.19-.4-30.71,4.18-41.22,1.94-4.44,2.34-9.9,2.14-14.88Z" style="fill:#006994;opacity:0.6000000000000001"></path><path d="M350.53,329.29h7.75s2.09,10.29,1.85,18.33-3,10.74-4.22,17.1S354,399.8,354,399.8h-5.26s.21-30.36,2.44-39.95C354.47,345.83,350.53,329.29,350.53,329.29Z" style="fill:#fafafa;opacity:0.2"></path></g><g id="freepik--Pasta--inject-3"><path d="M200.52,385.45s.26-15.12,25-15.6c0,0,5.14-15.64,24.27-19.2,23.65-4.41,34.55,11.35,34.55,11.35s12.92-2.65,24.26,1.31,12.92,13.22,12.92,13.22,9.76,2.05,7.39,8.92S235.59,398.62,200.52,385.45Z" style="fill:#006994"></path><path d="M200.52,385.45s.26-15.12,25-15.6c0,0,5.14-15.64,24.27-19.2,23.65-4.41,34.55,11.35,34.55,11.35s12.92-2.65,24.26,1.31,12.92,13.22,12.92,13.22,9.76,2.05,7.39,8.92S235.59,398.62,200.52,385.45Z" style="fill:#fafafa;opacity:0.6000000000000001"></path><path d="M230.53,360.22c-1,1-.71,1.81.58,2.37,2.23,1,5,0,7.15-.67a50.06,50.06,0,0,1,4.93-1.24c1.81-.37,3.88-.59,5.34.54a4.57,4.57,0,0,1,1.6,3.08,11.81,11.81,0,0,1-.27,3.55,11.2,11.2,0,0,0-.33,2.76,3.26,3.26,0,0,0,1.14,2.45,3.54,3.54,0,0,0,3.38.23c1.11-.41,2.07-1.13,3.14-1.64a13.53,13.53,0,0,1,2.57-.91,11.17,11.17,0,0,1,4.41-.45,9.25,9.25,0,0,1,3.6,1.69c.81.49,1.48,1.16,2.23,1.72a11.56,11.56,0,0,1,2.35,2.23,16.16,16.16,0,0,0,1,1.31,5.68,5.68,0,0,0,5.93,1.24,8.36,8.36,0,0,0,4.05-3.35,14.92,14.92,0,0,1,2.37-3.31,6.49,6.49,0,0,1,5.1-1.31,11,11,0,0,0,2.06.16,2,2,0,0,0,1.69-1c.75-1.64-1.06-1.63-1.78-2.55a1.68,1.68,0,0,1,.2-1.91c1.76-2.59,5.78-2,8.5-2.18.8-.05,3.41.12,3.58-.95.24-1.46-3.53-1.46-4.47-1.57a51.44,51.44,0,0,0-6.2-.36,58.09,58.09,0,0,0-9.56.78c-1.9-2.42-10.46-12-26.86-12a45.35,45.35,0,0,0-8.31.8,33.45,33.45,0,0,0-18.85,10.17A1.56,1.56,0,0,1,230.53,360.22Z" style="fill:#006994"></path><g style="opacity:0.5"><path d="M206.45,385.7a.5.5,0,0,1-.49-.4,8.88,8.88,0,0,1,1.75-7.58c2.94-3.53,8.78-5.23,17.35-5,7.74.18,15.5,2.48,23,4.71,9,2.68,17.53,5.21,24.32,3.35,1.11-.31,2.47-.88,2.59-1.86.15-1.25-1.64-3.07-4.66-4.73-7-3.84-20.61-6.81-27.82-1a.49.49,0,0,1-.7-.07.52.52,0,0,1,.07-.71c7.65-6.19,21.53-3.21,28.94.88,2.05,1.13,5.44,3.38,5.16,5.73-.15,1.23-1.26,2.14-3.32,2.7-7.06,1.94-15.71-.63-24.86-3.35-7.45-2.21-15.15-4.5-22.76-4.67-8.13-.19-13.86,1.42-16.55,4.66a7.91,7.91,0,0,0-1.54,6.74.5.5,0,0,1-.38.59Z" style="fill:#fff"></path><path d="M209.16,387.3a.51.51,0,0,1-.47-.31,8.19,8.19,0,0,1,.29-6.3c1.22-2.42,3.77-4.14,7.57-5.11,9.72-2.48,24.77,2.33,34.72,5.52,1.25.4,2.44.78,3.53,1.11,7.65,2.38,17.77,3.57,21.93.58a4.15,4.15,0,0,0,1.85-3.47c.08-3-5.32-7.25-12.56-9.9-9-3.28-20.65-4.13-26.61,3.3a.5.5,0,0,1-.7.08.52.52,0,0,1-.08-.71c6.29-7.84,18.45-7,27.74-3.61,7.87,2.88,13.3,7.35,13.21,10.86a5.21,5.21,0,0,1-2.26,4.27c-4.47,3.2-14.68,2.08-22.82-.44L251,382.05c-9.84-3.15-24.72-7.9-34.16-5.5-3.51.89-5.83,2.43-6.92,4.58a7.27,7.27,0,0,0-.26,5.48.5.5,0,0,1-.28.65A.39.39,0,0,1,209.16,387.3Z" style="fill:#fff"></path><path d="M271,379.93a.51.51,0,0,1-.5-.43s-.62-3-7.78-5.53c-11-3.86-16.69.43-16.93.61a.5.5,0,0,1-.7-.09.5.5,0,0,1,.08-.7c2.32-1.8,8.69-4,17.88-.77,7.83,2.74,8.42,6.19,8.44,6.34a.5.5,0,0,1-.42.56Z" style="fill:#fff"></path><path d="M266.32,379.93a.49.49,0,0,1-.47-.34c-.46-1.37-1.72-2.45-3.75-3.22-4.42-1.68-11.25-1.25-12.44-.56a.5.5,0,0,1-.68-.19.5.5,0,0,1,.18-.68c1.56-.9,8.71-1.25,13.3.49,2.32.88,3.78,2.17,4.33,3.84a.49.49,0,0,1-.31.63A.45.45,0,0,1,266.32,379.93Z" style="fill:#fff"></path><path d="M286.79,386.65a.47.47,0,0,1-.35-.15.49.49,0,0,1,0-.7c5.39-5.3,20.5-10,32.66-8.25,4,.56,6.67,1.85,7.92,3.85a4.74,4.74,0,0,1,.6,3.72.5.5,0,0,1-.95-.31,3.7,3.7,0,0,0-.51-2.9c-1.08-1.7-3.57-2.86-7.19-3.37-11.89-1.67-26.6,2.84-31.83,8A.46.46,0,0,1,286.79,386.65Z" style="fill:#fff"></path><path d="M289.17,388.21a.49.49,0,0,1-.37-.16.5.5,0,0,1,0-.71c.31-.28,7.67-7,22.29-7.52,8.47-.28,11.79,1.45,13.09,3a3.17,3.17,0,0,1,.86,2.5.5.5,0,1,1-1-.18,2.21,2.21,0,0,0-.67-1.71c-1.17-1.33-4.26-2.86-12.27-2.58-14.22.48-21.56,7.19-21.63,7.26A.5.5,0,0,1,289.17,388.21Z" style="fill:#fff"></path><path d="M291.92,388.93a.51.51,0,0,1-.42-.23.5.5,0,0,1,.15-.69c.09-.06,9.43-6,20.24-5.53,9.63.44,10.27,3.29,10.31,3.61a.5.5,0,0,1-.43.56.49.49,0,0,1-.56-.43s-.64-2.34-9.37-2.74c-10.47-.48-19.56,5.31-19.65,5.37A.5.5,0,0,1,291.92,388.93Z" style="fill:#fff"></path><path d="M212.81,388.53a.52.52,0,0,1-.41-.22,7.09,7.09,0,0,1-1-5.14,6.61,6.61,0,0,1,3.48-4.18c7.17-4.05,19.41-.7,31.57,3.53,14.19,4.94,30.66,7.62,34.3.34a7.16,7.16,0,0,0-.26-7.05c-3.17-5.65-12.54-9.94-23.87-10.92-16.57-1.43-20.23,6.73-20.26,6.81a.51.51,0,0,1-.65.27.49.49,0,0,1-.27-.65c.15-.37,3.9-8.92,21.27-7.42,11.65,1,21.33,5.49,24.65,11.42a8.19,8.19,0,0,1,.28,8c-5.07,10.14-30.48,1.91-35.52.15-11.94-4.15-23.92-7.46-30.74-3.6a5.63,5.63,0,0,0-3,3.53,6.15,6.15,0,0,0,.89,4.36.51.51,0,0,1-.13.69A.52.52,0,0,1,212.81,388.53Z" style="fill:#fff"></path><path d="M262.36,379.93a.48.48,0,0,1-.36-.16c-2-2.16-7.89-2.21-7.95-2.21a.5.5,0,0,1-.49-.5.51.51,0,0,1,.5-.5c.26,0,6.36.06,8.67,2.53a.49.49,0,0,1,0,.7A.52.52,0,0,1,262.36,379.93Z" style="fill:#fff"></path><path d="M283.33,384.51a.48.48,0,0,1-.45-.29.49.49,0,0,1,.24-.66c.12-.06,12.12-5.73,12.87-12.44.18-1.61-.32-2.55-1.47-2.82-3-.71-9.11,3.06-10.72,7.52a.5.5,0,1,1-.94-.34c1.8-5,8.44-9,11.89-8.16,1,.23,2.55,1,2.23,3.91-.81,7.27-12.92,13-13.44,13.24A.52.52,0,0,1,283.33,384.51Z" style="fill:#fff"></path><path d="M284.42,381.31a.5.5,0,0,1-.29-.9c3.3-2.33,8.36-6.67,7.91-8.41-.08-.32-.2-.34-.26-.35-1.23-.18-5,3.59-6.94,6.57a.5.5,0,0,1-.69.15.51.51,0,0,1-.15-.7c1.43-2.21,5.73-7.37,7.94-7a1.32,1.32,0,0,1,1.07,1.09c.74,2.92-6.79,8.4-8.3,9.47A.52.52,0,0,1,284.42,381.31Z" style="fill:#fff"></path><path d="M296.52,378.45a.51.51,0,0,1-.33-.13.5.5,0,0,1,0-.71c2.16-2.44,4-6.07,3.38-8.64a4.51,4.51,0,0,0-3.18-3c-5.1-1.82-11.94,1.89-14.07,7.64a.49.49,0,0,1-.64.29.5.5,0,0,1-.3-.64c2.31-6.22,9.77-10.22,15.35-8.23a5.45,5.45,0,0,1,3.81,3.71c.8,3.13-1.44,7.1-3.6,9.56A.52.52,0,0,1,296.52,378.45Z" style="fill:#fff"></path><path d="M301.33,377.16a.49.49,0,0,1-.3-.1.51.51,0,0,1-.1-.7c0-.05,3.92-5.29,2.38-8.94-.79-1.89-2.95-3.07-6.39-3.52-12.52-1.61-16.62,7.08-16.79,7.45a.51.51,0,0,1-.66.25.5.5,0,0,1-.25-.67c0-.09,4.55-9.72,17.82-8,3.83.49,6.25,1.88,7.19,4.12,1.77,4.18-2.32,9.7-2.5,9.93A.51.51,0,0,1,301.33,377.16Z" style="fill:#fff"></path><path d="M305.58,376.15a.49.49,0,0,1-.28-.09.5.5,0,0,1-.13-.69c1.82-2.61,2.45-5.34,1.78-7.69a6.14,6.14,0,0,0-3.44-4,.49.49,0,0,1-.26-.65.48.48,0,0,1,.65-.26,7.15,7.15,0,0,1,4,4.65c.75,2.65.06,5.68-1.93,8.54A.48.48,0,0,1,305.58,376.15Z" style="fill:#fff"></path><path d="M309.44,375.19a.47.47,0,0,1-.28-.09.49.49,0,0,1-.13-.69,7.2,7.2,0,0,0-.29-9.08.51.51,0,0,1,0-.71.5.5,0,0,1,.71,0,8.31,8.31,0,0,1,.37,10.32A.47.47,0,0,1,309.44,375.19Z" style="fill:#fff"></path><path d="M313.2,375.19a.52.52,0,0,1-.29-.09.5.5,0,0,1-.12-.7c2.23-3.09,0-7,0-7.08a.5.5,0,1,1,.86-.5c.11.18,2.57,4.56,0,8.16A.51.51,0,0,1,313.2,375.19Z" style="fill:#fff"></path><path d="M316.36,375.61a.44.44,0,0,1-.24-.07.49.49,0,0,1-.19-.68,5.35,5.35,0,0,0,0-4.78l.44-.23h0l.39-.32a6.29,6.29,0,0,1,.05,5.84A.5.5,0,0,1,316.36,375.61Zm.13-5.29h0Z" style="fill:#fff"></path><path d="M233.49,371.38a.41.41,0,0,1-.19,0,.49.49,0,0,1-.28-.64c.14-.35,3.51-8.55,15.51-10.56,2.54-.42,2.84-.94,2.84-.95-.14-.23-1.78-.88-4.85-.69-2.76.17-12,1.52-15.33,11.59a.5.5,0,1,1-.95-.31c3.48-10.56,13.8-13.06,19.49-12.16,1.7.27,2.63.84,2.64,1.6s-1.17,1.49-3.67,1.91C237.24,363,234,371,234,371.06A.5.5,0,0,1,233.49,371.38Z" style="fill:#fff"></path><path d="M228.44,369.88h-.1a.5.5,0,0,1-.39-.59c.88-4.08,8.67-17.56,23.53-14.67,4.39.85,5.06,2.8,5.06,3.88,0,1.93-1.92,3.68-3.67,4.05a.5.5,0,0,1-.2-1c1.34-.28,2.88-1.68,2.87-3.07s-1.52-2.37-4.25-2.9c-13.93-2.71-21.56,10.19-22.36,13.9A.5.5,0,0,1,228.44,369.88Z" style="fill:#fff"></path><path d="M256.93,362.55a.48.48,0,0,1-.45-.28.5.5,0,0,1,.22-.67c.13-.06,3.18-1.62,2.31-4.63-1.11-3.9-6.46-3.86-9.66-3.85h-.54a.51.51,0,0,1-.5-.5.5.5,0,0,1,.5-.5h.53c3.25,0,9.31-.05,10.64,4.57.87,3.06-1.47,5.14-2.83,5.81A.63.63,0,0,1,256.93,362.55Z" style="fill:#fff"></path><path d="M260.78,363a.5.5,0,0,1-.32-.88c2-1.73,2.79-3.66,2.2-5.59-.78-2.6-3.83-4.64-6.19-4.91a.51.51,0,0,1-.44-.56.5.5,0,0,1,.56-.43c2.65.31,6.1,2.54,7,5.61.5,1.63.46,4.11-2.51,6.64A.52.52,0,0,1,260.78,363Z" style="fill:#fff"></path><path d="M263.75,363.71a.5.5,0,0,1-.35-.86c2.06-2.06,3-4.07,2.81-6a6.63,6.63,0,0,0-2.73-4.31.49.49,0,0,1-.15-.69.5.5,0,0,1,.69-.15,7.53,7.53,0,0,1,3.19,5c.23,2.24-.82,4.53-3.11,6.81A.49.49,0,0,1,263.75,363.71Z" style="fill:#fff"></path><path d="M266.88,364.72a.49.49,0,0,1-.4-.8c4.36-5.59,1.63-10.4,1.6-10.45a.51.51,0,0,1,.18-.68.51.51,0,0,1,.69.18s3.09,5.45-1.68,11.56A.48.48,0,0,1,266.88,364.72Z" style="fill:#fff"></path><path d="M270.15,365.49a.52.52,0,0,1-.29-.09.51.51,0,0,1-.11-.7,12.41,12.41,0,0,0,2-9.85.51.51,0,0,1,.35-.62.5.5,0,0,1,.61.35,13.18,13.18,0,0,1-2.11,10.7A.49.49,0,0,1,270.15,365.49Z" style="fill:#fff"></path><path d="M272.52,366.6a.46.46,0,0,1-.32-.11.51.51,0,0,1-.07-.71c3.1-3.75,2.86-8.87,2.86-8.92a.5.5,0,0,1,.47-.53.5.5,0,0,1,.53.47,15.17,15.17,0,0,1-3.09,9.62A.49.49,0,0,1,272.52,366.6Z" style="fill:#fff"></path><path d="M278,369.88a.48.48,0,0,1-.2,0,.5.5,0,0,1-.26-.66,13.42,13.42,0,0,1,5.57-6,.5.5,0,1,1,.46.89,12.57,12.57,0,0,0-5.11,5.51A.5.5,0,0,1,278,369.88Z" style="fill:#fff"></path><path d="M274.43,367.57a.5.5,0,0,1-.39-.82s3.76-4.73,3.95-8.06a.49.49,0,0,1,.52-.47.5.5,0,0,1,.47.53c-.2,3.64-4,8.43-4.16,8.63A.51.51,0,0,1,274.43,367.57Z" style="fill:#fff"></path><path d="M276.46,368.75a.48.48,0,0,1-.26-.07A.5.5,0,0,1,276,368c.12-.21,3-5.05,4.88-6.89a.5.5,0,0,1,.69.72c-1.81,1.75-4.68,6.63-4.71,6.68A.49.49,0,0,1,276.46,368.75Z" style="fill:#fff"></path><path d="M260.91,391.76a.43.43,0,0,1-.19,0c-.33-.13-32.63-13.73-41.05-11-2.73.9-4.34,2.12-4.65,3.51-.39,1.75,1.3,3.38,1.32,3.39a.5.5,0,0,1-.69.73c-.08-.08-2.12-2-1.61-4.33.4-1.79,2.19-3.22,5.31-4.25,8.78-2.89,40.42,10.42,41.76,11a.5.5,0,0,1,.26.66A.49.49,0,0,1,260.91,391.76Z" style="fill:#fff"></path><path d="M253.27,391.76a.58.58,0,0,1-.19,0c-7.71-3.09-28.6-10.6-32.67-8.31-.94.53-2.07,1.36-2,2.29s1.47,2,2,2.27a.5.5,0,0,1-.44.9c-.11-.05-2.53-1.27-2.58-3.14,0-1.15.83-2.23,2.55-3.2,5.32-3,32.38,7.8,33.53,8.26a.5.5,0,0,1,.28.65A.51.51,0,0,1,253.27,391.76Z" style="fill:#fff"></path><path d="M243.89,391.76a.53.53,0,0,1-.3-.09c-5.74-4.22-19.5-7.09-21.18-6.05-.48.3-.47.54-.47.61,0,.56,1,1.37,1.64,1.77a.5.5,0,0,1-.5.86c-.22-.12-2.12-1.27-2.14-2.61a1.7,1.7,0,0,1,.94-1.48c2.42-1.51,16.82,2.06,22.3,6.09a.5.5,0,0,1-.29.9Z" style="fill:#fff"></path><path d="M263.75,392.94a.5.5,0,0,1-.18-1c.74-.29,18.22-7.05,28.57-2.18a.5.5,0,0,1-.43.91c-9.95-4.69-27.6,2.13-27.78,2.21Z" style="fill:#fff"></path><path d="M237.69,390.75a.51.51,0,0,1-.17,0c-9.71-3.4-10.71-2.47-10.75-2.42a.49.49,0,0,1-.16.68.48.48,0,0,1-.67-.18,1,1,0,0,1,.05-1.13c.36-.44,1.3-1.6,11.86,2.1a.51.51,0,0,1,.31.64A.5.5,0,0,1,237.69,390.75Z" style="fill:#fff"></path><path d="M294.8,390.18a.5.5,0,0,1-.18-1c.72-.29,17.65-6.88,23.47-2a.5.5,0,0,1,.05.71.49.49,0,0,1-.7,0c-5.37-4.55-22.28,2.05-22.45,2.12A.63.63,0,0,1,294.8,390.18Z" style="fill:#fff"></path><path d="M203,385.4a.5.5,0,0,1-.5-.49c0-.19-.07-4.85,2.77-7.06a.5.5,0,1,1,.61.79c-2.43,1.9-2.38,6.21-2.38,6.25a.49.49,0,0,1-.49.51Z" style="fill:#fff"></path></g><path d="M230.53,360.22c-1,1-.71,1.81.58,2.37,2.23,1,5,0,7.15-.67a50.06,50.06,0,0,1,4.93-1.24c1.81-.37,3.88-.59,5.34.54a4.57,4.57,0,0,1,1.6,3.08,11.81,11.81,0,0,1-.27,3.55,11.2,11.2,0,0,0-.33,2.76,3.26,3.26,0,0,0,1.14,2.45,3.54,3.54,0,0,0,3.38.23c1.11-.41,2.07-1.13,3.14-1.64a13.53,13.53,0,0,1,2.57-.91,11.17,11.17,0,0,1,4.41-.45,9.25,9.25,0,0,1,3.6,1.69c.81.49,1.48,1.16,2.23,1.72a11.56,11.56,0,0,1,2.35,2.23,16.16,16.16,0,0,0,1,1.31,5.68,5.68,0,0,0,5.93,1.24,8.36,8.36,0,0,0,4.05-3.35,14.92,14.92,0,0,1,2.37-3.31,6.49,6.49,0,0,1,5.1-1.31,11,11,0,0,0,2.06.16,2,2,0,0,0,1.69-1c.75-1.64-1.06-1.63-1.78-2.55a1.68,1.68,0,0,1,.2-1.91c1.76-2.59,5.78-2,8.5-2.18.8-.05,3.41.12,3.58-.95.24-1.46-3.53-1.46-4.47-1.57a51.44,51.44,0,0,0-6.2-.36,58.09,58.09,0,0,0-9.56.78c-1.9-2.42-10.46-12-26.86-12a45.35,45.35,0,0,0-8.31.8,33.45,33.45,0,0,0-18.85,10.17A1.56,1.56,0,0,1,230.53,360.22Z" style="fill:#006994;opacity:0.6000000000000001"></path><path d="M281.31,369.35a3.86,3.86,0,1,1-7.72,0c0-.13,0-.26,0-.39h0a3.86,3.86,0,0,1,5.83-2.91h0A3.86,3.86,0,0,1,281.31,369.35Z" style="fill:#263238"></path><path d="M280.26,368a4.83,4.83,0,0,1-.68-.74c-.21-.2-.26-.64-.72-.62s-.1-.12-.73-.1-.83-.52-.19-.5a12,12,0,0,0,1.25.06l0,0h0l-.15-.08,0,0-.1,0a4.79,4.79,0,0,0-.81-.2H278l-.09,0a3,3,0,0,1-.67.17,1.14,1.14,0,0,1-.62-.15l-.1-.06h0a.62.62,0,0,1-.27.05,3.94,3.94,0,0,0-1.44.88h0a1,1,0,0,1-.14.57.85.85,0,0,1-.4.35l-.18.08,0,0c0,.05,0,.12-.07.18a.11.11,0,0,0,0,.05,1.55,1.55,0,0,0,0,.21h0l0,.2a1.14,1.14,0,0,1-.08.33s0,0,0,0,0,.29,0,.43a1.05,1.05,0,0,0,0,.19.66.66,0,0,1,.15,0,.53.53,0,0,1,.35.15.34.34,0,0,1,.1.16.39.39,0,0,1,0,.38.37.37,0,0,1-.1.17l0,0a2.26,2.26,0,0,0-.16.26.74.74,0,0,0,.37.53,4.83,4.83,0,0,0,1.09.5c.54.24.74-.7,1.33-.21s0,1,.89.64.41.19.89-.34.76-.59.85-.59.09-.12.24-.56.69-.68.3-1.18-.46-.48-.95-.39-1.23-.1-.54-.2a9.67,9.67,0,0,0,1.63-.2C280.26,368.25,280.6,368.2,280.26,368Z" style="fill:#fafafa;opacity:0.1"></path><path d="M251.72,363.14a3.86,3.86,0,1,1-4.05-6.57,3.9,3.9,0,0,1,.35-.19h0a3.87,3.87,0,0,1,5,1.46,3.79,3.79,0,0,1,.58,2s0,0,0,0A3.86,3.86,0,0,1,251.72,363.14Z" style="fill:#263238"></path><path d="M252.35,361.52a4.79,4.79,0,0,1,.28-1c.06-.28.41-.56.15-.94s.05-.15-.3-.67,0-1,.33-.43a10.24,10.24,0,0,0,.6,1.1l0,0h0a.88.88,0,0,0,0-.17v0l0-.11a5.57,5.57,0,0,0-.25-.79h0l0-.07-.06-.06a3.78,3.78,0,0,1-.5-.48,1.19,1.19,0,0,1-.19-.61.49.49,0,0,1,0-.12v0h0a.49.49,0,0,1-.18-.2,3.85,3.85,0,0,0-1.51-.76h0a1.22,1.22,0,0,1-.55.17.89.89,0,0,1-.52-.16l-.16-.11h0l-.19,0,0,0-.19.07h0l-.19.09a2.13,2.13,0,0,1-.33.11l0,0a2.71,2.71,0,0,0-.35.24l-.14.14a.52.52,0,0,1,.11.1.55.55,0,0,1,.06.38.38.38,0,0,1-.08.17.5.5,0,0,1-.15.14.39.39,0,0,1-.18.06.31.31,0,0,1-.19,0h0a1.51,1.51,0,0,0-.3,0,.72.72,0,0,0-.26.59,4.87,4.87,0,0,0,.15,1.19c.08.58,1,.26.87,1s-.84.52-.07,1.09.05.45.75.58.9.34.95.42.15,0,.6-.09.94.23,1.17-.36.16-.65-.17-1-.56-1.1-.11-.56.93,1.32,1,1.28S252.33,361.93,252.35,361.52Z" style="fill:#fafafa;opacity:0.1"></path><path d="M271.67,360.74a3.86,3.86,0,0,1-4-6.58A2.21,2.21,0,0,1,268,354h0a3.86,3.86,0,0,1,5,1.46,3.78,3.78,0,0,1,.57,2h0A3.86,3.86,0,0,1,271.67,360.74Z" style="fill:#263238"></path><path d="M272.31,359.11a4.73,4.73,0,0,1,.27-1c.06-.29.41-.56.15-.94s0-.15-.3-.68,0-1,.33-.42c.15.27.39.79.6,1.1l0,0h0c0-.05,0-.11,0-.17v0a.52.52,0,0,1,0-.11,5.22,5.22,0,0,0-.26-.79h0l0-.06-.07-.07a4.42,4.42,0,0,1-.5-.47,1.22,1.22,0,0,1-.19-.61.49.49,0,0,0,0-.12v0h0a.64.64,0,0,1-.19-.21,4,4,0,0,0-1.51-.76h0a1.09,1.09,0,0,1-.55.18.93.93,0,0,1-.51-.16l-.16-.11h0a1.08,1.08,0,0,0-.19,0l-.06,0-.19.07h0l-.19.09a2,2,0,0,1-.32.1l0,0a3.17,3.17,0,0,0-.36.23l-.14.15a.35.35,0,0,1,.11.1.45.45,0,0,1,.06.37.37.37,0,0,1-.08.18.5.5,0,0,1-.33.2.41.41,0,0,1-.19,0h-.34a.77.77,0,0,0-.25.6A5,5,0,0,0,267,357c.08.58,1,.26.88,1s-.84.52-.08,1.09.05.45.76.58.9.34.94.42.15,0,.61-.09.94.23,1.16-.37.17-.64-.17-1-.56-1.1-.11-.56.93,1.32,1,1.28S272.28,359.53,272.31,359.11Z" style="fill:#fafafa;opacity:0.1"></path><path d="M292.36,359.55s-2.38,4.12-9.1,3.6a16.4,16.4,0,0,1-1.95-.26,2,2,0,0,1-1.46-1.44c-1-2.75.69-8.6,4.34-10.81,0,0,3.66,6.05-.34,10.05l-.26.26.26-.18A10.38,10.38,0,0,1,292.36,359.55Z" style="fill:#263238"></path><path d="M283.85,360.69a4.67,4.67,0,0,1-3,1.13A42.33,42.33,0,0,0,284,351.31s-3.43,7.65-3.36,10.51a2.16,2.16,0,0,1-.81-.37c-1-2.75.69-8.6,4.34-10.81C284.19,350.64,287.85,356.69,283.85,360.69Z" style="fill:#fafafa;opacity:0.2"></path><path d="M292.36,359.55s-2.38,4.12-9.1,3.6a2.25,2.25,0,0,1-.75-.8,20.71,20.71,0,0,0,8-2.24,71.48,71.48,0,0,1-7.72,1.85,14,14,0,0,1,1-1.19A10.38,10.38,0,0,1,292.36,359.55Z" style="fill:#fafafa;opacity:0.2"></path><rect x="230.71" y="398.82" width="72.33" height="1.96" style="fill:#263238"></rect><path d="M317.76,392.44H216l5,3.29a19,19,0,0,0,10.39,3.09h70.9a19,19,0,0,0,10.39-3.09Z" style="fill:#263238"></path><path d="M350.39,383h-167a1.16,1.16,0,0,0-.24,2.3L216,392.44H317.76l32.88-7.16A1.16,1.16,0,0,0,350.39,383Z" style="fill:#263238"></path><path d="M317.76,392.44H216l5,3.29a19,19,0,0,0,10.39,3.09h70.9a19,19,0,0,0,10.39-3.09Z" style="fill:#fafafa;opacity:0.6000000000000001"></path><path d="M350.39,383h-167a1.16,1.16,0,0,0-.24,2.3L216,392.44H317.76l32.88-7.16A1.16,1.16,0,0,0,350.39,383Z" style="fill:#fafafa;opacity:0.7000000000000001"></path><rect x="230.71" y="398.82" width="72.33" height="1.96" style="fill:#fafafa;opacity:0.4"></rect><path d="M259.53,366.6c-.54-.42,1.58-.6,1.58-.1S260.13,367.06,259.53,366.6Z" style="fill:#263238"></path><path d="M244.39,352.72c1.51.4-1.15,1.07-1.61.89S242.49,352.22,244.39,352.72Z" style="fill:#263238"></path><path d="M260.17,350.64c-.38-.19,1.93-.52,1.93.34S260.17,350.64,260.17,350.64Z" style="fill:#263238"></path><path d="M257.86,357.67c-.71-.47.64-1.5,1.15-.7S258.9,358.36,257.86,357.67Z" style="fill:#263238"></path><path d="M236.94,358.72c-.71-.51.74-1.47,1.12-.75S238.09,359.54,236.94,358.72Z" style="fill:#263238"></path><path d="M287.87,367.13c-.85-.53,1.26-.9,1.26-.22S287.87,367.13,287.87,367.13Z" style="fill:#263238"></path><path d="M272.58,364.72c-.79-1,1.46-1,1.19-.31S273.38,365.74,272.58,364.72Z" style="fill:#263238"></path></g><g id="freepik--Table--inject-3"><rect x="80.03" y="400.75" width="338.98" height="15.8" style="fill:#006994"></rect><rect x="80.03" y="400.75" width="338.98" height="15.8" style="fill:#fafafa;opacity:0.2"></rect><path d="M424.07,400.75H75.93a4,4,0,0,0-4,3.95h0a4,4,0,0,0,4,3.95H424.07A4,4,0,0,0,428,404.7h0A4,4,0,0,0,424.07,400.75Z" style="fill:#006994"></path><path d="M424.07,400.75H75.93a4,4,0,0,0-4,3.95h0a4,4,0,0,0,4,3.95H424.07A4,4,0,0,0,428,404.7h0A4,4,0,0,0,424.07,400.75Z" style="fill:#fafafa;opacity:0.4"></path></g></svg>